<?xml version="1.0" encoding="UTF-8" standalone="no"?>
<!DOCTYPE svg PUBLIC "-//W3C//DTD SVG 1.1//EN" "http://www.w3.org/Graphics/SVG/1.1/DTD/svg11.dtd">
<svg width="100%" height="100%" viewBox="0 0 512 512" version="1.1" xmlns="http://www.w3.org/2000/svg" xmlns:xlink="http://www.w3.org/1999/xlink" xml:space="preserve" xmlns:serif="http://www.serif.com/" style="fill-rule:evenodd;clip-rule:evenodd;stroke-linejoin:round;stroke-miterlimit:2;">
    <g transform="matrix(1,0,0,1,-64,-64)">
        <path d="M64,320C64,178.6 178.6,64 320,64C461.4,64 576,178.6 576,320C576,461.4 461.4,576 320,576C178.6,576 64,461.4 64,320Z" style="fill:url(#_Linear1);fill-rule:nonzero;"/>
    </g>
    <g transform="matrix(1,0,0,1,-64,-64)">
        <path d="M225.5,233.9C213.3,228.7 199.2,234.3 194,246.5C188.8,258.7 194.4,272.8 206.6,278L218.5,283.1C235.8,290.5 253.7,296 272.1,299.4L272.1,349.5C272.1,353.8 271.4,358.1 270,362.1L241.3,448.2C237.1,460.8 243.9,474.4 256.5,478.6C269.1,482.8 282.7,476 286.9,463.4L311.3,390.2C312.6,386.4 316.1,383.8 320.1,383.8C324.1,383.8 327.7,386.4 328.9,390.2L353.3,463.4C357.5,476 371.1,482.8 383.7,478.6C396.3,474.4 403,461 398.8,448.4L370.1,362.3C368.7,358.2 368,354 368,349.7L368,299.6C386.4,296.1 404.3,290.7 421.6,283.3L433.5,278.2C445.7,273 451.3,258.9 446.1,246.7C440.9,234.5 426.8,228.9 414.6,234.1L402.7,239C376.6,250.2 348.5,256 320,256C291.5,256 263.5,250.2 237.3,239L225.4,233.9L225.5,233.9ZM320,224C342.1,224 360,206.1 360,184C360,161.9 342.1,144 320,144C297.9,144 280,161.9 280,184C280,206.1 297.9,224 320,224Z" style="fill:url(#_Linear2);fill-rule:nonzero;"/>
    </g>
    <defs>
        <linearGradient id="_Linear1" x1="0" y1="0" x2="1" y2="0" gradientUnits="userSpaceOnUse" gradientTransform="matrix(512,512,-512,512,64,64)"><stop offset="0" style="stop-color:rgb(0,229,255);stop-opacity:0.3"/><stop offset="1" style="stop-color:rgb(41,121,255);stop-opacity:0.3"/></linearGradient>
        <linearGradient id="_Linear2" x1="0" y1="0" x2="1" y2="0" gradientUnits="userSpaceOnUse" gradientTransform="matrix(512,512,-512,512,64,64)"><stop offset="0" style="stop-color:rgb(0,229,255);stop-opacity:1"/><stop offset="1" style="stop-color:rgb(41,121,255);stop-opacity:1"/></linearGradient>
    </defs>
</svg>
