<?xml version="1.0" encoding="UTF-8" standalone="no"?>
<!DOCTYPE svg PUBLIC "-//W3C//DTD SVG 1.1//EN" "http://www.w3.org/Graphics/SVG/1.1/DTD/svg11.dtd">
<svg width="100%" height="100%" viewBox="0 0 205 205" version="1.1" xmlns="http://www.w3.org/2000/svg" xmlns:xlink="http://www.w3.org/1999/xlink" xml:space="preserve" xmlns:serif="http://www.serif.com/" style="fill-rule:evenodd;clip-rule:evenodd;stroke-linejoin:round;stroke-miterlimit:2;">
    <g id="path12" transform="matrix(0.437295,0,0,0.437295,-49.1678,-60.6335)">
        <path d="M135.731,285.85L135.731,459.78C135.731,481.297 147.209,501.198 165.856,511.948L316.48,598.924C335.097,609.679 358.113,609.679 376.73,598.924L527.353,511.948C545.97,501.202 557.477,481.275 557.477,459.779L557.477,285.851C557.477,264.326 546,244.428 527.353,233.674L376.729,146.72C358.113,135.963 335.096,135.963 316.48,146.72L165.856,233.674C147.237,244.422 135.73,264.353 135.731,285.851L135.731,285.85Z" style="fill:url(#_Linear1);fill-rule:nonzero;"/>
    </g>
    <g id="path13" transform="matrix(3.84382,0,0,3.84382,-151.486,-287.576)">
        <path d="M54.056,98.03L54.056,104.885C54.056,104.886 54.056,104.887 54.056,104.888C54.056,105.827 54.828,106.599 55.767,106.599C55.768,106.599 55.771,106.599 55.771,106.599C56.711,106.599 57.484,105.826 57.484,104.886C57.484,104.886 57.484,104.885 57.484,104.885C57.484,103.945 58.258,103.171 59.197,103.171C60.137,103.171 60.911,103.945 60.911,104.885C60.911,107.705 58.59,110.026 55.77,110.026C52.95,110.026 50.629,107.705 50.629,104.885L50.629,98.031C50.629,95.211 52.95,92.89 55.77,92.89C58.59,92.89 60.911,95.211 60.911,98.031C60.911,98.971 60.137,99.745 59.197,99.745C58.258,99.745 57.484,98.971 57.484,98.031C57.484,97.091 56.71,96.318 55.77,96.318C54.831,96.318 54.057,97.091 54.057,98.031L54.056,98.03ZM81.474,104.885C81.474,104.886 81.474,104.886 81.474,104.887C81.474,105.826 80.701,106.599 79.762,106.599C79.761,106.599 79.761,106.599 79.76,106.599L78.046,106.599L78.046,108.312C78.046,108.767 77.866,109.203 77.544,109.524C77.223,109.846 76.787,110.027 76.333,110.027C75.878,110.027 75.442,109.846 75.121,109.524C74.8,109.202 74.62,108.766 74.619,108.312L74.619,106.599L71.192,106.599L71.192,108.312C71.192,108.313 71.192,108.315 71.192,108.316C71.192,109.254 70.42,110.026 69.482,110.026C69.481,110.026 69.476,110.026 69.475,110.026C68.537,110.026 67.765,109.254 67.765,108.316C67.765,108.315 67.765,108.313 67.765,108.312L67.765,106.599L66.05,106.599C65.11,106.599 64.337,105.825 64.337,104.886C64.337,103.946 65.11,103.172 66.05,103.172L67.764,103.172L67.764,99.745L66.05,99.745C65.11,99.745 64.337,98.971 64.337,98.031C64.337,97.092 65.11,96.318 66.05,96.318L67.764,96.318L67.764,94.604C67.764,93.664 68.538,92.89 69.477,92.89C70.417,92.89 71.191,93.664 71.191,94.604L71.191,96.317L74.618,96.317L74.618,94.604C74.618,93.664 75.392,92.89 76.332,92.89C77.271,92.89 78.045,93.664 78.045,94.604L78.045,96.317L79.759,96.317C80.213,96.317 80.649,96.497 80.97,96.819C81.292,97.14 81.473,97.576 81.473,98.03C81.473,98.485 81.292,98.921 80.97,99.242C80.649,99.564 80.213,99.745 79.759,99.745L78.045,99.745L78.045,103.172L79.759,103.172C80.698,103.174 81.47,103.946 81.473,104.885L81.474,104.885ZM74.619,99.745L71.192,99.745L71.192,103.172L74.619,103.172L74.619,99.745Z" style="fill:url(#_Linear2);fill-rule:nonzero;"/>
    </g>
    <defs>
        <linearGradient id="_Linear1" x1="0" y1="0" x2="1" y2="0" gradientUnits="userSpaceOnUse" gradientTransform="matrix(468.334,468.334,-468.334,468.334,112.436,138.656)"><stop offset="0" style="stop-color:rgb(0,229,255);stop-opacity:0.25"/><stop offset="1" style="stop-color:rgb(41,121,255);stop-opacity:0.25"/></linearGradient>
        <linearGradient id="_Linear2" x1="0" y1="0" x2="1" y2="0" gradientUnits="userSpaceOnUse" gradientTransform="matrix(53.2803,53.2803,-53.2803,53.2803,39.4103,74.8152)"><stop offset="0" style="stop-color:rgb(0,229,255);stop-opacity:1"/><stop offset="1" style="stop-color:rgb(41,121,255);stop-opacity:1"/></linearGradient>
    </defs>
</svg>
