<?xml version="1.0" encoding="UTF-8" standalone="no"?>
<!DOCTYPE svg PUBLIC "-//W3C//DTD SVG 1.1//EN" "http://www.w3.org/Graphics/SVG/1.1/DTD/svg11.dtd">
<svg width="100%" height="100%" viewBox="0 0 24 24" version="1.1" xmlns="http://www.w3.org/2000/svg" xmlns:xlink="http://www.w3.org/1999/xlink" xml:space="preserve" xmlns:serif="http://www.serif.com/" style="fill-rule:evenodd;clip-rule:evenodd;stroke-linejoin:round;stroke-miterlimit:2;">
    <path d="M21.6,0C22.916,0 24,1.084 24,2.4L24,16.8C24,18.116 22.916,19.2 21.6,19.2L4.8,19.2L0,24L0,2.4C0,1.084 1.084,0 2.4,0L21.6,0ZM7.2,10.8L7.2,8.4L4.8,8.4L4.8,10.8L7.2,10.8ZM15.6,14.4L15.6,12L9.6,12L9.6,14.4L15.6,14.4ZM7.2,14.4L7.2,12L4.8,12L4.8,14.4L7.2,14.4ZM7.2,7.2L7.2,4.8L4.8,4.8L4.8,7.2L7.2,7.2ZM19.2,7.2L19.2,4.8L9.6,4.8L9.6,7.2L19.2,7.2ZM19.2,10.8L19.2,8.4L9.6,8.4L9.6,10.8L19.2,10.8Z" style="fill:url(#_Linear1);fill-rule:nonzero;"/>
    <defs>
        <linearGradient id="_Linear1" x1="0" y1="0" x2="1" y2="0" gradientUnits="userSpaceOnUse" gradientTransform="matrix(20,20,-20,20,2,2)"><stop offset="0" style="stop-color:rgb(237,204,0);stop-opacity:1"/><stop offset="1" style="stop-color:rgb(255,144,27);stop-opacity:1"/></linearGradient>
    </defs>
</svg>
