<?xml version="1.0" encoding="UTF-8" standalone="no"?>
<!DOCTYPE svg PUBLIC "-//W3C//DTD SVG 1.1//EN" "http://www.w3.org/Graphics/SVG/1.1/DTD/svg11.dtd">
<svg width="100%" height="100%" viewBox="0 0 24 24" version="1.1" xmlns="http://www.w3.org/2000/svg" xmlns:xlink="http://www.w3.org/1999/xlink" xml:space="preserve" xmlns:serif="http://www.serif.com/" style="fill-rule:evenodd;clip-rule:evenodd;stroke-linejoin:round;stroke-miterlimit:2;">
    <g transform="matrix(1.2,0,0,1.2,-2.4,-2.4)">
        <path d="M10,22C9.75,22 9.54,21.82 9.5,21.58L9.13,18.93C8.5,18.68 7.96,18.34 7.44,17.94L4.95,18.95C4.73,19.03 4.46,18.95 4.34,18.73L2.34,15.27C2.21,15.05 2.27,14.78 2.46,14.63L4.57,12.97L4.5,12L4.57,11L2.46,9.37C2.27,9.22 2.21,8.95 2.34,8.73L4.34,5.27C4.46,5.05 4.73,4.96 4.95,5.05L7.44,6.05C7.96,5.66 8.5,5.32 9.13,5.07L9.5,2.42C9.54,2.18 9.75,2 10,2L14,2C14.25,2 14.46,2.18 14.5,2.42L14.87,5.07C15.5,5.32 16.04,5.66 16.56,6.05L19.05,5.05C19.27,4.96 19.54,5.05 19.66,5.27L21.66,8.73C21.79,8.95 21.73,9.22 21.54,9.37L19.43,11L19.5,12L19.43,13L21.54,14.63C21.73,14.78 21.79,15.05 21.66,15.27L19.66,18.73C19.54,18.95 19.27,19.04 19.05,18.95L16.56,17.95C16.04,18.34 15.5,18.68 14.87,18.93L14.5,21.58C14.46,21.82 14.25,22 14,22L10,22" style="fill:url(#_Linear1);fill-rule:nonzero;"/>
    </g>
    <g transform="matrix(0.666667,0,0,0.666667,4,4)">
        <circle cx="12" cy="12" r="6" style="fill:url(#_Linear2);"/>
    </g>
    <defs>
        <linearGradient id="_Linear1" x1="0" y1="0" x2="1" y2="0" gradientUnits="userSpaceOnUse" gradientTransform="matrix(20,20,-20,20,2,2)"><stop offset="0" style="stop-color:rgb(0,229,255);stop-opacity:0.5"/><stop offset="1" style="stop-color:rgb(41,121,255);stop-opacity:0.5"/></linearGradient>
        <linearGradient id="_Linear2" x1="0" y1="0" x2="1" y2="0" gradientUnits="userSpaceOnUse" gradientTransform="matrix(36,36,-36,36,-6,-6)"><stop offset="0" style="stop-color:rgb(0,229,255);stop-opacity:1"/><stop offset="1" style="stop-color:rgb(41,121,255);stop-opacity:1"/></linearGradient>
    </defs>
</svg>
