<?xml version="1.0" encoding="UTF-8" standalone="no"?>
<!DOCTYPE svg PUBLIC "-//W3C//DTD SVG 1.1//EN" "http://www.w3.org/Graphics/SVG/1.1/DTD/svg11.dtd">
<svg width="100%" height="100%" viewBox="0 0 50 50" version="1.1" xmlns="http://www.w3.org/2000/svg" xmlns:xlink="http://www.w3.org/1999/xlink" xml:space="preserve" xmlns:serif="http://www.serif.com/" style="fill-rule:evenodd;clip-rule:evenodd;stroke-linejoin:round;stroke-miterlimit:2;">
    <path d="M46.793,22.09L27.91,3.207C27.109,2.402 26.055,2 25,2C23.945,2 22.891,2.402 22.09,3.207L3.207,22.09C1.598,23.695 1.598,26.305 3.207,27.91L22.09,46.793C22.891,47.598 23.945,48 25,48C26.055,48 27.109,47.598 27.91,46.793L46.793,27.91C48.402,26.305 48.402,23.695 46.793,22.09Z" style="fill:url(#_Linear1);fill-rule:nonzero;"/>
    <path d="M16.941,8.355L18.355,6.941L22.977,11.563C24.512,10.66 26.512,10.855 27.828,12.172C29.145,13.488 29.336,15.488 28.434,17.02L32.977,21.563C34.512,20.66 36.512,20.855 37.828,22.172C39.391,23.734 39.391,26.266 37.828,27.828C36.266,29.391 33.734,29.391 32.172,27.828C30.855,26.512 30.66,24.512 31.563,22.977L27.02,18.434C26.695,18.625 26.355,18.766 26,18.855L26,31.141C27.723,31.586 29,33.137 29,35C29,37.211 27.211,39 25,39C22.789,39 21,37.211 21,35C21,33.137 22.277,31.586 24,31.141L24,18.855C23.332,18.684 22.695,18.352 22.172,17.828C20.855,16.512 20.664,14.512 21.566,12.98L16.941,8.355Z" style="fill:url(#_Linear2);fill-rule:nonzero;"/>
    <defs>
        <linearGradient id="_Linear1" x1="0" y1="0" x2="1" y2="0" gradientUnits="userSpaceOnUse" gradientTransform="matrix(50,50,-50,50,0,0)"><stop offset="0" style="stop-color:rgb(0,229,255);stop-opacity:0.25"/><stop offset="1" style="stop-color:rgb(41,121,255);stop-opacity:0.25"/></linearGradient>
        <linearGradient id="_Linear2" x1="0" y1="0" x2="1" y2="0" gradientUnits="userSpaceOnUse" gradientTransform="matrix(50,50,-50,50,0,0)"><stop offset="0" style="stop-color:rgb(0,229,255);stop-opacity:1"/><stop offset="1" style="stop-color:rgb(41,121,255);stop-opacity:1"/></linearGradient>
    </defs>
</svg>
