<?xml version="1.0" encoding="UTF-8" standalone="no"?>
<!DOCTYPE svg PUBLIC "-//W3C//DTD SVG 1.1//EN" "http://www.w3.org/Graphics/SVG/1.1/DTD/svg11.dtd">
<svg width="100%" height="100%" viewBox="0 0 576 512" version="1.1" xmlns="http://www.w3.org/2000/svg" xmlns:xlink="http://www.w3.org/1999/xlink" xml:space="preserve" xmlns:serif="http://www.serif.com/" style="fill-rule:evenodd;clip-rule:evenodd;stroke-linejoin:round;stroke-miterlimit:2;">
    <g transform="matrix(1,0,0,1,0,256.025)">
        <path d="M438.71,63.975L530.1,106.2C538.6,110.1 544,118.6 544,128C544,137.4 538.6,145.9 530.1,149.8L311.5,250.8C296.6,257.7 279.4,257.7 264.5,250.8L45.9,149.8C37.4,145.8 32,137.3 32,128C32,118.7 37.4,110.1 45.9,106.2L137.29,63.975L264.5,122.75C279.4,129.65 296.6,129.65 311.5,122.75L438.71,63.975Z" style="fill:url(#_Linear1);"/>
    </g>
    <g transform="matrix(1,0,0,1,0,127.975)">
        <path d="M264.5,5.2C279.4,-1.7 296.6,-1.7 311.5,5.2L530.1,106.2C538.6,110.1 544,118.6 544,128C544,137.4 538.6,145.9 530.1,149.8L311.5,250.8C296.6,257.7 279.4,257.7 264.5,250.8L45.9,149.8C37.4,145.8 32,137.3 32,128C32,118.7 37.4,110.1 45.9,106.2L264.5,5.2Z" style="fill:url(#_Linear2);fill-rule:nonzero;"/>
    </g>
    <path d="M264.5,5.2C279.4,-1.7 296.6,-1.7 311.5,5.2L530.1,106.2C538.6,110.1 544,118.6 544,128C544,137.4 538.6,145.9 530.1,149.8L311.5,250.8C296.6,257.7 279.4,257.7 264.5,250.8L45.9,149.8C37.4,145.8 32,137.3 32,128C32,118.7 37.4,110.1 45.9,106.2L264.5,5.2Z" style="fill:url(#_Linear3);fill-rule:nonzero;"/>
    <defs>
        <linearGradient id="_Linear1" x1="0" y1="0" x2="1" y2="0" gradientUnits="userSpaceOnUse" gradientTransform="matrix(576,511.975,-511.975,576,0,-256)"><stop offset="0" style="stop-color:rgb(0,229,255);stop-opacity:0.33"/><stop offset="1" style="stop-color:rgb(41,121,255);stop-opacity:0.25"/></linearGradient>
        <linearGradient id="_Linear2" x1="0" y1="0" x2="1" y2="0" gradientUnits="userSpaceOnUse" gradientTransform="matrix(576,511.975,-511.975,576,0,-127.95)"><stop offset="0" style="stop-color:rgb(0,229,255);stop-opacity:0.66"/><stop offset="1" style="stop-color:rgb(41,121,255);stop-opacity:0.5"/></linearGradient>
        <linearGradient id="_Linear3" x1="0" y1="0" x2="1" y2="0" gradientUnits="userSpaceOnUse" gradientTransform="matrix(576,511.975,-511.975,576,0,0.025)"><stop offset="0" style="stop-color:rgb(0,229,255);stop-opacity:1"/><stop offset="1" style="stop-color:rgb(41,121,255);stop-opacity:1"/></linearGradient>
    </defs>
</svg>
