<?xml version="1.0" encoding="UTF-8" standalone="no"?>
<!DOCTYPE svg PUBLIC "-//W3C//DTD SVG 1.1//EN" "http://www.w3.org/Graphics/SVG/1.1/DTD/svg11.dtd">
<svg width="100%" height="100%" viewBox="0 0 17 23" version="1.1" xmlns="http://www.w3.org/2000/svg" xmlns:xlink="http://www.w3.org/1999/xlink" xml:space="preserve" xmlns:serif="http://www.serif.com/" style="fill-rule:evenodd;clip-rule:evenodd;stroke-linejoin:round;stroke-miterlimit:2;">
    <g transform="matrix(1,0,0,1,-4,-2)">
        <path d="M20,8L20,20C20,21.097 19.097,22 18,22L6,22C4.903,22 4,21.097 4,20L4,4C4,2.903 4.903,2 6,2L14,2L14,8L20,8Z" style="fill:url(#_Linear1);fill-rule:nonzero;"/>
    </g>
    <g transform="matrix(0.438354,0,0,0.973037,6.48036,-4.45274)">
        <path d="M8.029,4.576L21.717,10.742L8.029,10.742L8.029,4.576Z" style="fill:url(#_Linear2);"/>
    </g>
    <g transform="matrix(0.875,0,0,0.875,2.5,2.13812)">
        <path d="M10,23L10,18L14,18L14,23L12,22L10,23ZM14,12.419L16,13.564L14,14.709L14,17L12,15.855L10,17L10,14.709L8,13.564L10,12.419L10,10.128L12,11.273L14,10.128L14,12.419Z" style="fill:url(#_Linear3);"/>
    </g>
    <defs>
        <linearGradient id="_Linear1" x1="0" y1="0" x2="1" y2="0" gradientUnits="userSpaceOnUse" gradientTransform="matrix(24,24,-24,24,0,2)"><stop offset="0" style="stop-color:rgb(0,229,255);stop-opacity:0.3"/><stop offset="1" style="stop-color:rgb(41,121,255);stop-opacity:0.3"/></linearGradient>
        <linearGradient id="_Linear2" x1="0" y1="0" x2="1" y2="0" gradientUnits="userSpaceOnUse" gradientTransform="matrix(54.7503,24.665,-54.7503,24.665,-23.9084,4.57613)"><stop offset="0" style="stop-color:rgb(0,229,255);stop-opacity:1"/><stop offset="1" style="stop-color:rgb(41,121,255);stop-opacity:1"/></linearGradient>
        <linearGradient id="_Linear3" x1="0" y1="0" x2="1" y2="0" gradientUnits="userSpaceOnUse" gradientTransform="matrix(27.4286,27.4286,-27.4286,27.4286,-7.42857,-2.44357)"><stop offset="0" style="stop-color:rgb(0,229,255);stop-opacity:1"/><stop offset="1" style="stop-color:rgb(41,121,255);stop-opacity:1"/></linearGradient>
    </defs>
</svg>
