<?xml version="1.0" encoding="UTF-8" standalone="no"?>
<!DOCTYPE svg PUBLIC "-//W3C//DTD SVG 1.1//EN" "http://www.w3.org/Graphics/SVG/1.1/DTD/svg11.dtd">
<svg width="100%" height="100%" viewBox="0 0 24 24" version="1.1" xmlns="http://www.w3.org/2000/svg" xmlns:xlink="http://www.w3.org/1999/xlink" xml:space="preserve" xmlns:serif="http://www.serif.com/" style="fill-rule:evenodd;clip-rule:evenodd;stroke-linejoin:round;stroke-miterlimit:2;">
    <path d="M22.8,1.2L22.8,15.6C22.8,16.259 22.259,16.8 21.6,16.8L13.2,16.8L13.2,19.2L14.4,19.2C15.059,19.2 15.6,19.741 15.6,20.4L24,20.4L24,22.8L15.6,22.8C15.6,23.459 15.059,24 14.4,24L9.6,24C8.941,24 8.4,23.459 8.4,22.8L0,22.8L0,20.4L8.4,20.4C8.4,19.741 8.941,19.2 9.6,19.2L10.8,19.2L10.8,16.8L2.4,16.8C1.741,16.8 1.2,16.259 1.2,15.6L1.2,1.2C1.2,0.541 1.741,-0 2.4,-0L21.6,-0C22.259,-0 22.8,0.541 22.8,1.2Z" style="fill:url(#_Linear1);"/>
    <g transform="matrix(1,0,0,1,-2,-1)">
        <circle cx="20" cy="6" r="2" style="fill:url(#_Linear2);"/>
    </g>
    <g transform="matrix(1,0,0,1,-2,6)">
        <circle cx="20" cy="6" r="2" style="fill:url(#_Linear3);"/>
    </g>
    <defs>
        <linearGradient id="_Linear1" x1="0" y1="0" x2="1" y2="0" gradientUnits="userSpaceOnUse" gradientTransform="matrix(24,24,-24,24,0,0)"><stop offset="0" style="stop-color:rgb(0,229,255);stop-opacity:0.4"/><stop offset="1" style="stop-color:rgb(41,121,255);stop-opacity:0.4"/></linearGradient>
        <linearGradient id="_Linear2" x1="0" y1="0" x2="1" y2="0" gradientUnits="userSpaceOnUse" gradientTransform="matrix(24,24,-24,24,2,1)"><stop offset="0" style="stop-color:rgb(0,229,255);stop-opacity:1"/><stop offset="1" style="stop-color:rgb(41,121,255);stop-opacity:1"/></linearGradient>
        <linearGradient id="_Linear3" x1="0" y1="0" x2="1" y2="0" gradientUnits="userSpaceOnUse" gradientTransform="matrix(24,24,-24,24,2,-6)"><stop offset="0" style="stop-color:rgb(0,229,255);stop-opacity:1"/><stop offset="1" style="stop-color:rgb(41,121,255);stop-opacity:1"/></linearGradient>
    </defs>
</svg>
