<?xml version="1.0" encoding="UTF-8" standalone="no"?>
<!DOCTYPE svg PUBLIC "-//W3C//DTD SVG 1.1//EN" "http://www.w3.org/Graphics/SVG/1.1/DTD/svg11.dtd">
<svg width="100%" height="100%" viewBox="0 0 24 24" version="1.1" xmlns="http://www.w3.org/2000/svg" xmlns:xlink="http://www.w3.org/1999/xlink" xml:space="preserve" xmlns:serif="http://www.serif.com/" style="fill-rule:evenodd;clip-rule:evenodd;stroke-linejoin:round;stroke-miterlimit:2;">
    <path d="M18.744,23.06L5.22,23.06C5.213,23.06 5.206,23.06 5.199,23.06C4.605,23.047 3.978,22.522 3.516,22.072C1.344,19.9 0,16.9 0,13.588C-0,9.176 2.413,5.256 6,3.172C5.986,3.151 6,3.172 6,3.172C7.764,2.188 9.792,1.588 11.964,1.588C11.976,1.588 11.988,1.588 12,1.588C14.172,1.588 16.2,2.188 17.964,3.172C17.964,3.172 17.978,3.151 17.964,3.172C21.551,5.256 23.964,9.176 23.964,13.588C23.964,16.9 22.62,19.9 20.448,22.072C19.98,22.528 19.475,23.06 18.744,23.06Z" style="fill:url(#_Linear1);"/>
    <g transform="matrix(1.2,0,0,1.2,-2.4,-2.01226)">
        <path d="M12,16C10.354,16 9,14.646 9,13C9,11.88 9.61,10.9 10.5,10.39L20.21,4.77L14.68,14.35C14.18,15.33 13.17,16 12,16" style="fill:url(#_Linear2);fill-rule:nonzero;"/>
    </g>
    <defs>
        <linearGradient id="_Linear1" x1="0" y1="0" x2="1" y2="0" gradientUnits="userSpaceOnUse" gradientTransform="matrix(23.964,24,-24,23.964,0,0)"><stop offset="0" style="stop-color:rgb(0,229,255);stop-opacity:0.4"/><stop offset="1" style="stop-color:rgb(41,121,255);stop-opacity:0.4"/></linearGradient>
        <linearGradient id="_Linear2" x1="0" y1="0" x2="1" y2="0" gradientUnits="userSpaceOnUse" gradientTransform="matrix(19.97,20,-20,19.97,2,1.67688)"><stop offset="0" style="stop-color:rgb(0,229,255);stop-opacity:1"/><stop offset="1" style="stop-color:rgb(41,121,255);stop-opacity:1"/></linearGradient>
    </defs>
</svg>
