<?xml version="1.0" encoding="UTF-8" standalone="no"?>
<!DOCTYPE svg PUBLIC "-//W3C//DTD SVG 1.1//EN" "http://www.w3.org/Graphics/SVG/1.1/DTD/svg11.dtd">
<svg width="100%" height="100%" viewBox="0 0 481 510" version="1.1" xmlns="http://www.w3.org/2000/svg" xmlns:xlink="http://www.w3.org/1999/xlink" xml:space="preserve" xmlns:serif="http://www.serif.com/" style="fill-rule:evenodd;clip-rule:evenodd;stroke-linejoin:round;stroke-miterlimit:2;">
    <g transform="matrix(1,0,0,1,-80.0995,-64)">
        <path d="M320,64C324.6,64 329.2,65 333.4,66.9L521.8,146.8C543.8,156.1 560.2,177.8 560.1,204C559.6,303.2 518.8,484.7 346.5,567.2C329.8,575.2 310.4,575.2 293.7,567.2C121.3,484.7 80.6,303.2 80.1,204C80,177.8 96.4,156.1 118.4,146.8L306.7,66.9C310.9,65 315.4,64 320,64Z" style="fill:url(#_Linear1);fill-rule:nonzero;"/>
    </g>
    <g transform="matrix(0.449219,0,0,0.449219,96.2505,110.85)">
        <path d="M544,269.8C529.2,279.6 512.2,287.5 494.5,293.8C447.5,310.6 385.8,320 320,320C254.2,320 192.4,310.5 145.5,293.8C127.9,287.5 110.8,279.6 96,269.8L96,352C96,396.2 196.3,432 320,432C443.7,432 544,396.2 544,352L544,269.8ZM544,192L544,144C544,99.8 443.7,64 320,64C196.3,64 96,99.8 96,144L96,192C96,236.2 196.3,272 320,272C443.7,272 544,236.2 544,192ZM494.5,453.8C447.6,470.5 385.9,480 320,480C254.1,480 192.4,470.5 145.5,453.8C127.9,447.5 110.8,439.6 96,429.8L96,496C96,540.2 196.3,576 320,576C443.7,576 544,540.2 544,496L544,429.8C529.2,439.6 512.2,447.5 494.5,453.8Z" style="fill:url(#_Linear2);fill-rule:nonzero;"/>
    </g>
    <defs>
        <linearGradient id="_Linear1" x1="0" y1="0" x2="1" y2="0" gradientUnits="userSpaceOnUse" gradientTransform="matrix(480.001,509.2,-509.2,480.001,80.0995,64)"><stop offset="0" style="stop-color:rgb(0,229,255);stop-opacity:0.35"/><stop offset="1" style="stop-color:rgb(41,121,255);stop-opacity:0.35"/></linearGradient>
        <linearGradient id="_Linear2" x1="0" y1="0" x2="1" y2="0" gradientUnits="userSpaceOnUse" gradientTransform="matrix(1068.52,1133.52,-1133.52,1068.52,-214.262,-246.762)"><stop offset="0" style="stop-color:rgb(0,229,255);stop-opacity:1"/><stop offset="1" style="stop-color:rgb(41,121,255);stop-opacity:1"/></linearGradient>
    </defs>
</svg>
