<?xml version="1.0" encoding="UTF-8" standalone="no"?>
<!DOCTYPE svg PUBLIC "-//W3C//DTD SVG 1.1//EN" "http://www.w3.org/Graphics/SVG/1.1/DTD/svg11.dtd">
<svg width="100%" height="100%" viewBox="0 0 512 512" version="1.1" xmlns="http://www.w3.org/2000/svg" xmlns:xlink="http://www.w3.org/1999/xlink" xml:space="preserve" xmlns:serif="http://www.serif.com/" style="fill-rule:evenodd;clip-rule:evenodd;stroke-linejoin:round;stroke-miterlimit:2;">
    <path d="M320,0L448,0C483.3,0 512,28.7 512,64L512,192C512,200.8 504.8,208 496,208L444,208C437.4,208 432,213.4 432,220L432,224C432,241.7 417.7,256 400,256C382.3,256 368,241.7 368,224L368,220C368,213.4 362.6,208 356,208L320,208C311.2,208 304,200.8 304,192L304,160C304,151.2 311.2,144 320,144L336,144C353.7,144 368,129.7 368,112C368,94.3 353.7,80 336,80L320,80C311.2,80 304,72.8 304,64L304,16C304,7.2 311.2,0 320,0Z" style="fill:url(#_Linear1);fill-rule:nonzero;"/>
    <path d="M0,256L0,128C0,92.7 28.7,64 64,64L192,64C200.8,64 208,71.2 208,80L208,116C208,122.6 213.4,128 220,128L224,128C241.7,128 256,142.3 256,160C256,177.7 241.7,192 224,192L220,192C213.4,192 208,197.4 208,204L208,256C208,264.8 200.8,272 192,272L160,272C151.2,272 144,264.8 144,256L144,240C144,222.3 129.7,208 112,208C94.3,208 80,222.3 80,240L80,256C80,264.8 72.8,272 64,272L16,272C7.2,272 0,264.8 0,256ZM0,448L0,320C0,311.2 7.2,304 16,304L192,304C200.8,304 208,311.2 208,320L208,352C208,360.8 200.8,368 192,368L176,368C158.3,368 144,382.3 144,400C144,417.7 158.3,432 176,432L192,432C200.8,432 208,439.2 208,448L208,496C208,504.8 200.8,512 192,512L64,512C28.7,512 0,483.3 0,448ZM240,320C240,311.2 247.2,304 256,304L288,304C296.8,304 304,311.2 304,320L304,336C304,353.7 318.3,368 336,368C353.7,368 368,353.7 368,336L368,320C368,311.2 375.2,304 384,304L432,304C440.8,304 448,311.2 448,320L448,448C448,483.3 419.3,512 384,512L256,512C247.2,512 240,504.8 240,496L240,320Z" style="fill:url(#_Linear2);fill-rule:nonzero;"/>
    <defs>
        <linearGradient id="_Linear1" x1="0" y1="0" x2="1" y2="0" gradientUnits="userSpaceOnUse" gradientTransform="matrix(512,512,-512,512,0,0)"><stop offset="0" style="stop-color:rgb(0,229,255);stop-opacity:1"/><stop offset="1" style="stop-color:rgb(41,121,255);stop-opacity:1"/></linearGradient>
        <linearGradient id="_Linear2" x1="0" y1="0" x2="1" y2="0" gradientUnits="userSpaceOnUse" gradientTransform="matrix(512,512,-512,512,0,0)"><stop offset="0" style="stop-color:rgb(0,229,255);stop-opacity:0.5"/><stop offset="1" style="stop-color:rgb(41,121,255);stop-opacity:0.5"/></linearGradient>
    </defs>
</svg>
