<?xml version="1.0" encoding="UTF-8" standalone="no"?>
<!DOCTYPE svg PUBLIC "-//W3C//DTD SVG 1.1//EN" "http://www.w3.org/Graphics/SVG/1.1/DTD/svg11.dtd">
<svg width="100%" height="100%" viewBox="0 0 24 24" version="1.1" xmlns="http://www.w3.org/2000/svg" xmlns:xlink="http://www.w3.org/1999/xlink" xml:space="preserve" xmlns:serif="http://www.serif.com/" style="fill-rule:evenodd;clip-rule:evenodd;stroke-linejoin:round;stroke-miterlimit:2;">
    <g transform="matrix(1.2,0,0,1.2,-2.4,-2.4)">
        <path d="M12,2C6.5,2 2,6.5 2,12C2,17.5 6.5,22 12,22C17.5,22 22,17.5 22,12C22,6.5 17.5,2 12,2" style="fill:url(#_Linear1);fill-rule:nonzero;"/>
    </g>
    <g transform="matrix(0.8,0,0,0.8,2.42278,2.4)">
        <path d="M10,19.5L13,19.5L13,22.5L10,22.5L10,19.5M12,2C17.35,2.22 19.68,7.62 16.5,11.67C15.67,12.67 14.33,13.33 13.67,14.17C13,15 13,16 13,17L10,17C10,15.33 10,13.92 10.67,12.92C11.33,11.92 12.67,11.33 13.5,10.67C15.92,8.43 15.32,5.26 12,5C10.354,5 9,6.354 9,8L6,8C6,4.708 8.708,2 12,2Z" style="fill:url(#_Linear2);fill-rule:nonzero;"/>
    </g>
    <defs>
        <linearGradient id="_Linear1" x1="0" y1="0" x2="1" y2="0" gradientUnits="userSpaceOnUse" gradientTransform="matrix(20,20,-20,20,2,2)"><stop offset="0" style="stop-color:rgb(0,229,255);stop-opacity:0.2"/><stop offset="1" style="stop-color:rgb(41,121,255);stop-opacity:0.2"/></linearGradient>
        <linearGradient id="_Linear2" x1="0" y1="0" x2="1" y2="0" gradientUnits="userSpaceOnUse" gradientTransform="matrix(30,30,-30,30,-3.02848,-3)"><stop offset="0" style="stop-color:rgb(0,229,255);stop-opacity:1"/><stop offset="1" style="stop-color:rgb(41,121,255);stop-opacity:1"/></linearGradient>
    </defs>
</svg>
