<?xml version="1.0" encoding="UTF-8" standalone="no"?>
<!DOCTYPE svg PUBLIC "-//W3C//DTD SVG 1.1//EN" "http://www.w3.org/Graphics/SVG/1.1/DTD/svg11.dtd">
<svg width="100%" height="100%" viewBox="0 0 640 640" version="1.1" xmlns="http://www.w3.org/2000/svg" xmlns:xlink="http://www.w3.org/1999/xlink" xml:space="preserve" xmlns:serif="http://www.serif.com/" style="fill-rule:evenodd;clip-rule:evenodd;stroke-linejoin:round;stroke-miterlimit:2;">
    <g transform="matrix(1.21429,0,0,1.21429,-68.5714,-68.5714)">
        <path d="M544,208L544,432C544,493.814 493.814,544 432,544L208,544C146.186,544 96,493.814 96,432L96,208C96,146.186 146.186,96 208,96L432,96C493.814,96 544,146.186 544,208Z" style="fill:rgb(3,155,229);fill-opacity:0.25;"/>
    </g>
    <g transform="matrix(1.21429,0,0,1.21429,-68.5714,-68.5714)">
        <path d="M438,209.7C427.3,201.9 412.3,204.3 404.5,215L285.1,379.2L233,327.1C223.6,317.7 208.4,317.7 199.1,327.1C189.8,336.5 189.7,351.7 199.1,361L271.1,433C276.1,438 283,440.5 289.9,440C296.8,439.5 303.3,435.9 307.4,430.2L443.3,243.2C451.1,232.5 448.7,217.5 438,209.7Z" style="fill:rgb(3,155,229);fill-rule:nonzero;"/>
    </g>
</svg>
