<?xml version="1.0" encoding="UTF-8" standalone="no"?>
<!DOCTYPE svg PUBLIC "-//W3C//DTD SVG 1.1//EN" "http://www.w3.org/Graphics/SVG/1.1/DTD/svg11.dtd">
<svg width="100%" height="100%" viewBox="0 0 24 24" version="1.1" xmlns="http://www.w3.org/2000/svg" xmlns:xlink="http://www.w3.org/1999/xlink" xml:space="preserve" xmlns:serif="http://www.serif.com/" style="fill-rule:evenodd;clip-rule:evenodd;stroke-linejoin:round;stroke-miterlimit:2;">
    <g transform="matrix(1.2,0,0,1.2,-2.4,-2.4)">
        <path d="M12,2C6.5,2 2,6.5 2,12C2,17.5 6.5,22 12,22C17.5,22 22,17.5 22,12C22,6.5 17.5,2 12,2" style="fill:url(#_Linear1);fill-rule:nonzero;"/>
    </g>
    <g transform="matrix(1.14337,0,0,1.14337,-1.74901,-1.65183)">
        <path d="M10.05,16.94L10.05,12.94L18.97,12.94L19,10.93L10.05,10.93L10.05,6.94L5.05,11.94L10.05,16.94Z" style="fill:url(#_Linear2);fill-rule:nonzero;"/>
    </g>
    <defs>
        <linearGradient id="_Linear1" x1="0" y1="0" x2="1" y2="0" gradientUnits="userSpaceOnUse" gradientTransform="matrix(-20,-20,20,-20,22,22)"><stop offset="0" style="stop-color:rgb(97,97,97);stop-opacity:0.2"/><stop offset="1" style="stop-color:rgb(189,189,189);stop-opacity:0.2"/></linearGradient>
        <linearGradient id="_Linear2" x1="0" y1="0" x2="1" y2="0" gradientUnits="userSpaceOnUse" gradientTransform="matrix(-20.9906,-20.9906,20.9906,-20.9906,22.5203,22.4353)"><stop offset="0" style="stop-color:rgb(117,117,117);stop-opacity:1"/><stop offset="1" style="stop-color:rgb(158,158,158);stop-opacity:1"/></linearGradient>
    </defs>
</svg>
