<?xml version="1.0" encoding="UTF-8" standalone="no"?>
<!DOCTYPE svg PUBLIC "-//W3C//DTD SVG 1.1//EN" "http://www.w3.org/Graphics/SVG/1.1/DTD/svg11.dtd">
<svg width="100%" height="100%" viewBox="0 0 448 512" version="1.1" xmlns="http://www.w3.org/2000/svg" xmlns:xlink="http://www.w3.org/1999/xlink" xml:space="preserve" xmlns:serif="http://www.serif.com/" style="fill-rule:evenodd;clip-rule:evenodd;stroke-linejoin:round;stroke-miterlimit:2;">
    <path d="M128,0C145.7,0 160,14.3 160,32L160,64L288,64L288,32C288,14.3 302.3,0 320,0C337.7,0 352,14.3 352,32L352,64L400,64C426.5,64 448,85.5 448,112L448,160L0,160L0,112C0,85.5 21.5,64 48,64L96,64L96,32C96,14.3 110.3,0 128,0ZM0,192L448,192L448,464C448,490.5 426.5,512 400,512L48,512C21.5,512 0,490.5 0,464L0,192Z" style="fill:url(#_Linear1);fill-rule:nonzero;"/>
    <path d="M329,305C338.4,295.6 338.4,280.4 329,271.1C319.6,261.8 304.4,261.7 295.1,271.1L200.1,366.1L153.1,319.1C143.7,309.7 128.5,309.7 119.2,319.1C109.9,328.5 109.8,343.7 119.2,353L183.2,417C192.6,426.4 207.8,426.4 217.1,417L329,305Z" style="fill:url(#_Linear2);fill-rule:nonzero;"/>
    <defs>
        <linearGradient id="_Linear1" x1="0" y1="0" x2="1" y2="0" gradientUnits="userSpaceOnUse" gradientTransform="matrix(443,512,-585.143,506.286,0,0)"><stop offset="0" style="stop-color:rgb(0,229,255);stop-opacity:0.3"/><stop offset="1" style="stop-color:rgb(41,121,255);stop-opacity:0.4"/></linearGradient>
        <linearGradient id="_Linear2" x1="0" y1="0" x2="1" y2="0" gradientUnits="userSpaceOnUse" gradientTransform="matrix(443,512,-585.143,506.286,0,0)"><stop offset="0" style="stop-color:rgb(0,229,255);stop-opacity:1"/><stop offset="1" style="stop-color:rgb(41,121,255);stop-opacity:1"/></linearGradient>
    </defs>
</svg>
