<?xml version="1.0" encoding="UTF-8" standalone="no"?>
<!DOCTYPE svg PUBLIC "-//W3C//DTD SVG 1.1//EN" "http://www.w3.org/Graphics/SVG/1.1/DTD/svg11.dtd">
<svg width="100%" height="100%" viewBox="0 0 24 24" version="1.1" xmlns="http://www.w3.org/2000/svg" xmlns:xlink="http://www.w3.org/1999/xlink" xml:space="preserve" xmlns:serif="http://www.serif.com/" style="fill-rule:evenodd;clip-rule:evenodd;stroke-linejoin:round;stroke-miterlimit:2;">

    <g transform="matrix(1.18877,0,0,1.18876,-2.15168,-2.37849)">
        <path d="M13.13,22.19L11.5,18.36C13.07,17.78 14.54,17 15.9,16.09L13.13,22.19M5.64,12.5L1.81,10.87L7.91,8.1C7,9.46 6.22,10.93 5.64,12.5M21.61,2.39C21.61,2.39 16.66,0.269 11,5.93C8.81,8.12 7.5,10.53 6.65,12.64C6.37,13.39 6.56,14.21 7.11,14.77L9.24,16.89C9.79,17.45 10.61,17.63 11.36,17.35C13.5,16.53 15.88,15.19 18.07,13C23.73,7.34 21.61,2.39 21.61,2.39M14.54,9.46C13.76,8.68 13.76,7.41 14.54,6.63C15.32,5.85 16.59,5.85 17.37,6.63C18.14,7.41 18.15,8.68 17.37,9.46C16.59,10.24 15.32,10.24 14.54,9.46M8.88,16.53L7.47,15.12L8.88,16.53" style="fill:url(#_Linear2);fill-rule:nonzero;"/>
    </g>
    <g transform="matrix(1.18877,0,0,1.18876,-2.15168,-2.37849)">
        <path d="M6.24,22L9.88,18.36C9.54,18.27 9.21,18.12 8.91,17.91L4.83,22L6.24,22M2,22L3.41,22L8.18,17.24L6.76,15.83L2,20.59L2,22M2,19.17L6.09,15.09C5.88,14.79 5.73,14.47 5.64,14.12L2,17.76L2,19.17Z" style="fill:url(#_Linear3);fill-rule:nonzero;"/>
    </g>
    <defs>
        <linearGradient id="_Linear2" x1="0" y1="0" x2="1" y2="0" gradientUnits="userSpaceOnUse" gradientTransform="matrix(-20.1889,-20.1892,20.1889,-20.1892,21.9989,22.19)"><stop offset="0" style="stop-color:rgb(41,121,255);stop-opacity:1"/><stop offset="1" style="stop-color:rgb(0,229,255);stop-opacity:1"/></linearGradient>
        <linearGradient id="_Linear3" x1="0" y1="0" x2="1" y2="0" gradientUnits="userSpaceOnUse" gradientTransform="matrix(-20.1889,-20.1892,20.1889,-20.1892,21.9989,22.19)"><stop offset="0" style="stop-color:rgb(41,121,255);stop-opacity:0.5"/><stop offset="1" style="stop-color:rgb(0,229,255);stop-opacity:0.5"/></linearGradient>
    </defs>
</svg>
