<?xml version="1.0" encoding="UTF-8" standalone="no"?>
<!DOCTYPE svg PUBLIC "-//W3C//DTD SVG 1.1//EN" "http://www.w3.org/Graphics/SVG/1.1/DTD/svg11.dtd">
<svg width="100%" height="100%" viewBox="0 0 448 512" version="1.1" xmlns="http://www.w3.org/2000/svg" xmlns:xlink="http://www.w3.org/1999/xlink" xml:space="preserve" xmlns:serif="http://www.serif.com/" style="fill-rule:evenodd;clip-rule:evenodd;stroke-linejoin:round;stroke-miterlimit:2;">
    <path d="M128,0C145.7,0 160,14.3 160,32L160,64L288,64L288,32C288,14.3 302.3,0 320,0C337.7,0 352,14.3 352,32L352,64L400,64C426.5,64 448,85.5 448,112L448,160L0,160L0,112C0,85.5 21.5,64 48,64L96,64L96,32C96,14.3 110.3,0 128,0ZM0,192L448,192L448,464C448,490.5 426.5,512 400,512L48,512C21.5,512 0,490.5 0,464L0,192Z" style="fill:url(#_Linear1);fill-rule:nonzero;"/>
    <g transform="matrix(0.456804,0,0,0.456804,107.058,227.127)">
        <path d="M142.9,142.9C125.4,160.4 112.8,180.9 105.1,202.7C99.2,219.4 80.9,228.1 64.3,222.2C47.7,216.3 38.9,198 44.8,181.4C55.6,150.7 73.2,122 97.6,97.6C184.8,10.4 325.9,10.1 413.4,96.6L455,55C461.9,48.1 472.2,46.1 481.2,49.8C490.2,53.5 496,62.3 496,72L496,200C496,213.3 485.3,224 472,224L344,224C334.3,224 325.5,218.2 321.8,209.2C318.1,200.2 320.1,189.9 327,183L368.1,141.9C305.5,80.4 205,80.7 142.8,142.9L142.9,142.9ZM16,312C16,298.7 26.7,288 40,288L168,288C177.7,288 186.5,293.8 190.2,302.8C193.9,311.8 191.9,322.1 185,329L143.9,370.1C206.5,431.6 307,431.3 369.2,369.1C386.7,351.6 399.3,331.1 407,309.3C412.9,292.6 431.2,283.9 447.8,289.8C464.4,295.7 473.2,314 467.3,330.6C456.5,361.2 438.9,389.9 414.4,414.4C327.2,501.6 186.1,501.9 98.6,415.4L57,457C50.1,463.9 39.8,465.9 30.8,462.2C21.8,458.5 16,449.7 16,440L16,312Z" style="fill:url(#_Linear2);fill-rule:nonzero;"/>
    </g>
    <defs>
        <linearGradient id="_Linear1" x1="0" y1="0" x2="1" y2="0" gradientUnits="userSpaceOnUse" gradientTransform="matrix(443,512,-585.143,506.286,0,0)"><stop offset="0" style="stop-color:rgb(0,229,255);stop-opacity:0.3"/><stop offset="1" style="stop-color:rgb(41,121,255);stop-opacity:0.3"/></linearGradient>
        <linearGradient id="_Linear2" x1="0" y1="0" x2="1" y2="0" gradientUnits="userSpaceOnUse" gradientTransform="matrix(867.097,990.968,-925.062,809.429,-177.548,-409.939)"><stop offset="0" style="stop-color:rgb(0,229,255);stop-opacity:1"/><stop offset="1" style="stop-color:rgb(41,121,255);stop-opacity:1"/></linearGradient>
    </defs>
</svg>
