<?xml version="1.0" encoding="UTF-8" standalone="no"?>
<!DOCTYPE svg PUBLIC "-//W3C//DTD SVG 1.1//EN" "http://www.w3.org/Graphics/SVG/1.1/DTD/svg11.dtd">
<svg width="100%" height="100%" viewBox="0 0 384 512" version="1.1" xmlns="http://www.w3.org/2000/svg" xmlns:xlink="http://www.w3.org/1999/xlink" xml:space="preserve" xmlns:serif="http://www.serif.com/" style="fill-rule:evenodd;clip-rule:evenodd;stroke-linejoin:round;stroke-miterlimit:2;">
    <path d="M173.3,5.3C184.8,-1.7 199.3,-1.7 210.8,5.3L228.7,16.2C234.6,19.8 241.4,21.6 248.3,21.4L269.2,20.9C282.7,20.6 295.2,27.8 301.7,39.6L311.7,58C315,64.1 320,69 326,72.3L344.4,82.3C356.2,88.8 363.5,101.3 363.1,114.8L362.6,135.7C362.4,142.6 364.3,149.4 367.8,155.3L378.7,173.2C385.7,184.7 385.7,199.2 378.7,210.7L367.8,228.6C364.2,234.5 362.4,241.3 362.6,248.2L363.1,269.1C363.4,282.6 356.2,295.1 344.4,301.6L326,311.6C319.9,314.9 315,319.9 311.7,325.9L301.7,344.3C295.2,356.1 282.7,363.4 269.2,363L248.3,362.5C241.4,362.3 234.6,364.2 228.7,367.7L210.8,378.6C199.3,385.6 184.8,385.6 173.3,378.6L155.4,367.7C149.5,364.1 142.7,362.3 135.8,362.5L114.9,363C101.4,363.3 88.9,356.1 82.4,344.3L72.4,326C69.1,319.9 64.1,315 58.1,311.7L39.7,301.7C27.9,295.2 20.6,282.7 21,269.2L21.5,248.3C21.7,241.4 19.8,234.6 16.3,228.7L5.3,210.7C-1.7,199.2 -1.7,184.7 5.3,173.2L16.2,155.3C19.8,149.4 21.6,142.6 21.4,135.7L20.9,114.8C20.6,101.3 27.8,88.8 39.6,82.3L58,72.4C64.1,69.1 69,64.1 72.3,58.1L82.3,39.7C88.8,27.9 101.3,20.6 114.8,21L135.7,21.5C142.6,21.7 149.4,19.8 155.3,16.3L173.3,5.3ZM64.4,492.4L88,390C96.9,393.7 106.6,395.6 116.6,395.4L137.3,394.9C137.5,394.9 137.7,395 137.9,395.1L155.5,405.8C177.9,419.4 206,419.4 228.4,405.8L246.1,395C246.3,394.9 246.5,394.8 246.7,394.8L267.4,395.3C277.4,395.5 287.1,393.6 296,389.9L319.6,492.3C320.9,497.8 319.1,503.6 315,507.5C310.9,511.4 305,512.8 299.6,511.3L192,480.6L84.4,511.4C79,513 73.1,511.5 69,507.6C64.9,503.7 63.2,497.9 64.4,492.4Z" style="fill:url(#_Linear1);fill-rule:nonzero;"/>
    <path d="M272,192C272,148.113 235.887,112 192,112C148.113,112 112,148.113 112,192C112,235.887 148.113,272 192,272C235.887,272 272,235.887 272,192Z" style="fill:url(#_Linear2);fill-rule:nonzero;"/>
    <defs>
        <linearGradient id="_Linear1" x1="0" y1="0" x2="1" y2="0" gradientUnits="userSpaceOnUse" gradientTransform="matrix(512.032,512.032,-682.863,682.863,-52.0319,0)"><stop offset="0" style="stop-color:rgb(0,229,255);stop-opacity:0.4"/><stop offset="1" style="stop-color:rgb(41,121,255);stop-opacity:0.3"/></linearGradient>
        <linearGradient id="_Linear2" x1="0" y1="0" x2="1" y2="0" gradientUnits="userSpaceOnUse" gradientTransform="matrix(512,512,-682.82,682.82,-74,0)"><stop offset="0" style="stop-color:rgb(0,229,255);stop-opacity:1"/><stop offset="1" style="stop-color:rgb(41,121,255);stop-opacity:1"/></linearGradient>
    </defs>
</svg>
