<?xml version="1.0" encoding="UTF-8" standalone="no"?>
<!DOCTYPE svg PUBLIC "-//W3C//DTD SVG 1.1//EN" "http://www.w3.org/Graphics/SVG/1.1/DTD/svg11.dtd">
<svg width="100%" height="100%" viewBox="0 0 63 54" version="1.1" xmlns="http://www.w3.org/2000/svg" xmlns:xlink="http://www.w3.org/1999/xlink" xml:space="preserve" xmlns:serif="http://www.serif.com/" style="fill-rule:evenodd;clip-rule:evenodd;stroke-linejoin:round;stroke-miterlimit:2;">
    <g transform="matrix(1.008,0,0,1.008,0,-2.23821e-16)">
        <path d="M62.5,46.875C62.5,48.531 61.844,50 60.625,51.281C59.375,52.531 57.969,53.125 56.25,53.125L6.25,53.125C4.531,53.125 3.125,52.531 1.875,51.281C0.656,50 0,48.531 0,46.875L0,34.375L15.625,34.375L15.625,37.5L21.875,37.5L21.875,34.375L40.625,34.375L40.625,37.5L46.875,37.5L46.875,34.375L62.5,34.375L62.5,46.875" style="fill:url(#_Linear1);fill-rule:nonzero;"/>
        <path d="M21.875,9.375L15.625,9.375L15.625,6.25C15.625,4.531 16.188,3.125 17.406,1.844C18.625,0.625 20.125,0 21.875,0L40.625,0C42.375,0 43.875,0.625 45.094,1.844C46.312,3.125 46.875,4.531 46.875,6.25L46.875,9.375L40.625,9.375L40.625,6.25L21.875,6.25L21.875,9.375Z" style="fill:url(#_Linear2);fill-rule:nonzero;"/>
        <path d="M49.033,9.375C51.748,9.395 53.633,10.676 54.687,13.188L62.5,34.375L46.875,34.375L46.875,31.25L40.625,31.25L40.625,34.375L21.875,34.375L21.875,31.25L15.625,31.25L15.625,34.375L0,34.375L7.813,13.187C8.875,10.656 10.781,9.375 13.531,9.375L49.033,9.375Z" style="fill:url(#_Linear3);fill-rule:nonzero;"/>
        <g transform="matrix(0.992063,0,0,0.992063,0,2.22045e-16)">
            <path d="M47.25,37.8L40.95,37.8L40.95,31.5L47.25,31.5L47.25,37.8ZM22.05,37.8L15.75,37.8L15.75,31.5L22.05,31.5L22.05,37.8Z" style="fill:url(#_Linear4);"/>
        </g>
    </g>
    <defs>
        <linearGradient id="_Linear1" x1="0" y1="0" x2="1" y2="0" gradientUnits="userSpaceOnUse" gradientTransform="matrix(62.5,53.5714,-53.5714,62.5,0,2.22045e-16)"><stop offset="0" style="stop-color:rgb(0,229,255);stop-opacity:0.5"/><stop offset="1" style="stop-color:rgb(41,121,255);stop-opacity:0.5"/></linearGradient>
        <linearGradient id="_Linear2" x1="0" y1="0" x2="1" y2="0" gradientUnits="userSpaceOnUse" gradientTransform="matrix(62.5,53.5714,-53.5714,62.5,0,2.22045e-16)"><stop offset="0" style="stop-color:rgb(0,229,255);stop-opacity:1"/><stop offset="1" style="stop-color:rgb(41,121,255);stop-opacity:1"/></linearGradient>
        <linearGradient id="_Linear3" x1="0" y1="0" x2="1" y2="0" gradientUnits="userSpaceOnUse" gradientTransform="matrix(62.5,53.5714,-53.5714,62.5,0,2.22045e-16)"><stop offset="0" style="stop-color:rgb(0,229,255);stop-opacity:0.3"/><stop offset="1" style="stop-color:rgb(41,121,255);stop-opacity:0.3"/></linearGradient>
        <linearGradient id="_Linear4" x1="0" y1="0" x2="1" y2="0" gradientUnits="userSpaceOnUse" gradientTransform="matrix(63,54,-54,63,0,4.93038e-32)"><stop offset="0" style="stop-color:rgb(0,229,255);stop-opacity:1"/><stop offset="1" style="stop-color:rgb(41,121,255);stop-opacity:1"/></linearGradient>
    </defs>
</svg>
