<?xml version="1.0" encoding="UTF-8" standalone="no"?>
<!DOCTYPE svg PUBLIC "-//W3C//DTD SVG 1.1//EN" "http://www.w3.org/Graphics/SVG/1.1/DTD/svg11.dtd">
<svg width="100%" height="100%" viewBox="0 0 150 150" version="1.1" xmlns="http://www.w3.org/2000/svg" xmlns:xlink="http://www.w3.org/1999/xlink" xml:space="preserve" xmlns:serif="http://www.serif.com/" style="fill-rule:evenodd;clip-rule:evenodd;stroke-linejoin:round;stroke-miterlimit:2;">
    <path d="M12.732,139.773C9.18,139.773 6.255,136.85 6.255,133.297C6.255,132.593 6.37,131.894 6.595,131.227L45.944,14.638C46.243,13.749 46.725,12.957 47.339,12.298C48.443,11.104 49.983,10.344 51.659,10.238C51.802,10.228 51.946,10.223 52.091,10.223L52.091,10.225L97.917,10.225C100.689,10.225 103.168,12.004 104.055,14.631L143.405,131.225C143.63,131.893 143.745,132.592 143.745,133.297C143.745,136.85 140.822,139.774 137.269,139.775L91.925,139.775C91.972,139.775 92.02,139.774 92.067,139.773L90.559,139.773L90.542,139.773C89.016,139.77 87.542,139.23 86.376,138.255C86.287,138.18 86.199,138.102 86.113,138.022L65.283,118.58L58.392,112.153L54.866,122.547L50.541,135.361C49.882,137.313 48.344,138.798 46.461,139.434C46.066,139.583 45.654,139.698 45.23,139.773L12.75,139.773L12.732,139.773ZM85.552,94.158L75.027,62.971L64.659,93.529L64.447,94.158L85.552,94.158Z" style="fill:rgb(136,136,136);"/>
</svg>
