<?xml version="1.0" encoding="UTF-8" standalone="no"?>
<!DOCTYPE svg PUBLIC "-//W3C//DTD SVG 1.1//EN" "http://www.w3.org/Graphics/SVG/1.1/DTD/svg11.dtd">
<svg width="100%" height="100%" viewBox="0 0 64 64" version="1.1" xmlns="http://www.w3.org/2000/svg" xmlns:xlink="http://www.w3.org/1999/xlink" xml:space="preserve" xmlns:serif="http://www.serif.com/" style="fill-rule:evenodd;clip-rule:evenodd;stroke-linejoin:round;stroke-miterlimit:2;">
    <path d="M44.114,56.097L41.784,61.532C41.143,63.029 39.67,64 38.041,64L4.073,64C1.823,64 0,62.177 0,59.927L0.002,25.476C0.002,24.115 0.681,22.844 1.814,22.088L5.817,19.416L5.817,9.889C5.817,7.64 7.641,5.816 9.89,5.816L21.766,5.816C22.738,5.816 23.678,6.164 24.416,6.797L24.552,6.913L33.882,0.685C34.552,0.239 35.338,0 36.143,0L54.65,0C56.677,0 58.395,1.49 58.682,3.497L63.96,40.44C63.987,40.631 64,40.824 64,41.016L64,42.599L64,54.109C64,56.358 62.177,58.182 59.928,58.182L49.481,58.182C49.436,58.182 49.391,58.181 49.347,58.18L48.052,58.18C47.079,58.18 46.139,57.832 45.4,57.199L44.114,56.097ZM52,12L12,12L12,52L52,52L52,12ZM43.449,20.643C44.084,21.781 44.402,23.067 44.402,24.5C44.402,25.933 44.084,27.218 43.449,28.37C42.813,29.508 41.93,30.392 40.802,31.035C39.68,31.678 38.409,31.999 36.988,31.999L31.278,31.999L31.278,17L36.988,17C38.409,17 39.68,17.321 40.802,17.964C41.93,18.607 42.813,19.505 43.449,20.643ZM40.856,27.152C41.22,26.402 41.402,25.518 41.402,24.499C41.402,23.481 41.22,22.598 40.856,21.848C40.491,21.098 39.974,20.522 39.302,20.133C38.631,19.732 37.848,19.531 36.956,19.531L34.203,19.531L34.203,29.468L36.956,29.468C37.848,29.468 38.631,29.268 39.302,28.866C39.974,28.477 40.491,27.902 40.856,27.152ZM20.02,26.335L20.019,32L17.094,32L17.094,17.001L23.533,17.001C24.583,17.001 25.509,17.188 26.309,17.577C27.109,17.965 27.723,18.514 28.152,19.21C28.587,19.907 28.805,20.696 28.805,21.634C28.805,22.572 28.584,23.389 28.141,24.099C27.706,24.808 27.081,25.358 26.266,25.759C26.114,25.83 25.946,25.878 25.778,25.926C25.703,25.947 25.629,25.968 25.556,25.992L29.127,32L25.773,32L22.544,26.335L20.02,26.335ZM20.02,19.438L20.02,23.898L23.341,23.898C23.834,23.898 24.263,23.817 24.627,23.63C24.998,23.443 25.284,23.188 25.484,22.853C25.684,22.505 25.784,22.116 25.784,21.661C25.784,21.206 25.684,20.817 25.484,20.483C25.284,20.148 24.998,19.893 24.627,19.706C24.263,19.532 23.834,19.438 23.341,19.438L20.02,19.438ZM16.994,44L32.994,44L32.994,47L16.994,47L16.994,44Z" style="fill:rgb(136,136,136);"/>
</svg>
