<?xml version="1.0" encoding="UTF-8" standalone="no"?>
<!DOCTYPE svg PUBLIC "-//W3C//DTD SVG 1.1//EN" "http://www.w3.org/Graphics/SVG/1.1/DTD/svg11.dtd">
<svg width="100%" height="100%" viewBox="0 0 100 100" version="1.1" xmlns="http://www.w3.org/2000/svg" xmlns:xlink="http://www.w3.org/1999/xlink" xml:space="preserve" xmlns:serif="http://www.serif.com/" style="fill-rule:evenodd;clip-rule:evenodd;stroke-linejoin:round;stroke-miterlimit:2;">
    <path d="M1.298,36.417C-0.516,34.763 -0.513,31.906 1.303,30.255L6.809,25.246C7.591,24.535 8.581,24.17 9.578,24.163C10.474,24.154 11.376,24.434 12.134,25.01L29.302,38.034L68.708,2.083C68.942,1.849 69.191,1.637 69.453,1.447C70.532,0.662 71.823,0.255 73.129,0.258C74.053,0.253 74.987,0.455 75.858,0.874L96.459,10.781C98.623,11.822 100,14.011 100,16.413L100,16.427L100,83.573L100,83.587C100,85.989 98.623,88.179 96.459,89.22L75.858,99.126C74.984,99.547 74.048,99.748 73.121,99.742C72.345,99.743 71.575,99.599 70.851,99.317C70.064,99.01 69.332,98.54 68.708,97.917L29.302,61.966L12.134,74.991C11.386,75.558 10.498,75.838 9.613,75.838C8.605,75.838 7.6,75.474 6.809,74.754L1.303,69.745C-0.513,68.094 -0.516,65.237 1.298,63.583L16.186,50L1.298,36.417ZM74.954,72.667L74.954,27.333L45.076,50L74.954,72.667Z" style="fill:rgb(136,136,136);"/>
</svg>
