<?xml version="1.0" encoding="UTF-8" standalone="no"?>
<!DOCTYPE svg PUBLIC "-//W3C//DTD SVG 1.1//EN" "http://www.w3.org/Graphics/SVG/1.1/DTD/svg11.dtd">
<svg width="100%" height="100%" viewBox="0 0 1474 382" version="1.1" xmlns="http://www.w3.org/2000/svg" xmlns:xlink="http://www.w3.org/1999/xlink" xml:space="preserve" xmlns:serif="http://www.serif.com/" style="fill-rule:evenodd;clip-rule:evenodd;stroke-linejoin:round;stroke-miterlimit:2;">
    <g>
        <g id="Symbol">
            <path d="M192.5,291.8L192.5,134.1L232.3,134.1L232.3,291.5L192.5,291.5L192.5,291.8ZM236.3,26.5C236.3,13 225.9,2.2 212.4,2.2C198.9,2.2 188.1,13 188.1,26.5C188.1,40 198.9,50.4 212.4,50.4C225.9,50.4 236.3,40 236.3,26.5Z" style="fill:rgb(136,136,136);fill-rule:nonzero;"/>
            <path d="M107.4,10.7L107.4,168.1L67.6,168.1L67.6,10.7L107.4,10.7ZM63.2,275.7C63.2,289.1 73.7,299.9 87.2,299.9C100.7,299.9 111.5,289.1 111.5,275.7C111.5,262.2 100.7,251.7 87.2,251.7C73.7,252.1 63.2,262.5 63.2,275.7Z" style="fill:rgb(136,136,136);fill-rule:nonzero;"/>
            <path d="M290.6,108.8L132.7,108.8L132.7,69L290.3,69L290.3,108.8L290.6,108.8ZM25.1,64.6C11.6,64.6 0.8,75.1 0.8,88.5C0.8,102 11.6,112.8 25.1,112.8C38.6,112.8 49,102 49,88.5C49,75.1 38.6,64.6 25.1,64.6Z" style="fill:rgb(136,136,136);fill-rule:nonzero;"/>
            <path d="M9.3,193.7L166.8,193.7L166.8,233.5L9.3,233.5L9.3,193.7ZM274.4,237.5C287.9,237.5 298.7,227.1 298.7,213.6C298.7,200.1 287.9,189.3 274.4,189.3C260.9,189.3 250.5,200.1 250.5,213.6C250.8,227.1 261.3,237.5 274.4,237.5Z" style="fill:rgb(136,136,136);fill-rule:nonzero;"/>
        </g>
        <g id="Wordmark">
            <path d="M393.5,291.8L393.5,10.7L439.8,10.7L439.8,291.8L393.5,291.8ZM911.4,33.9C911.4,19.4 899.9,7.6 885.4,7.6C870.9,7.6 859.1,19.4 859.1,33.9C859.1,48.4 870.9,59.9 885.4,59.9C899.9,59.9 911.4,48.4 911.4,33.9ZM907.7,291.8L907.7,93.3L862.8,93.3L862.8,291.5L907.7,291.5L907.7,291.8ZM653.6,172.1C653.6,117.5 618.8,87.8 561.2,87.8C521,87.8 489.3,106 485.2,107.7L485.2,291.8L530.1,291.8L530.1,133.4C534.8,131.3 548.3,125.9 563.5,125.9C593.9,125.9 609.1,142.8 609.1,171.8L609.1,291.8L653.9,291.8L653.9,172.1L653.6,172.1ZM1337.2,172.1C1337.2,120.2 1300.7,87.5 1254.2,87.5C1227.2,87.5 1214.7,95.6 1213.7,95.9L1213.7,0.2L1168.8,0.2L1168.8,291.5L1213.7,291.5L1213.7,133C1215.1,132.3 1228.5,125.6 1245.8,125.6C1275.8,125.6 1292.7,141.8 1292.7,171.4L1292.7,291.5L1337.5,291.5L1337.2,172.1ZM829.1,235.5C829.1,202.1 805.2,187.6 781.2,177.1C777.2,175.4 764,170 762,169C745.1,162 733.3,156.9 733.3,143.4C733.3,133.3 741.4,123.9 765,123.9C788,123.9 807.9,135.7 809.9,136.7L826.4,105.7C825.1,105 803.1,87.8 762.3,87.8C718.8,87.8 688.8,111.4 688.8,147.1C688.8,179.2 711.4,193.3 733,202.1C735.7,203.1 754.6,211.2 758.9,212.9C775.8,219.6 784.2,226.7 784.2,237.8C784.2,250 773.1,261.1 748.8,261.1C723.5,261.1 701.9,246.9 698.5,244.9L681.7,275.9C684,277.9 711.7,297.2 754.2,297.2C797.4,296.8 829.1,274.2 829.1,235.5ZM1125.3,107.7L1125.3,277.3C1125.3,338.3 1097.7,381.4 1026.2,381.4C998.1,381.4 977.9,376 974.2,375.4L974.2,338.6C978.9,340 999.5,345.4 1020.4,345.4C1065,345.4 1080.5,323.1 1080.5,292.8L1080.5,289.1C1077.4,290.4 1063.6,296.8 1042,296.8C977.9,296.8 942.8,248.9 942.8,192.3C942.8,132.6 979.9,87.4 1047.1,87.4C1086.9,87.8 1120.3,105 1125.3,107.7ZM1080.8,133.3C1078.1,132 1064.6,125.9 1046.4,125.9C1013,125.9 988.4,150.5 988.4,192.6C988.4,237.5 1016.7,258.7 1046.4,258.7C1063.9,258.7 1079.5,252.6 1080.8,251.3L1080.8,133.3ZM1422.2,129.9L1472.9,129.9L1472.9,93.2L1421.9,93.2L1421.9,33.8L1377.7,33.8L1377.7,212.5C1377.7,266.8 1402,291.8 1455.3,291.8L1473.2,291.8L1473.2,254.3C1437.1,254.3 1422.6,243.9 1422.6,206.8L1422.2,129.9Z" style="fill:rgb(136,136,136);fill-rule:nonzero;"/>
        </g>
    </g>
</svg>
