<?xml version="1.0" encoding="UTF-8" standalone="no"?>
<!DOCTYPE svg PUBLIC "-//W3C//DTD SVG 1.1//EN" "http://www.w3.org/Graphics/SVG/1.1/DTD/svg11.dtd">
<svg width="100%" height="100%" viewBox="0 0 499 320" version="1.1" xmlns="http://www.w3.org/2000/svg" xmlns:xlink="http://www.w3.org/1999/xlink" xml:space="preserve" xmlns:serif="http://www.serif.com/" style="fill-rule:evenodd;clip-rule:evenodd;stroke-linejoin:round;stroke-miterlimit:2;">
    <g transform="matrix(1,0,0,1,0,-0.00176858)">
        <path d="M90.51,0.02C142.42,0.02 178.26,38.6 178.26,86.24C178.42,105.52 172.16,124.31 160.47,139.67L187.85,170.07L151.08,170.07L140.52,158.1C125.65,167.74 108.24,172.75 90.51,172.52C38.63,172.48 2.8,133.9 2.8,86.24C2.8,38.58 38.63,0.02 90.51,0.02M90.51,143.73C101.01,143.81 111.3,140.8 120.08,135.08L67.71,76.33L103.98,76.23L138.6,114.97C143.4,106.12 145.87,96.2 145.79,86.14C145.79,54.67 122.25,28.86 90.51,28.86C58.77,28.86 35.27,54.67 35.27,86.24C35.27,117.81 58.77,143.75 90.51,143.75L90.51,143.73Z" style="fill:rgb(136,136,136);fill-rule:nonzero;"/>
    </g>
    <g transform="matrix(1,0,0,1,0,-0.00176858)">
        <path d="M284.04,2.41C303.01,2.41 313.62,6.98 321.8,14.15C331.69,22.62 337.41,34.95 337.46,47.95C337.29,58.27 333.45,68.2 326.63,75.96C342.4,84.45 352.13,100.98 351.86,118.84C351.83,132.46 346.29,145.49 336.48,154.99C327.12,164.34 314.14,170.07 292.5,170.07L226.78,170.07L226.78,2.41L284.04,2.41ZM259.23,67.1L281.97,67.1C292.08,67.1 296.64,64.71 300.01,61.09C303.05,57.83 304.77,53.57 304.83,49.12C304.79,44.67 303.1,40.39 300.1,37.09C296.73,33.5 292.16,31.12 282.06,31.12L259.24,31.12L259.24,67.1L259.23,67.1ZM291.7,141.26C302.96,141.26 309.23,138.38 313.34,133.84C321.32,125.17 321.32,111.86 313.34,103.19C309.2,98.64 303.01,95.76 291.7,95.76L259.23,95.76L259.23,141.34L291.7,141.26Z" style="fill:rgb(136,136,136);fill-rule:nonzero;"/>
    </g>
    <g transform="matrix(1,0,0,1,0,-0.00176858)">
        <path d="M402.21,125.31C412.31,136.66 426.66,143.37 441.87,143.85C456.34,143.85 466.36,134.97 466.36,122.76C466.36,101.19 435.13,98.58 412.52,85.42C399.33,77.74 388.73,66.24 388.73,47.32C388.74,17.28 416.41,0.02 444.27,0.02C461.85,-0.36 479.05,5.21 493.04,15.82L476.24,39.82C468.17,32.82 457.85,28.94 447.16,28.86C434.9,28.86 421.2,34.13 421.2,47.07C421.2,74.13 498.83,65.75 498.83,122.27C498.83,151.95 472.15,172.57 441.87,172.57C419.26,172.57 398.37,163.22 381.07,147.42L402.21,125.32L402.21,125.31Z" style="fill:rgb(136,136,136);fill-rule:nonzero;"/>
    </g>
    <g transform="matrix(1,0,0,1,0,-0.00176858)">
        <rect x="2.45" y="215.78" width="494.17" height="6.71" style="fill:rgb(136,136,136);"/>
    </g>
    <g transform="matrix(1,0,0,1,0,-0.00176858)">
        <path d="M6.96,303.9C10.3,307.62 15.02,309.81 20.02,309.95C24.75,309.95 28.08,307.05 28.08,303.01C28.08,295.92 17.75,295.06 10.35,290.65C5.55,288.31 2.51,283.45 2.52,278.13C2.52,268.27 11.63,262.58 20.81,262.58C26.6,262.46 32.26,264.29 36.87,267.79L31.33,275.68C28.68,273.37 25.28,272.09 21.76,272.05C17.63,272.05 13.2,273.78 13.2,278.04C13.2,286.94 38.77,284.22 38.77,302.76C38.77,312.52 29.99,319.24 20.03,319.24C12.55,319.11 5.39,316.17 -0,311L6.96,303.89L6.96,303.9Z" style="fill:rgb(136,136,136);fill-rule:nonzero;"/>
    </g>
    <g transform="matrix(1,0,0,1,0,-0.00176858)">
        <path d="M85.06,262.65C100.79,262.23 113.89,274.6 114.32,290.28C114.74,305.96 102.33,319.02 86.6,319.44C86.09,319.45 85.58,319.45 85.06,319.44C69.33,319.86 56.23,307.49 55.8,291.81C55.38,276.13 67.79,263.07 83.52,262.65C84.03,262.64 84.54,262.64 85.06,262.65M85.06,310.02C95.54,310.46 104.4,302.36 104.84,291.91C105.29,281.46 97.15,272.64 86.67,272.19C76.19,271.75 67.33,279.85 66.89,290.3C66.88,290.57 66.87,290.84 66.87,291.11C66.57,301.22 74.56,309.65 84.7,309.95L85.06,309.95L85.06,310.02Z" style="fill:rgb(136,136,136);fill-rule:nonzero;"/>
    </g>
    <g transform="matrix(1,0,0,1,0,-0.00176858)">
        <path d="M144.81,272.9L144.81,284.34L161.82,284.34L161.82,293.81L144.81,293.81L144.81,318.63L134.13,318.63L134.13,263.45L167.4,263.45L167.4,272.9L144.81,272.9Z" style="fill:rgb(136,136,136);fill-rule:nonzero;"/>
    </g>
    <g transform="matrix(1,0,0,1,0,-0.00176858)">
        <path d="M224.73,263.45L224.73,272.9L210.1,272.9L210.1,318.63L199.42,318.63L199.42,272.9L184.78,272.9L184.78,263.45L224.73,263.45Z" style="fill:rgb(136,136,136);fill-rule:nonzero;"/>
    </g>
    <g transform="matrix(1,0,0,1,0,-0.00176858)">
        <path d="M241.8,263.45L252.57,263.45L264.04,297.89L276.22,263.45L283.74,263.45L295.91,297.89L307.38,263.45L318.15,263.45L299.67,318.63L292.23,318.63L279.83,283.61L267.58,318.63L260.05,318.63L241.8,263.45Z" style="fill:rgb(136,136,136);fill-rule:nonzero;"/>
    </g>
    <g transform="matrix(1,0,0,1,0,-0.00176858)">
        <path d="M326.54,318.63L350.27,263.45L357.79,263.45L381.54,318.63L370.38,318.63L365.15,306.42L342.83,306.42L337.6,318.63L326.54,318.63ZM346.86,297.02L360.94,297.02L353.89,280.54L346.86,297.02Z" style="fill:rgb(136,136,136);fill-rule:nonzero;"/>
    </g>
    <g transform="matrix(1,0,0,1,0,-0.00176858)">
        <path d="M409.93,294.2L409.93,318.63L399.25,318.63L399.25,263.45L419.42,263.45C423.84,263.17 428.2,264.65 431.53,267.57C437.78,273.42 438.09,283.21 432.22,289.44C432,289.68 431.77,289.91 431.53,290.13C429.95,291.6 428.05,292.71 425.99,293.36L446.66,318.66L433.43,318.66L413.73,294.23L409.93,294.21L409.93,294.2ZM418.78,284.73C421.88,284.73 423.22,284.11 424.17,283.08C425.17,281.94 425.73,280.48 425.74,278.96C425.76,277.4 425.2,275.88 424.17,274.7C422.73,273.34 420.74,272.71 418.78,272.97L409.93,272.97L409.93,284.67L418.78,284.73Z" style="fill:rgb(136,136,136);fill-rule:nonzero;"/>
    </g>
    <g transform="matrix(1,0,0,1,0,-0.00176858)">
        <path d="M474.41,272.9L474.41,284.34L491.42,284.34L491.42,293.81L474.41,293.81L474.41,309.18L497.77,309.18L497.77,318.63L463.75,318.63L463.75,263.45L496.96,263.45L496.96,272.9L474.41,272.9Z" style="fill:rgb(136,136,136);fill-rule:nonzero;"/>
    </g>
</svg>
