<?xml version="1.0" encoding="UTF-8" standalone="no"?>
<!DOCTYPE svg PUBLIC "-//W3C//DTD SVG 1.1//EN" "http://www.w3.org/Graphics/SVG/1.1/DTD/svg11.dtd">
<svg width="100%" height="100%" viewBox="0 0 150 70" version="1.1" xmlns="http://www.w3.org/2000/svg" xmlns:xlink="http://www.w3.org/1999/xlink" xml:space="preserve" xmlns:serif="http://www.serif.com/" style="fill-rule:evenodd;clip-rule:evenodd;stroke-linejoin:round;stroke-miterlimit:2;">
    <g id="Layer_1">
        <g transform="matrix(1,0,0,1,-66.59,-35.77)">
            <rect x="206.09" y="52.8" width="10.5" height="52.49" style="fill:rgb(136,136,136);fill-rule:nonzero;"/>
        </g>
        <g transform="matrix(1,0,0,1,-66.59,-35.77)">
            <path d="M83.62,35.77C74.294,35.77 66.62,43.444 66.62,52.77C66.62,62.096 74.294,69.77 83.62,69.77C92.946,69.77 100.62,62.096 100.62,52.77C100.62,43.444 92.946,35.77 83.62,35.77ZM83.62,62.41C78.343,62.41 74,58.067 74,52.79C74,47.513 78.343,43.17 83.62,43.17C88.897,43.17 93.24,47.513 93.24,52.79C93.24,58.067 88.897,62.41 83.62,62.41Z" style="fill:rgb(136,136,136);fill-rule:nonzero;"/>
        </g>
        <path d="M101.14,38.04L101.14,17.03L90.63,17.03L90.63,69.52L101.14,69.52L101.14,48.54L111.45,48.54L121.93,38.04L101.14,38.04Z" style="fill:rgb(136,136,136);fill-rule:nonzero;"/>
        <g transform="matrix(1,0,0,1,-66.59,-35.77)">
            <path d="M108.36,68.53C108.344,66.429 108.766,64.348 109.6,62.42C111.214,58.64 114.223,55.623 118,54C119.931,53.163 122.015,52.737 124.12,52.75L155.34,52.75L144.9,63.3L124.1,63.3C121.996,63.283 120.08,64.542 119.26,66.48C118.996,67.114 118.86,67.793 118.86,68.48C118.853,69.19 118.989,69.894 119.26,70.55C119.517,71.182 119.898,71.757 120.38,72.24C120.861,72.713 121.428,73.09 122.05,73.35C122.683,73.616 123.363,73.752 124.05,73.75L134.55,73.75C136.674,73.736 138.778,74.162 140.73,75C144.514,76.588 147.528,79.598 149.12,83.38C150.744,87.3 150.744,91.71 149.12,95.63C148.326,97.496 147.182,99.193 145.75,100.63C144.311,102.061 142.614,103.208 140.75,104.01C138.815,104.846 136.728,105.272 134.62,105.26L100.65,105.26L111.28,94.75L134.6,94.75C135.993,94.765 137.335,94.216 138.32,93.23C138.791,92.751 139.167,92.188 139.43,91.57C139.697,90.937 139.837,90.257 139.84,89.57C139.838,88.883 139.699,88.203 139.43,87.57C139.17,86.948 138.793,86.381 138.32,85.9C137.842,85.421 137.275,85.04 136.65,84.78C136,84.513 135.303,84.377 134.6,84.38L124.1,84.38C121.998,84.371 119.92,83.925 118,83.07C114.235,81.448 111.233,78.439 109.62,74.67C108.78,72.732 108.351,70.642 108.36,68.53Z" style="fill:rgb(136,136,136);fill-rule:nonzero;"/>
        </g>
        <g transform="matrix(1,0,0,1,-66.59,-35.77)">
            <rect x="188.7" y="52.79" width="10.5" height="52.5" style="fill:rgb(136,136,136);fill-rule:nonzero;"/>
        </g>
    </g>
</svg>
