<?xml version="1.0" encoding="UTF-8" standalone="no"?>
<!DOCTYPE svg PUBLIC "-//W3C//DTD SVG 1.1//EN" "http://www.w3.org/Graphics/SVG/1.1/DTD/svg11.dtd">
<svg width="100%" height="100%" viewBox="0 0 693 244" version="1.1" xmlns="http://www.w3.org/2000/svg" xmlns:xlink="http://www.w3.org/1999/xlink" xml:space="preserve" xmlns:serif="http://www.serif.com/" style="fill-rule:evenodd;clip-rule:evenodd;stroke-linejoin:round;stroke-miterlimit:2;">
    <path d="M241.102,144.914C230.186,202.025 179.877,243.316 121.659,243.316C54.58,243.316 0,188.736 0,121.658C0,54.58 54.58,0 121.658,0C180.035,0 230.185,41.291 241.101,98.402L241.101,6.803L310.236,6.803L310.236,34.963C329.537,10.758 351.052,0 379.687,0C429.996,0 461.162,36.387 461.162,95.238L461.162,99.509C470.654,39.709 517.482,0 578.865,0C646.26,0 692.297,50.783 692.297,124.822L692.297,140.168L528.399,140.168C533.303,173.707 552.92,192.85 582.346,192.85C603.862,192.85 619.366,182.883 624.112,165.797L689.133,165.797C679.957,212.309 636.926,243.317 581.397,243.317C519.065,243.317 470.813,203.45 461.163,143.965L461.163,236.514L390.921,236.514L390.921,102.516C390.921,73.723 376.683,57.745 351.212,57.745C327.324,57.745 311.504,75.464 311.504,102.516L311.504,236.514L241.104,236.514L241.104,144.914L241.102,144.914ZM38.86,119.703C38.86,129.215 45.459,135.842 54.942,135.842C64.425,135.842 71.195,129.015 71.195,119.446C71.195,109.991 64.568,103.364 55.17,103.364C45.715,103.364 38.86,110.248 38.86,119.703ZM61.94,119.504C61.94,125.331 59.284,128.987 54.999,128.987C50.743,128.987 48.115,125.388 48.115,119.561C48.115,113.876 50.8,110.22 54.999,110.22C59.255,110.22 61.94,113.82 61.94,119.504ZM70.709,104.307L70.709,110.706L75.736,110.706L75.736,134.9L84.762,134.9L84.762,110.706L93.674,110.706L93.674,125.588C93.674,132.415 96.531,135.1 103.786,135.1C105.157,135.1 106.871,134.9 108.385,134.614L108.385,127.987C107.585,128.129 107.157,128.158 106.357,128.158C103.615,128.158 102.672,127.273 102.672,124.645L102.672,110.706L109.413,110.706L116.154,134.9L125.066,134.9L130.122,115.305L135.292,134.9L143.947,134.9L152.631,104.307L143.747,104.307L140.491,118.903C140.119,120.532 139.834,121.96 139.291,124.902C138.834,122.959 138.291,120.674 137.834,118.903L133.978,104.535L126.608,104.535L122.809,118.903C122.267,120.931 121.724,123.102 121.267,125.273C120.896,123.188 120.439,120.96 119.982,118.875L116.726,104.307L102.672,104.307L102.672,94.738L93.674,94.738L93.674,104.307L84.762,104.307L84.762,101.193C84.762,98.908 85.619,98.165 88.19,98.165C88.609,98.165 88.99,98.175 89.333,98.194L89.333,91.71C88.533,91.567 87.105,91.453 85.934,91.453C78.878,91.453 75.736,94.481 75.736,101.336L75.736,104.307L70.709,104.307ZM150.947,127.016C150.947,132.386 154.861,135.67 161.259,135.67C165.487,135.67 168.543,134.242 170.914,131.128C171.028,132.7 171.314,133.871 171.742,134.899L180.426,134.899C179.426,133.271 179.226,132.186 179.226,128.415L179.226,116.275C179.226,107.62 174.856,103.364 166.001,103.364C157.974,103.364 153.261,106.792 152.604,113.076L160.916,113.076C161.116,110.42 162.859,109.02 165.915,109.02C168.8,109.02 170.542,110.449 170.542,112.791C170.542,115.133 168.742,116.276 163.772,117.104C154.546,118.675 150.947,121.474 150.947,127.016ZM165.486,121.732C168.171,121.19 169.257,120.875 170.571,120.247L170.571,123.103C170.571,127.302 168.029,129.93 163.887,129.93C161.144,129.93 159.602,128.558 159.602,126.159C159.602,123.789 161.201,122.589 165.486,121.732ZM9.439,125.616C10.039,132.129 15.325,135.842 23.951,135.842C32.006,135.842 37.405,131.872 37.405,125.959C37.405,120.475 34.092,117.476 26.551,116.133L22.866,115.476C20.009,114.961 18.781,114.104 18.781,112.562C18.781,110.476 20.752,108.934 23.408,108.934C26.236,108.934 27.978,110.219 28.378,112.59L37.033,112.59C35.976,106.535 31.292,103.364 23.465,103.364C15.695,103.364 10.211,107.335 10.211,112.962C10.211,118.275 13.61,121.16 21.408,122.474L24.807,123.045C27.321,123.474 28.578,124.531 28.578,126.159C28.578,128.387 26.692,129.844 23.836,129.844C20.408,129.844 18.723,128.558 18.18,125.616L9.439,125.616ZM202.191,119.704C202.191,129.301 208.761,135.841 218.386,135.841C225.727,135.841 231.44,131.785 232.668,125.701L224.156,125.701C223.499,128.301 221.528,129.729 218.5,129.729C214.473,129.729 211.845,126.844 211.245,121.76L233.097,121.76L233.097,120.189C233.097,110.106 227.042,103.365 218.044,103.365C208.589,103.365 202.191,109.964 202.191,119.704ZM224.128,116.419L211.417,116.419C212.16,111.735 214.359,109.278 217.873,109.278C221.387,109.278 223.557,111.763 224.128,116.419ZM623.637,95.871C619.207,65.971 602.121,48.568 577.442,48.568C552.604,48.568 535.202,65.654 529.506,95.871L623.637,95.871ZM183.71,104.308L183.71,134.901L192.822,134.901L192.822,118.534C192.822,114.135 195.65,111.307 200.049,111.307C201.306,111.307 201.906,111.364 202.477,111.507L202.477,104.023C201.791,103.88 200.963,103.794 200.563,103.794C197.136,103.794 194.593,105.48 192.651,108.993L192.651,104.308L183.71,104.308Z" style="fill:rgb(136,136,136);"/>
</svg>
