<?xml version="1.0" encoding="UTF-8" standalone="no"?>
<!DOCTYPE svg PUBLIC "-//W3C//DTD SVG 1.1//EN" "http://www.w3.org/Graphics/SVG/1.1/DTD/svg11.dtd">
<svg width="100%" height="100%" viewBox="0 0 24 24" version="1.1" xmlns="http://www.w3.org/2000/svg" xmlns:xlink="http://www.w3.org/1999/xlink" xml:space="preserve" xmlns:serif="http://www.serif.com/" style="fill-rule:evenodd;clip-rule:evenodd;stroke-linejoin:round;stroke-miterlimit:2;">
    <g transform="matrix(1.5,0,0,1.5,-6,-6)">
        <path d="M12,4C14.194,4 16,5.806 16,8C16,10.194 14.194,12 12,12C9.806,12 8,10.194 8,8C8,5.806 9.806,4 12,4" style="fill:url(#_Linear1);fill-rule:nonzero;"/>
    </g>
    <g transform="matrix(1.5,0,0,1.5,-6,-6)">
        <path d="M12,14C16.42,14 20,15.79 20,18L20,20L4,20L4,18C4,15.79 7.58,14 12,14Z" style="fill:url(#_Linear2);fill-rule:nonzero;"/>
    </g>
    <defs>
        <linearGradient id="_Linear1" x1="0" y1="0" x2="1" y2="0" gradientUnits="userSpaceOnUse" gradientTransform="matrix(-16,-16,16,-16,20,20)"><stop offset="0" style="stop-color:rgb(41,121,255);stop-opacity:0.7"/><stop offset="1" style="stop-color:rgb(0,229,255);stop-opacity:0.7"/></linearGradient>
        <linearGradient id="_Linear2" x1="0" y1="0" x2="1" y2="0" gradientUnits="userSpaceOnUse" gradientTransform="matrix(-16,-16,16,-16,20,20)"><stop offset="0" style="stop-color:rgb(41,121,255);stop-opacity:0.5"/><stop offset="1" style="stop-color:rgb(0,229,255);stop-opacity:0.5"/></linearGradient>
    </defs>
</svg>
