<?xml version="1.0" encoding="UTF-8" standalone="no"?>
<!DOCTYPE svg PUBLIC "-//W3C//DTD SVG 1.1//EN" "http://www.w3.org/Graphics/SVG/1.1/DTD/svg11.dtd">
<svg width="100%" height="100%" viewBox="0 0 512 512" version="1.1" xmlns="http://www.w3.org/2000/svg" xmlns:xlink="http://www.w3.org/1999/xlink" xml:space="preserve" xmlns:serif="http://www.serif.com/" style="fill-rule:evenodd;clip-rule:evenodd;stroke-linejoin:round;stroke-miterlimit:2;">
    <path d="M511.8,202.5C510.2,184.4 500.9,167.6 486.1,156.7L448,128.5L448,249.7L511.8,202.5ZM512,448L512,242.1L294.4,403.3C283.3,411.6 269.8,416 256,416C242.2,416 228.7,411.6 217.6,403.3L0,242.1L0,448C0,483.3 28.7,512 64,512L448,512C483.3,512 512,483.3 512,448ZM64,249.7L64,128.5L25.9,156.7C11.1,167.6 1.8,184.4 0.2,202.5L64,249.7ZM289.5,11.1C279.8,3.9 268.1,0 256,0C243.9,0 232.2,3.9 222.5,11L194.2,32L317.8,32L289.5,11.1Z" style="fill:url(#_Linear1);fill-rule:nonzero;"/>
    <path d="M96,32C78.3,32 64,46.3 64,64L64,249.7L236.7,377.6C242.3,381.7 249.1,384 256,384C262.9,384 269.7,381.8 275.3,377.6L448,249.7L448,64C448,46.3 433.7,32 416,32L96,32ZM176,128L336,128C344.8,128 352,135.2 352,144C352,152.8 344.8,160 336,160L176,160C167.2,160 160,152.8 160,144C160,135.2 167.2,128 176,128ZM176,192L336,192C344.8,192 352,199.2 352,208C352,216.8 344.8,224 336,224L176,224C167.2,224 160,216.8 160,208C160,199.2 167.2,192 176,192Z" style="fill:url(#_Linear2);fill-rule:nonzero;"/>
    <defs>
        <linearGradient id="_Linear1" x1="0" y1="0" x2="1" y2="0" gradientUnits="userSpaceOnUse" gradientTransform="matrix(512,0,0,512,0,256)"><stop offset="0" style="stop-color:rgb(0,229,255);stop-opacity:0.4"/><stop offset="1" style="stop-color:rgb(41,121,255);stop-opacity:0.4"/></linearGradient>
        <linearGradient id="_Linear2" x1="0" y1="0" x2="1" y2="0" gradientUnits="userSpaceOnUse" gradientTransform="matrix(512,0,0,512,0,256)"><stop offset="0" style="stop-color:rgb(0,229,255);stop-opacity:1"/><stop offset="1" style="stop-color:rgb(41,121,255);stop-opacity:1"/></linearGradient>
    </defs>
</svg>
