<?xml version="1.0" encoding="UTF-8" standalone="no"?>
<!DOCTYPE svg PUBLIC "-//W3C//DTD SVG 1.1//EN" "http://www.w3.org/Graphics/SVG/1.1/DTD/svg11.dtd">
<svg width="100%" height="100%" viewBox="0 0 496 512" version="1.1" xmlns="http://www.w3.org/2000/svg" xmlns:xlink="http://www.w3.org/1999/xlink" xml:space="preserve" xmlns:serif="http://www.serif.com/" style="fill-rule:evenodd;clip-rule:evenodd;stroke-linejoin:round;stroke-miterlimit:2;">
    <ellipse cx="248" cy="256" rx="248" ry="256" style="fill:url(#_Linear1);"/>
    <path d="M186.6,504.08C186.562,476.505 186.5,432.324 186.5,417.7C186.5,417.7 116.5,432.7 101.8,387.9C101.8,387.9 90.4,358.8 74,351.3C74,351.3 51.1,335.6 75.6,335.9C75.6,335.9 100.5,337.9 114.2,361.7C136.1,400.3 172.8,389.2 187.1,382.6C189.4,366.6 195.9,355.5 203.1,348.9C147.2,342.7 90.8,334.6 90.8,238.4C90.8,210.9 98.4,197.1 114.4,179.5C111.8,173 103.3,146.2 117,111.6C137.9,105.1 186,138.6 186,138.6C206,133 227.5,130.1 248.8,130.1C270.1,130.1 291.6,133 311.6,138.6C311.6,138.6 359.7,105 380.6,111.6C394.3,146.3 385.8,173 383.2,179.5C399.2,197.2 409,211 409,238.4C409,334.9 350.1,342.6 294.2,348.9C303.4,356.8 311.2,371.8 311.2,395.3C311.2,419.575 310.955,472.777 310.819,503.702C290.753,509.117 269.7,512 248,512C226.811,512 206.239,509.251 186.6,504.08ZM97.2,352.9C95.9,353.9 96.2,356.2 97.9,358.1C99.5,359.7 101.8,360.4 103.1,359.1C104.4,358.1 104.1,355.8 102.4,353.9C100.8,352.3 98.5,351.6 97.2,352.9ZM107.4,365.7C105.8,366.7 105.8,369.3 107.4,371.6C109,373.9 111.7,374.9 113,373.9C114.6,372.6 114.6,370 113,367.7C111.6,365.4 109,364.4 107.4,365.7ZM134.8,392.9C134.1,394.9 136.1,397.2 139.1,397.8C141.7,398.8 144.7,397.8 145.3,395.8C145.9,393.8 144,391.5 141,390.6C138.4,389.9 135.5,390.9 134.8,392.9ZM86.4,344.8C85.7,346.1 86.7,347.7 88.7,348.7C90.3,349.7 92.3,349.4 93,348C93.7,346.7 92.7,345.1 90.7,344.1C88.7,343.5 87.1,343.8 86.4,344.8ZM118.8,380.4C117.2,381.7 117.8,384.7 120.1,386.6C122.4,388.9 125.3,389.2 126.6,387.6C127.9,386.3 127.3,383.3 125.3,381.4C123.1,379.1 120.1,378.8 118.8,380.4ZM179,391.2C176.1,391.9 174.1,393.8 174.4,396.1C174.7,398.1 177.3,399.4 180.3,398.7C183.2,398 185.2,396.1 184.9,394.1C184.6,392.2 181.9,390.9 179,391.2Z" style="fill:url(#_Linear2);fill-rule:nonzero;"/>
    <defs>
        <linearGradient id="_Linear1" x1="0" y1="0" x2="1" y2="0" gradientUnits="userSpaceOnUse" gradientTransform="matrix(496,512,-528.516,512,0,0)"><stop offset="0" style="stop-color:rgb(0,229,255);stop-opacity:0.2"/><stop offset="1" style="stop-color:rgb(41,121,255);stop-opacity:0.2"/></linearGradient>
        <linearGradient id="_Linear2" x1="0" y1="0" x2="1" y2="0" gradientUnits="userSpaceOnUse" gradientTransform="matrix(496,512,-528.516,512,0,0)"><stop offset="0" style="stop-color:rgb(0,229,255);stop-opacity:1"/><stop offset="1" style="stop-color:rgb(41,121,255);stop-opacity:1"/></linearGradient>
    </defs>
</svg>
