<?xml version="1.0" encoding="UTF-8" standalone="no"?>
<!DOCTYPE svg PUBLIC "-//W3C//DTD SVG 1.1//EN" "http://www.w3.org/Graphics/SVG/1.1/DTD/svg11.dtd">
<svg width="100%" height="100%" viewBox="0 0 512 448" version="1.1" xmlns="http://www.w3.org/2000/svg" xmlns:xlink="http://www.w3.org/1999/xlink" xml:space="preserve" xmlns:serif="http://www.serif.com/" style="fill-rule:evenodd;clip-rule:evenodd;stroke-linejoin:round;stroke-miterlimit:2;">
    <g transform="matrix(1,0,0,1,-64,-96)">
        <path d="M305,151.1L320,171.8L335,151.1C360,116.5 400.2,96 442.9,96C516.4,96 576,155.6 576,229.1L576,231.7C576,343.9 436.1,474.2 363.1,529.9C350.7,539.3 335.5,544 320,544C304.5,544 289.2,539.4 276.9,529.9C203.9,474.2 64,343.9 64,231.7L64,229.1C64,155.6 123.6,96 197.1,96C239.8,96 280,116.5 305,151.1Z" style="fill:url(#_Linear1);fill-rule:nonzero;"/>
    </g>
    <defs>
        <linearGradient id="_Linear1" x1="0" y1="0" x2="1" y2="0" gradientUnits="userSpaceOnUse" gradientTransform="matrix(512,448,-448,512,64,96)"><stop offset="0" style="stop-color:rgb(255,0,130);stop-opacity:1"/><stop offset="1" style="stop-color:rgb(255,41,70);stop-opacity:1"/></linearGradient>
    </defs>
</svg>
