<?xml version="1.0" encoding="UTF-8" standalone="no"?>
<!DOCTYPE svg PUBLIC "-//W3C//DTD SVG 1.1//EN" "http://www.w3.org/Graphics/SVG/1.1/DTD/svg11.dtd">
<svg width="100%" height="100%" viewBox="0 0 518 215" version="1.1" xmlns="http://www.w3.org/2000/svg" xmlns:xlink="http://www.w3.org/1999/xlink" xml:space="preserve" xmlns:serif="http://www.serif.com/" style="fill-rule:evenodd;clip-rule:evenodd;stroke-linejoin:round;stroke-miterlimit:2;">
    <g transform="matrix(1,0,0,1,-37.4543,-122.572)">
        <path d="M208.025,304.141C190.119,324.108 164.128,336.678 135.224,336.678C81.263,336.678 37.454,292.869 37.454,238.908C37.454,184.948 81.263,141.139 135.224,141.139C154.224,141.139 171.966,146.57 186.979,155.964C200.151,147.163 215.977,142.03 232.993,142.03C244.46,142.03 255.386,144.361 265.324,148.574C280.454,132.566 301.881,122.572 325.624,122.572C340.001,122.572 353.53,126.236 365.324,132.682C378.367,126.211 393.059,122.572 408.595,122.572C430.783,122.572 451.251,129.994 467.649,142.49C469.08,142.417 470.521,142.38 471.97,142.38C517.763,142.38 554.941,179.557 554.941,225.35C554.941,271.143 517.763,308.32 471.97,308.32C465.863,308.32 459.908,307.659 454.175,306.404C440.568,313.615 425.054,317.699 408.595,317.699C380.9,317.699 355.885,306.135 338.119,287.576C334.043,288.193 329.871,288.512 325.624,288.512C314.158,288.512 303.231,286.181 293.294,281.968C278.164,297.976 256.736,307.97 232.993,307.97C224.294,307.97 215.906,306.629 208.025,304.141Z" style="fill:url(#_Linear1);"/>
    </g>
    <g transform="matrix(1,0,0,1,-37.4543,-122.572)">
        <g>
            <clipPath id="_clip2">
                <rect x="84.7" y="159.1" width="430.9" height="132.6"/>
            </clipPath>
            <g clip-path="url(#_clip2)">
                <path d="M84.7,227.2L84.7,223.6C89.1,223.6 93.4,221.9 96.5,218.7C99.6,215.6 101.4,211.4 101.4,207L104.7,207C104.7,211.4 106.5,215.6 109.6,218.7C112.7,221.8 117,223.6 121.4,223.6L121.4,227.2C117,227.2 112.7,228.9 109.6,232.1C106.5,235.2 104.7,239.4 104.7,243.8L101.4,243.8C101.4,239.4 99.6,235.2 96.5,232.1C93.3,229 89.1,227.2 84.7,227.2ZM101.4,200.8L130.1,200.8C144.1,200.8 154.1,210.7 154.1,225.3C154.1,239.9 144.1,249.8 130.1,249.8L101.4,249.8L101.4,291.6L113.4,291.6L113.4,260.4L130.1,260.4C150.3,260.4 166.2,244.6 166.2,225.3C166.2,205.9 150.3,190.2 130.1,190.2L101.4,190.2L101.4,200.8ZM209.3,190.1C219.8,190.1 229.2,195.4 235.1,203.8L235.1,192.3L247.1,192.3L247.1,258.6L235.1,258.6L235.1,247C229.1,255.4 219.7,260.7 209.3,260.7C189.5,260.7 172.8,245.2 172.8,225.4C172.8,205.6 189.5,190.1 209.3,190.1ZM209.3,250C224.8,250 235.1,239.4 235.1,225.3C235.1,211.1 225,200.6 209.3,200.6C195.4,200.6 184.9,210.5 184.9,225.3C184.8,240.1 195.4,250 209.3,250ZM291.5,190.1C302.1,190.1 311.4,195.4 317.3,203.8L317.3,159.1L329.3,159.1L329.3,258.5L317.3,258.5L317.3,247C311.4,255.4 302.1,260.7 291.5,260.7C271.7,260.7 255,245.2 255,225.4C255.1,205.6 271.7,190.1 291.5,190.1ZM291.5,250C307.1,250 317.3,239.5 317.3,225.3C317.3,211.1 307.1,200.6 291.5,200.6C277.6,200.6 267.1,210.5 267.1,225.3C267.1,240.1 277.6,250 291.5,250ZM375.1,190.1C385.7,190.1 395,195.4 400.9,203.8L400.9,159.1L412.9,159.1L412.9,258.5L400.9,258.5L400.9,247C395,255.4 385.7,260.7 375.1,260.7C355.3,260.7 338.6,245.2 338.6,225.4C338.7,205.6 355.3,190.1 375.1,190.1ZM375.1,250C390.7,250 400.9,239.5 400.9,225.3C400.9,211.1 390.7,200.6 375.1,200.6C361.2,200.6 350.7,210.5 350.7,225.3C350.7,240.1 361.2,250 375.1,250ZM424.9,258.5L424.9,159.1L436.9,159.1L436.9,258.5L424.9,258.5ZM481.4,190.2C504.5,190.2 515.6,208.1 515.6,230L457.9,230C459.8,242.9 469.4,251.2 481.4,251.2C489.7,251.2 496.1,247.5 500.9,240.2L513.9,240.2C509.4,250.4 497.5,260.5 481.5,260.5C461.3,260.5 445.7,244.5 445.7,225.4C445.6,206.3 461.2,190.2 481.4,190.2ZM503.6,220.7C503.6,209.8 494.3,199.5 481.4,199.5C469.4,199.5 459.8,207.9 457.9,220.7L503.6,220.7Z" style="fill:url(#_Linear3);fill-rule:nonzero;"/>
            </g>
        </g>
    </g>
    <defs>
        <linearGradient id="_Linear1" x1="0" y1="0" x2="1" y2="0" gradientUnits="userSpaceOnUse" gradientTransform="matrix(517.486,214.106,-88.5849,214.106,37.4543,122.572)"><stop offset="0" style="stop-color:rgb(0,229,255);stop-opacity:0.15"/><stop offset="1" style="stop-color:rgb(41,121,255);stop-opacity:0.15"/></linearGradient>
        <linearGradient id="_Linear3" x1="0" y1="0" x2="1" y2="0" gradientUnits="userSpaceOnUse" gradientTransform="matrix(517.486,214.106,-88.5849,214.106,37.4543,122.572)"><stop offset="0" style="stop-color:rgb(0,229,255);stop-opacity:1"/><stop offset="1" style="stop-color:rgb(41,121,255);stop-opacity:1"/></linearGradient>
    </defs>
</svg>
