<?xml version="1.0" encoding="UTF-8" standalone="no"?>
<!DOCTYPE svg PUBLIC "-//W3C//DTD SVG 1.1//EN" "http://www.w3.org/Graphics/SVG/1.1/DTD/svg11.dtd">
<svg width="100%" height="100%" viewBox="0 0 24 24" version="1.1" xmlns="http://www.w3.org/2000/svg" xmlns:xlink="http://www.w3.org/1999/xlink" xml:space="preserve" xmlns:serif="http://www.serif.com/" style="fill-rule:evenodd;clip-rule:evenodd;stroke-linejoin:round;stroke-miterlimit:2;">
    <path d="M12,22.364C10.418,21.164 8.127,20.727 6,20.727C4.418,20.727 2.291,21.218 0.818,21.927C0.709,21.927 0.655,21.982 0.545,21.982C0.273,21.982 0,21.709 0,21.436L0,5.455C1.582,4.255 3.873,3.818 6,3.818C8.127,3.818 10.418,4.255 12,5.455C13.582,4.255 15.873,3.818 18,3.818C20.127,3.818 22.418,4.255 24,5.455L24,21.436C24,21.709 23.727,21.982 23.455,21.982C23.345,21.982 23.291,21.927 23.182,21.927C21.709,21.218 19.582,20.727 18,20.727C15.873,20.727 13.582,21.164 12,22.364Z" style="fill:url(#_Linear1);"/>
    <g transform="matrix(1.49091,0,0,0.965909,-8.87273,5.94318)">
        <path d="M19.671,-5.501L14,-0.501L14,17L19.671,12.5L19.671,-5.501" style="fill:url(#_Linear2);fill-rule:nonzero;"/>
    </g>
    <defs>
        <linearGradient id="_Linear1" x1="0" y1="0" x2="1" y2="0" gradientUnits="userSpaceOnUse" gradientTransform="matrix(24,24,-24,24,0,0)"><stop offset="0" style="stop-color:rgb(0,229,255);stop-opacity:0.4"/><stop offset="1" style="stop-color:rgb(41,121,255);stop-opacity:0.4"/></linearGradient>
        <linearGradient id="_Linear2" x1="0" y1="0" x2="1" y2="0" gradientUnits="userSpaceOnUse" gradientTransform="matrix(16.0976,24.8471,-16.0976,24.8471,5.95122,-6.15294)"><stop offset="0" style="stop-color:rgb(0,229,255);stop-opacity:1"/><stop offset="1" style="stop-color:rgb(41,121,255);stop-opacity:1"/></linearGradient>
    </defs>
</svg>
