<?xml version="1.0" encoding="UTF-8" standalone="no"?>
<!DOCTYPE svg PUBLIC "-//W3C//DTD SVG 1.1//EN" "http://www.w3.org/Graphics/SVG/1.1/DTD/svg11.dtd">
<svg width="100%" height="100%" viewBox="0 0 36 24" version="1.1" xmlns="http://www.w3.org/2000/svg" xmlns:xlink="http://www.w3.org/1999/xlink" xml:space="preserve" xmlns:serif="http://www.serif.com/" style="fill-rule:evenodd;clip-rule:evenodd;stroke-linejoin:round;stroke-miterlimit:2;">
    <g transform="matrix(1.25,0,0,1.25,-6.875,-2.875)">
        <path d="M12,5.5C13.92,5.5 15.5,7.08 15.5,9C15.5,10.92 13.92,12.5 12,12.5C10.08,12.5 8.5,10.92 8.5,9C8.5,7.08 10.08,5.5 12,5.5M5.5,18.25C5.5,16.18 8.41,14.5 12,14.5C15.59,14.5 18.5,16.18 18.5,18.25L18.5,21.5L5.5,21.5L5.5,18.25" style="fill:url(#_Linear1);fill-rule:nonzero;"/>
    </g>
    <g transform="matrix(1.25,0,0,1.25,12.875,-2.875)">
        <path d="M12,5.5C13.92,5.5 15.5,7.08 15.5,9C15.5,10.92 13.92,12.5 12,12.5C10.08,12.5 8.5,10.92 8.5,9C8.5,7.08 10.08,5.5 12,5.5M5.5,18.25C5.5,16.18 8.41,14.5 12,14.5C15.59,14.5 18.5,16.18 18.5,18.25L18.5,21.5L5.5,21.5L5.5,18.25" style="fill:url(#_Linear2);fill-rule:nonzero;"/>
    </g>
    <g transform="matrix(1.5,0,0,1.5,0,-8.25)">
        <path d="M12,5.5C13.92,5.5 15.5,7.08 15.5,9C15.5,10.92 13.92,12.5 12,12.5C10.08,12.5 8.5,10.92 8.5,9C8.5,7.08 10.08,5.5 12,5.5M5.5,18.25C5.5,16.18 8.41,14.5 12,14.5C15.59,14.5 18.5,16.18 18.5,18.25L18.5,21.5L5.5,21.5L5.5,18.25" style="fill:url(#_Linear3);fill-rule:nonzero;"/>
    </g>
    <defs>
        <linearGradient id="_Linear1" x1="0" y1="0" x2="1" y2="0" gradientUnits="userSpaceOnUse" gradientTransform="matrix(28.8,19.2,-19.2,28.8,5.5,2.3)"><stop offset="0" style="stop-color:rgb(0,229,255);stop-opacity:0.4"/><stop offset="1" style="stop-color:rgb(41,121,255);stop-opacity:0.35"/></linearGradient>
        <linearGradient id="_Linear2" x1="0" y1="0" x2="1" y2="0" gradientUnits="userSpaceOnUse" gradientTransform="matrix(28.8,19.2,-19.2,28.8,-10.3,2.3)"><stop offset="0" style="stop-color:rgb(0,229,255);stop-opacity:0.4"/><stop offset="1" style="stop-color:rgb(41,121,255);stop-opacity:0.35"/></linearGradient>
        <linearGradient id="_Linear3" x1="0" y1="0" x2="1" y2="0" gradientUnits="userSpaceOnUse" gradientTransform="matrix(24,16,-16,24,0,5.5)"><stop offset="0" style="stop-color:rgb(0,229,255);stop-opacity:1"/><stop offset="1" style="stop-color:rgb(41,121,255);stop-opacity:1"/></linearGradient>
    </defs>
</svg>
