<?xml version="1.0" encoding="UTF-8" standalone="no"?><!DOCTYPE svg PUBLIC "-//W3C//DTD SVG 1.1//EN" "http://www.w3.org/Graphics/SVG/1.1/DTD/svg11.dtd"><svg width="100%" height="100%" viewBox="0 0 56 53" version="1.1" xmlns="http://www.w3.org/2000/svg" xmlns:xlink="http://www.w3.org/1999/xlink" xml:space="preserve" xmlns:serif="http://www.serif.com/" style="fill-rule:evenodd;clip-rule:evenodd;stroke-linejoin:round;stroke-miterlimit:2;"><g><path d="M47.685,27.32l-9.769,0l0,7.947l-7.947,0l0,9.769l-29.969,0l0,-37.089l47.685,0l0,19.373Z" style="fill:#aed8fb;fill-rule:nonzero;"/><path d="M42.387,7.947l0,-2.649c0,-2.906 -2.392,-5.298 -5.299,-5.298l-5.298,0c-2.907,0 -5.298,2.392 -5.298,5.298l0,2.649l-5.299,0l0,-2.649c0,-2.906 -2.391,-5.298 -5.298,-5.298l-5.298,0c-2.907,0 -5.299,2.392 -5.299,5.298l0,2.649l-5.298,0l0,5.299l47.685,0l0,-5.299" style="fill:#68b9f8;fill-rule:nonzero;"/><path d="M47.685,31.79l0,7.947l7.947,0l0,5.299l-7.947,0l0,7.947l-5.298,0l0,-7.947l-7.948,0l0,-5.299l7.948,0l0,-7.947l5.298,0Z" style="fill:#0090ef;fill-rule:nonzero;"/></g></svg>