<?xml version="1.0" encoding="UTF-8" standalone="no"?><!DOCTYPE svg PUBLIC "-//W3C//DTD SVG 1.1//EN" "http://www.w3.org/Graphics/SVG/1.1/DTD/svg11.dtd"><svg width="100%" height="100%" viewBox="0 0 48 54" version="1.1" xmlns="http://www.w3.org/2000/svg" xmlns:xlink="http://www.w3.org/1999/xlink" xml:space="preserve" xmlns:serif="http://www.serif.com/" style="fill-rule:evenodd;clip-rule:evenodd;stroke-linejoin:round;stroke-miterlimit:2;"><g><path d="M22.453,40.098c-0,-2.673 0.729,-5.104 1.701,-7.291l-0.486,0c-4.617,0 -8.506,-3.888 -8.506,-8.505c0,-4.618 3.889,-8.506 8.506,-8.506c4.617,0 8.506,3.888 8.506,8.506c-0,0.486 3.645,-0 6.075,-0c1.215,-0 2.43,0.243 3.645,0.486l0,-0.486c0,-0.729 0,-1.701 -0.243,-2.431l5.104,-3.888c0.486,-0.486 0.486,-0.972 0.243,-1.458l-4.861,-8.505c-0.243,-0.73 -0.729,-0.73 -1.458,-0.73l-6.075,2.431c-1.215,-0.972 -2.673,-1.701 -4.132,-2.431l-0.972,-6.561c0.243,-0.243 -0.486,-0.729 -0.972,-0.729l-9.72,0c-0.486,0 -1.215,0.486 -1.215,0.972l-0.973,6.562c-1.458,0.486 -2.673,1.458 -4.131,2.187l-5.832,-2.431c-0.729,0 -1.215,0 -1.701,0.73l-4.861,8.505c-0.243,0.486 0,0.972 0.486,1.458l5.104,3.888c-0,0.73 -0.243,1.702 -0.243,2.431c-0,0.729 -0,1.701 0.243,2.43l-5.104,4.131c-0.486,0.486 -0.486,0.972 -0.243,1.458l4.861,8.506c0.243,0.486 0.729,0.486 1.458,0.486l6.075,-2.43c1.215,0.972 2.673,1.701 4.131,2.43l0.973,6.561c-0,0.486 0.486,0.972 1.215,0.972l6.075,0c-1.701,-2.673 -2.673,-5.589 -2.673,-8.748" style="fill:#68b9f8;fill-rule:nonzero;"/><path d="M38.249,30.377l-0,-3.645l-5.346,5.346l5.346,5.347l-0,-3.403c3.402,0 6.075,2.674 6.075,6.076c0,0.972 -0.243,1.944 -0.729,2.673l2.673,2.673c2.917,-4.374 1.702,-10.45 -2.673,-13.366c-1.458,-1.215 -3.402,-1.701 -5.346,-1.701" style="fill:#0090ef;fill-rule:nonzero;"/><path d="M38.249,46.173c-3.402,0 -6.075,-2.673 -6.075,-6.075c-0,-0.972 0.243,-1.944 0.729,-2.673l-2.674,-2.674c-2.916,4.375 -1.701,10.45 2.674,13.366c1.701,0.972 3.402,1.701 5.346,1.701l-0,3.646l5.346,-5.347l-5.346,-5.589l-0,3.645Z" style="fill:#0090ef;fill-rule:nonzero;"/></g></svg>