<?xml version="1.0" encoding="UTF-8" standalone="no"?><!DOCTYPE svg PUBLIC "-//W3C//DTD SVG 1.1//EN" "http://www.w3.org/Graphics/SVG/1.1/DTD/svg11.dtd"><svg width="100%" height="100%" viewBox="0 0 151 151" version="1.1" xmlns="http://www.w3.org/2000/svg" xmlns:xlink="http://www.w3.org/1999/xlink" xml:space="preserve" xmlns:serif="http://www.serif.com/" style="fill-rule:evenodd;clip-rule:evenodd;stroke-linejoin:round;stroke-miterlimit:2;"><g><path d="M83.844,113.915c-20.507,8.718 -45.149,4.72 -61.861,-11.991c-21.965,-21.966 -21.965,-57.633 0,-79.598l0.25,-0.248l26.677,26.677c-6.902,6.745 -11.187,16.138 -11.187,26.521c-0,20.511 16.722,37.163 37.318,37.163c2.662,-0 5.259,-0.278 7.764,-0.807c0.336,0.767 0.682,1.529 1.039,2.283Zm58.072,-8.434c6.013,-19.29 1.385,-41.195 -13.883,-56.463c-21.821,-21.821 -57.197,-21.908 -79.124,-0.264l-26.854,-26.854c13.573,-13.532 32.29,-21.9 52.945,-21.9c41.394,-0 75,33.606 75,75c0,11.32 -2.513,22.057 -7.012,31.685c-0.355,-0.406 -0.713,-0.808 -1.072,-1.204Zm-30.477,-21.974l0.018,-0.078l-0.014,0.059l-0.004,0.019l-0,0Zm0.055,-0.245l-0.015,0.069l0.027,-0.126l-0.012,0.057Zm0.049,-0.228l-0.015,0.071l0.027,-0.126l-0.012,0.055Zm0.048,-0.227l-0.015,0.071l0.026,-0.124l-0.011,0.053Zm0.047,-0.229l-0.015,0.073l0.025,-0.124l-0.01,0.051Zm0.045,-0.228l-0.015,0.074l0.024,-0.124l-0.009,0.05Zm0.044,-0.23l-0.015,0.076l0.023,-0.123l-0.008,0.047Zm0.042,-0.23l-0.014,0.077l0.022,-0.122l-0.008,0.045Zm0.041,-0.23l-0.014,0.078l0.021,-0.121l-0.007,0.043Zm0.039,-0.23l-0.013,0.078l0.02,-0.12l-0.007,0.042Zm0.038,-0.232l-0.013,0.08l0.019,-0.12l-0.006,0.04Zm0.037,-0.231l-0.013,0.081l0.018,-0.12l-0.005,0.039Zm0.035,-0.233l-0.013,0.083l0.018,-0.119l-0.005,0.036Zm0.033,-0.232l-0.012,0.084l0.017,-0.119l-0.005,0.035Zm0.033,-0.233l-0.012,0.085l0.016,-0.119l-0.004,0.034Zm0.031,-0.234l-0.012,0.086l0.015,-0.117l-0.003,0.031Zm0.029,-0.234l-0.011,0.088l0.014,-0.118l-0.003,0.03Zm0.028,-0.234l-0.011,0.088l0.014,-0.117l-0.003,0.029Zm0.026,-0.235l-0.01,0.09l0.013,-0.117l-0.003,0.027Zm0.025,-0.235l-0.01,0.091l0.013,-0.117l-0.003,0.026Zm0.024,-0.236l-0.01,0.092l0.012,-0.116l-0.002,0.024Zm0.022,-0.236l-0.009,0.093l0.01,-0.115l-0.001,0.022Zm0.02,-0.237l-0.008,0.095l0.01,-0.115l-0.002,0.02Zm0.019,-0.237l-0.008,0.096l0.009,-0.115l-0.001,0.019Zm0.018,-0.237l-0.008,0.097l0.009,-0.115l-0.001,0.018Zm0.016,-0.238l-0.007,0.098l0.007,-0.114l-0,0.016Zm0.014,-0.238l-0.006,0.098l0.007,-0.113l-0.001,0.015Zm0.013,-0.239l-0.005,0.1l0.006,-0.113l-0.001,0.013Zm0.012,-0.239l-0.005,0.1l0.005,-0.111l-0,0.011Zm0.01,-0.24l-0.005,0.101l0.005,-0.11l-0,0.009Zm0.008,-0.239l-0.004,0.1l0.004,-0.108l-0,0.008Zm0.007,-0.241l-0.003,0.1l0.003,-0.106l-0,0.006Zm0.005,-0.24l-0.002,0.098l0.002,-0.103l0,0.005Zm0.004,-0.241l-0.001,0.093l0.001,-0.096l0,0.003Zm-50.839,-35.127c-2.27,0.881 -4.433,1.977 -6.463,3.262c-2.03,1.286 -3.927,2.762 -5.666,4.402c3.478,-3.281 7.589,-5.903 12.129,-7.664Zm24.268,-0.953c0.356,0.107 0.71,0.218 1.061,0.335c0.351,0.117 0.7,0.238 1.046,0.365c-0.693,-0.254 -1.396,-0.487 -2.107,-0.7Zm-1.538,-0.425c0.115,0.03 0.23,0.059 0.346,0.09c0.115,0.03 0.231,0.061 0.346,0.093c-0.23,-0.063 -0.461,-0.124 -0.692,-0.183Zm-4.851,-0.89c0.788,0.091 1.569,0.207 2.341,0.347c0.773,0.14 1.538,0.303 2.293,0.489c-1.511,-0.372 -3.058,-0.653 -4.634,-0.836Zm-3.591,-0.243c-0.254,-0.005 -0.509,-0.008 -0.764,-0.008c0.255,0 0.51,0.003 0.764,0.008l0.254,0.006l0.231,0.007l0.08,0.003l0.195,0.007c0.158,0.006 0.315,0.013 0.472,0.022l0.033,0.001l0.076,0.004l0.05,0.003l0.05,0.003l0.076,0.004l0.125,0.008l0.063,0.004l0.027,0.002l0.036,0.002l0.251,0.018c-0,0 0.25,0.019 0.25,0.019l0.036,0.003l0.027,0.002l0.062,0.006l0.125,0.01l0.075,0.007l0.05,0.004l0.05,0.005l0.075,0.007l0.124,0.012l0.062,0.006l0.027,0.002c0.095,0.01 0.19,0.02 0.284,0.03l-0.284,-0.03l-0.089,-0.008l-0.199,-0.019l-0.1,-0.009l-0.2,-0.017l-0.089,-0.008l-0.286,-0.022c-0,0 -0.287,-0.02 -0.287,-0.02l-0.09,-0.006l-0.201,-0.012l-0.1,-0.006l-0.109,-0.005l-0.667,-0.029l-0.311,-0.01l-0.254,-0.006Z" style="fill:#cbcbcb;"/><path d="M106.084,143.266c-9.471,4.324 -19.998,6.734 -31.084,6.734c-41.394,-0 -75,-33.606 -75,-75c0,-20.602 8.324,-39.274 21.79,-52.835l0.177,0.177c-21.949,21.964 -21.945,57.62 0.016,79.582c16.713,16.712 41.357,20.651 61.861,11.933c5.321,11.27 12.936,21.312 22.24,29.409Zm-23.279,-31.634l-0,-0l-0,-0Zm28.634,-28.125c0.602,-2.648 0.92,-5.403 0.92,-8.231c0,-20.511 -16.721,-37.163 -37.318,-37.163c-10.306,0 -19.643,4.17 -26.398,10.905l0,0c21.908,-21.908 57.482,-21.908 79.39,0c15.268,15.268 19.896,37.173 13.883,56.462c-8.434,-9.311 -18.805,-16.847 -30.477,-21.973Z" style="fill:#929292;"/><path d="M90,90.293c33.691,-0.054 59.873,26.8 59.999,59.612l0.001,0.388c-33.115,-0 -60,-26.885 -60,-60Z" style="fill:#8cd7fe;"/><path d="M93.166,109.511c37.044,-16.977 56.836,19.732 56.836,40.429c-0,0.118 -0.001,0.236 -0.002,0.353c-25.163,-0.142 -48.698,-16.258 -56.834,-40.782Z" style="fill:#00aefd;"/></g></svg>