<?xml version="1.0" encoding="UTF-8" standalone="no"?>
<!DOCTYPE svg PUBLIC "-//W3C//DTD SVG 1.1//EN" "http://www.w3.org/Graphics/SVG/1.1/DTD/svg11.dtd">
<svg width="100%" height="100%" viewBox="0 0 24 24" version="1.1" xmlns="http://www.w3.org/2000/svg" xmlns:xlink="http://www.w3.org/1999/xlink" xml:space="preserve" xmlns:serif="http://www.serif.com/" style="fill-rule:evenodd;clip-rule:evenodd;stroke-linejoin:round;stroke-miterlimit:2;">
    <path d="M9.735,20.972C4.296,20.58 0,16.038 0,10.5C0,4.705 4.705,0 10.5,0C16.038,0 20.58,4.296 20.972,9.735C22.817,11.201 24,13.463 24,16C24,20.415 20.415,24 16,24C13.463,24 11.201,22.817 9.735,20.972Z" style="fill:url(#_Linear1);"/>
    <path d="M12.87,15.07L10.33,12.56L10.36,12.53C12.1,10.59 13.34,8.36 14.07,6L17,6L17,4L10,4L10,2L8,2L8,4L1,4L1,6L12.17,6C11.5,7.92 10.44,9.75 9,11.35C8.07,10.32 7.3,9.19 6.69,8L4.69,8C5.42,9.63 6.42,11.17 7.67,12.56L2.58,17.58L4,19L9,14L12.11,17.11L12.87,15.07M18.5,10L16.5,10L12,22L14,22L15.12,19L19.87,19L21,22L23,22L18.5,10M15.88,17L17.5,12.67L19.12,17L15.88,17Z" style="fill:url(#_Linear2);fill-rule:nonzero;"/>
    <defs>
        <linearGradient id="_Linear1" x1="0" y1="0" x2="1" y2="0" gradientUnits="userSpaceOnUse" gradientTransform="matrix(24,24,-24,24,0,0)"><stop offset="0" style="stop-color:rgb(0,229,255);stop-opacity:0.3"/><stop offset="1" style="stop-color:rgb(41,121,255);stop-opacity:0.3"/></linearGradient>
        <linearGradient id="_Linear2" x1="0" y1="0" x2="1" y2="0" gradientUnits="userSpaceOnUse" gradientTransform="matrix(24,24,-24,24,0,0)"><stop offset="0" style="stop-color:rgb(0,229,255);stop-opacity:1"/><stop offset="1" style="stop-color:rgb(41,121,255);stop-opacity:1"/></linearGradient>
    </defs>
</svg>
