<?xml version="1.0" encoding="UTF-8" standalone="no"?><!DOCTYPE svg PUBLIC "-//W3C//DTD SVG 1.1//EN" "http://www.w3.org/Graphics/SVG/1.1/DTD/svg11.dtd"><svg width="100%" height="100%" viewBox="0 0 51 51" version="1.1" xmlns="http://www.w3.org/2000/svg" xmlns:xlink="http://www.w3.org/1999/xlink" xml:space="preserve" xmlns:serif="http://www.serif.com/" style="fill-rule:evenodd;clip-rule:evenodd;stroke-linejoin:round;stroke-miterlimit:2;"><g><path d="M12.659,32.244l-10.905,4.894c-2.321,1.055 -2.321,2.782 -0,3.837l19.516,8.901c2.227,1.014 5.893,1.014 8.121,0l19.516,-8.901c2.321,-1.055 2.321,-2.782 0,-3.837l-10.541,-5.073l-25.707,0.179Z" style="fill:#0090ef;fill-rule:nonzero;"/><path d="M12.659,18.525l-10.918,4.9c-2.321,1.055 -2.321,2.782 -0,3.837l19.516,8.9c2.227,1.015 5.893,1.015 8.12,0l19.517,-8.9c2.334,-1.055 2.334,-2.782 0.013,-3.837l-10.929,-4.9l-25.319,-0Z" style="fill:#68b9f8;fill-rule:nonzero;"/><path d="M48.897,9.712l-19.696,-8.98c-2.135,-0.976 -5.63,-0.976 -7.765,-0l-19.682,8.98c-2.321,1.055 -2.321,2.781 -0,3.836l19.516,8.901c2.227,1.016 5.893,1.016 8.121,0l19.516,-8.901c2.31,-1.055 2.31,-2.782 -0.01,-3.836Z" style="fill:#aed8fb;fill-rule:nonzero;"/></g></svg>