<?xml version="1.0" encoding="UTF-8" standalone="no"?>
<!DOCTYPE svg PUBLIC "-//W3C//DTD SVG 1.1//EN" "http://www.w3.org/Graphics/SVG/1.1/DTD/svg11.dtd">
<svg width="100%" height="100%" viewBox="0 0 24 24" version="1.1" xmlns="http://www.w3.org/2000/svg" xmlns:xlink="http://www.w3.org/1999/xlink" xml:space="preserve" xmlns:serif="http://www.serif.com/" style="fill-rule:evenodd;clip-rule:evenodd;stroke-linejoin:round;stroke-miterlimit:2;">
    <g transform="matrix(1.2,0,0,1.2,-2.4,-3.70016)">
        <path d="M10,4L4,4C2.89,4 2,4.89 2,6L2,18C2,19.097 2.903,20 4,20L20,20C21.097,20 22,19.097 22,18L22,8C22,6.89 21.1,6 20,6L12,6L10,4Z" style="fill:url(#_Linear1);fill-rule:nonzero;"/>
    </g>
    <g transform="matrix(0.636907,0,0,0.636907,8.34698,8.35114)">
        <path d="M22.7,19L13.6,9.9C14.5,7.6 14,4.9 12.1,3C10.1,1 7.1,0.6 4.7,1.7L9,6L6,9L1.6,4.7C0.4,7.1 0.9,10.1 2.9,12.1C4.8,14 7.5,14.5 9.8,13.6L18.9,22.7C19.3,23.1 19.9,23.1 20.3,22.7L22.6,20.4C23.1,20 23.1,19.3 22.7,19Z" style="fill:url(#_Linear2);fill-rule:nonzero;"/>
    </g>
    <defs>
        <linearGradient id="_Linear1" x1="0" y1="0" x2="1" y2="0" gradientUnits="userSpaceOnUse" gradientTransform="matrix(20,20,-20,20,2,3.08347)"><stop offset="0" style="stop-color:rgb(0,229,255);stop-opacity:0.4"/><stop offset="1" style="stop-color:rgb(41,121,255);stop-opacity:0.4"/></linearGradient>
        <linearGradient id="_Linear2" x1="0" y1="0" x2="1" y2="0" gradientUnits="userSpaceOnUse" gradientTransform="matrix(37.6821,37.6821,-37.6821,37.6821,-13.1055,-13.112)"><stop offset="0" style="stop-color:rgb(0,229,255);stop-opacity:1"/><stop offset="1" style="stop-color:rgb(41,121,255);stop-opacity:1"/></linearGradient>
    </defs>
</svg>
