<?xml version="1.0" encoding="UTF-8" standalone="no"?>
<!DOCTYPE svg PUBLIC "-//W3C//DTD SVG 1.1//EN" "http://www.w3.org/Graphics/SVG/1.1/DTD/svg11.dtd">
<svg width="100%" height="100%" viewBox="0 0 24 24" version="1.1" xmlns="http://www.w3.org/2000/svg" xmlns:xlink="http://www.w3.org/1999/xlink" xml:space="preserve" xmlns:serif="http://www.serif.com/" style="fill-rule:evenodd;clip-rule:evenodd;stroke-linejoin:round;stroke-miterlimit:2;">
    <g transform="matrix(1.2,0,0,1.2,-2.4,-2.4)">
        <path d="M12,22C6.48,22 2,17.52 2,12C2,6.48 6.48,2 12,2C17.5,2 22,6 22,11C22,14.31 19.31,17 16,17L14.2,17C13.9,17 13.7,17.2 13.7,17.5C13.7,17.6 13.8,17.7 13.8,17.8C14.2,18.3 14.4,18.9 14.4,19.5C14.5,20.9 13.4,22 12,22M6.5,10C7.3,10 8,10.7 8,11.5C8,12.3 7.3,13 6.5,13C5.7,13 5,12.3 5,11.5C5,10.7 5.7,10 6.5,10M9.5,6C10.3,6 11,6.7 11,7.5C11,8.3 10.3,9 9.5,9C8.7,9 8,8.3 8,7.5C8,6.7 8.7,6 9.5,6M14.5,6C15.3,6 16,6.7 16,7.5C16,8.3 15.3,9 14.5,9C13.7,9 13,8.3 13,7.5C13,6.7 13.7,6 14.5,6M17.5,10C18.3,10 19,10.7 19,11.5C19,12.3 18.3,13 17.5,13C16.7,13 16,12.3 16,11.5C16,10.7 16.7,10 17.5,10Z" style="fill:url(#_Linear1);fill-rule:nonzero;"/>
    </g>
    <g transform="matrix(7.34788e-17,-1.2,1.2,7.34788e-17,-3.6,26.4)">
        <path d="M6.5,10C7.3,10 8,10.7 8,11.5C8,12.3 7.3,13 6.5,13C5.7,13 5,12.3 5,11.5C5,10.7 5.7,10 6.5,10M9.5,6C10.3,6 11,6.7 11,7.5C11,8.3 10.3,9 9.5,9C8.7,9 8,8.3 8,7.5C8,6.7 8.7,6 9.5,6M14.5,6C15.3,6 16,6.7 16,7.5C16,8.3 15.3,9 14.5,9C13.7,9 13,8.3 13,7.5C13,6.7 13.7,6 14.5,6M17.5,10C18.3,10 19,10.7 19,11.5C19,12.3 18.3,13 17.5,13C16.7,13 16,12.3 16,11.5C16,10.7 16.7,10 17.5,10Z" style="fill:url(#_Linear2);fill-rule:nonzero;"/>
    </g>
    <g transform="matrix(0.631627,0,0,0.631627,7.73675,0.706697)">
        <path d="M22.293,3.047L20.953,1.707C20.583,1.317 19.933,1.317 19.543,1.707L9,12.25L11.75,15L22.293,4.457C22.683,4.067 22.683,3.417 22.293,3.047M7,14C5.354,14 4,15.354 4,17C4,18.31 2.84,19 2,19C2.92,20.22 4.5,21 6,21C8.194,21 10,19.194 10,17C10,15.354 8.646,14 7,14Z" style="fill:url(#_Linear3);fill-rule:nonzero;"/>
    </g>
    <defs>
        <linearGradient id="_Linear1" x1="0" y1="0" x2="1" y2="0" gradientUnits="userSpaceOnUse" gradientTransform="matrix(20,20,-20,20,2,2)"><stop offset="0" style="stop-color:rgb(0,229,255);stop-opacity:0.35"/><stop offset="1" style="stop-color:rgb(41,121,255);stop-opacity:0.35"/></linearGradient>
        <linearGradient id="_Linear2" x1="0" y1="0" x2="1" y2="0" gradientUnits="userSpaceOnUse" gradientTransform="matrix(-20,20,-20,-20,22,3.83333)"><stop offset="0" style="stop-color:rgb(0,229,255);stop-opacity:1"/><stop offset="1" style="stop-color:rgb(41,121,255);stop-opacity:1"/></linearGradient>
        <linearGradient id="_Linear3" x1="0" y1="0" x2="1" y2="0" gradientUnits="userSpaceOnUse" gradientTransform="matrix(37.9971,37.9971,-37.9971,37.9971,-12.2489,-1.11885)"><stop offset="0" style="stop-color:rgb(0,229,255);stop-opacity:1"/><stop offset="1" style="stop-color:rgb(41,121,255);stop-opacity:1"/></linearGradient>
    </defs>
</svg>
