<?xml version="1.0" encoding="UTF-8" standalone="no"?><!DOCTYPE svg PUBLIC "-//W3C//DTD SVG 1.1//EN" "http://www.w3.org/Graphics/SVG/1.1/DTD/svg11.dtd"><svg width="100%" height="100%" viewBox="0 0 52 45" version="1.1" xmlns="http://www.w3.org/2000/svg" xmlns:xlink="http://www.w3.org/1999/xlink" xml:space="preserve" xmlns:serif="http://www.serif.com/" style="fill-rule:evenodd;clip-rule:evenodd;stroke-linejoin:round;stroke-miterlimit:2;"><g><path d="M25.842,0c4.678,0 9.045,1.292 12.844,3.411l-5.427,3.127c-2.248,-0.879 -4.832,-1.37 -7.417,-1.37c-11.341,0 -20.674,9.333 -20.674,20.674c0,5.711 2.3,10.88 6.048,14.601l0.025,0c1.008,1.008 1.008,2.636 0,3.644c-1.007,1.008 -2.661,1.008 -3.669,0.026c-4.678,-4.678 -7.572,-11.138 -7.572,-18.271c-0,-14.176 11.666,-25.842 25.842,-25.842" style="fill:#68b9f8;fill-rule:nonzero;"/><path d="M25.842,33.595c-4.253,0 -7.752,-3.5 -7.752,-7.753c-0,-2.894 1.576,-5.427 3.876,-6.745l25.093,-14.523l-14.291,24.757c-1.292,2.533 -3.902,4.264 -6.926,4.264" style="fill:#0090ef;fill-rule:nonzero;"/><path d="M51.685,25.842c-0,7.133 -2.895,13.593 -7.572,18.271c-1.008,0.982 -2.636,0.982 -3.644,-0.026c-1.008,-1.008 -1.008,-2.636 0,-3.644c3.747,-3.747 6.047,-8.89 6.047,-14.601c0,-2.584 -0.491,-5.168 -1.395,-7.494l3.127,-5.427c2.145,3.877 3.437,8.218 3.437,12.921Z" style="fill:#68b9f8;fill-rule:nonzero;"/></g></svg>