<?xml version="1.0" encoding="UTF-8" standalone="no"?><!DOCTYPE svg PUBLIC "-//W3C//DTD SVG 1.1//EN" "http://www.w3.org/Graphics/SVG/1.1/DTD/svg11.dtd"><svg width="100%" height="100%" viewBox="0 0 46 54" version="1.1" xmlns="http://www.w3.org/2000/svg" xmlns:xlink="http://www.w3.org/1999/xlink" xml:space="preserve" xmlns:serif="http://www.serif.com/" style="fill-rule:evenodd;clip-rule:evenodd;stroke-linejoin:round;stroke-miterlimit:2;"><g><path d="M15.273,45.818l25.454,-25.2l0,-5.345l-15.272,-15.273l-20.364,0c-2.793,0 -5.091,2.298 -5.091,5.091l0,40.727c0,2.793 2.298,5.091 5.091,5.091l10.182,0l-0,-5.091Zm7.636,-12.472l0,-2.8l-12.727,-0l-0,5.09l10.436,0l2.291,-2.29Zm7.637,-12.982l-20.364,-0l-0,5.091l20.364,-0l-0,-5.091Z" style="fill:#68b9f8;"/><path d="M25.455,15.273l15.272,-0l-15.272,-15.273" style="fill:#aed8fb;fill-rule:nonzero;"/><path d="M41.236,28c0.255,0 0.764,0.255 1.019,0.509l3.309,3.309c0.509,0.509 0.509,1.528 -0,2.037l-2.546,2.545l-5.345,-5.345l2.545,-2.546c0.255,-0.254 0.509,-0.509 1.018,-0.509m0,9.927l-15.527,15.528l-5.345,-0l-0,-5.346l15.527,-15.527l5.345,5.345Z" style="fill:#0090ef;fill-rule:nonzero;"/></g></svg>