<?xml version="1.0" encoding="UTF-8" standalone="no"?>
<!DOCTYPE svg PUBLIC "-//W3C//DTD SVG 1.1//EN" "http://www.w3.org/Graphics/SVG/1.1/DTD/svg11.dtd">
<svg width="100%" height="100%" viewBox="0 0 24 24" version="1.1" xmlns="http://www.w3.org/2000/svg" xmlns:xlink="http://www.w3.org/1999/xlink" xml:space="preserve" xmlns:serif="http://www.serif.com/" style="fill-rule:evenodd;clip-rule:evenodd;stroke-linejoin:round;stroke-miterlimit:2;">
    <g transform="matrix(1.14286,0,0,1.14286,-2.28571,-1.14286)">
        <path d="M20.5,11L19,11L19,7C19,5.89 18.1,5 17,5L13,5L13,3.5C13,2.129 11.871,1 10.5,1C9.129,1 8,2.129 8,3.5L8,5L4,5C2.903,5 2,5.903 2,7L2,10.8L3.5,10.8C5,10.8 6.2,12 6.2,13.5C6.2,15 5,16.2 3.5,16.2L2,16.2L2,20C2,21.097 2.903,22 4,22L7.8,22L7.8,20.5C7.8,19 9,17.8 10.5,17.8C12,17.8 13.2,19 13.2,20.5L13.2,22L17,22C18.097,22 19,21.097 19,20L19,16L20.5,16C21.871,16 23,14.871 23,13.5C23,12.129 21.871,11 20.5,11Z" style="fill:url(#_Linear1);fill-rule:nonzero;"/>
    </g>
    <g transform="matrix(1.14286,0,0,1.14286,-2.28571,-1.14286)">
        <path d="M20.5,11L19,11L19,16L20.5,16C21.871,16 23,14.871 23,13.5C23,12.129 21.871,11 20.5,11Z" style="fill:url(#_Linear2);fill-rule:nonzero;"/>
    </g>
    <g transform="matrix(1.14286,0,0,1.14286,-2.28571,-1.14286)">
        <path d="M8,5L13,5L13,3.5C13,2.129 11.871,1 10.5,1C9.129,1 8,2.129 8,3.5L8,5Z" style="fill:url(#_Linear3);fill-rule:nonzero;"/>
    </g>
    <defs>
        <linearGradient id="_Linear1" x1="0" y1="0" x2="1" y2="0" gradientUnits="userSpaceOnUse" gradientTransform="matrix(21,21,-21,21,2,1)"><stop offset="0" style="stop-color:rgb(0,229,255);stop-opacity:0.4"/><stop offset="1" style="stop-color:rgb(41,121,255);stop-opacity:0.4"/></linearGradient>
        <linearGradient id="_Linear2" x1="0" y1="0" x2="1" y2="0" gradientUnits="userSpaceOnUse" gradientTransform="matrix(21,21,-21,21,2,1)"><stop offset="0" style="stop-color:rgb(0,229,255);stop-opacity:1"/><stop offset="1" style="stop-color:rgb(41,121,255);stop-opacity:1"/></linearGradient>
        <linearGradient id="_Linear3" x1="0" y1="0" x2="1" y2="0" gradientUnits="userSpaceOnUse" gradientTransform="matrix(21,21,-21,21,2,1)"><stop offset="0" style="stop-color:rgb(0,229,255);stop-opacity:1"/><stop offset="1" style="stop-color:rgb(41,121,255);stop-opacity:1"/></linearGradient>
    </defs>
</svg>
