<?xml version="1.0" encoding="UTF-8" standalone="no"?>
<!DOCTYPE svg PUBLIC "-//W3C//DTD SVG 1.1//EN" "http://www.w3.org/Graphics/SVG/1.1/DTD/svg11.dtd">
<svg width="100%" height="100%" viewBox="0 0 36 24" version="1.1" xmlns="http://www.w3.org/2000/svg" xmlns:xlink="http://www.w3.org/1999/xlink" xml:space="preserve" xmlns:serif="http://www.serif.com/" style="fill-rule:evenodd;clip-rule:evenodd;stroke-linejoin:round;stroke-miterlimit:2;">
    <g transform="matrix(1.92767,0,0,1.02343,0.664516,4.84374)">
        <path d="M9,0C13.083,4.45 16.836,5.77 18,9C19.586,13.399 15.286,15.461 9,18C2.544,20.608 -1.602,15.766 0,9C1.72,1.736 5.84,-3.445 9,0Z" style="fill:url(#_Linear1);"/>
    </g>
    <g transform="matrix(0.0274829,0,0,0.0274829,12.3879,-1.38216)">
        <path d="M746.313,59.781C745.731,56.965 743.563,54.73 740.766,54.062C649.25,31.687 437.797,111.422 323.234,225.938C302.801,246.206 284.173,268.216 267.562,291.719C232.234,288.594 196.906,291.203 166.797,304.328C81.844,341.719 57.109,439.281 50.219,481.25C50.077,482.085 50.005,482.93 50.005,483.777C50.005,492.04 56.805,498.839 65.068,498.839C65.614,498.839 66.16,498.809 66.703,498.75L203.125,483.703C203.222,493.988 203.843,504.262 204.984,514.484C205.671,521.581 208.823,528.218 213.891,533.234L266.719,585.938C271.739,590.998 278.374,594.15 285.469,594.844C295.634,595.981 305.85,596.601 316.078,596.703L301.109,732.953C301.051,733.49 301.022,734.03 301.022,734.57C301.022,742.841 307.829,749.648 316.101,749.648C316.941,749.648 317.78,749.577 318.609,749.438C360.5,742.719 458.234,717.984 495.406,633.031C508.531,602.922 511.219,567.766 508.187,532.609C531.747,515.997 553.815,497.364 574.141,476.922C689.063,362.578 768.344,155.844 746.313,59.781ZM459.484,340.516C445.414,326.454 437.5,307.357 437.5,287.465C437.5,246.321 471.356,212.465 512.5,212.465C553.644,212.465 587.5,246.321 587.5,287.465C587.5,307.357 579.586,326.454 565.516,340.516C551.467,354.584 532.381,362.498 512.5,362.498C492.619,362.498 473.533,354.584 459.484,340.516Z" style="fill:url(#_Linear2);fill-rule:nonzero;"/>
    </g>
    <g transform="matrix(0.0274829,0,0,0.0274829,12.3879,-1.38216)">
        <path d="M263.125,624.109C254.563,632.688 240.828,636.031 224.297,638.891C187.156,645.219 154.359,613.125 161.031,575.578C163.578,561.344 171.109,541.391 175.797,536.703C177.106,535.42 177.844,533.661 177.844,531.828C177.844,528.082 174.762,525 171.016,525C170.708,525 170.399,525.021 170.094,525.063C149.328,527.603 129.999,537.023 115.203,551.813C78.469,588.578 75,725 75,725C75,725 211.5,721.531 248.234,684.766C263.07,669.982 272.502,650.623 275,629.828C275.578,623.297 267.625,619.406 263.125,624.109Z" style="fill:url(#_Linear3);fill-rule:nonzero;"/>
    </g>
    <defs>
        <linearGradient id="_Linear1" x1="0" y1="0" x2="1" y2="0" gradientUnits="userSpaceOnUse" gradientTransform="matrix(18.6754,23.4505,-12.4503,35.1758,-0.344725,-4.73285)"><stop offset="0" style="stop-color:rgb(0,229,255);stop-opacity:0.4"/><stop offset="1" style="stop-color:rgb(41,121,255);stop-opacity:0.4"/></linearGradient>
        <linearGradient id="_Linear2" x1="0" y1="0" x2="1" y2="0" gradientUnits="userSpaceOnUse" gradientTransform="matrix(1186.55,791.032,-791.032,1186.55,-193.274,50.2915)"><stop offset="0" style="stop-color:rgb(0,229,255);stop-opacity:1"/><stop offset="1" style="stop-color:rgb(41,121,255);stop-opacity:1"/></linearGradient>
        <linearGradient id="_Linear3" x1="0" y1="0" x2="1" y2="0" gradientUnits="userSpaceOnUse" gradientTransform="matrix(1186.55,791.032,-791.032,1186.55,-193.274,50.2915)"><stop offset="0" style="stop-color:rgb(0,229,255);stop-opacity:1"/><stop offset="1" style="stop-color:rgb(41,121,255);stop-opacity:1"/></linearGradient>
    </defs>
</svg>
