<?xml version="1.0" encoding="UTF-8" standalone="no"?>
<!DOCTYPE svg PUBLIC "-//W3C//DTD SVG 1.1//EN" "http://www.w3.org/Graphics/SVG/1.1/DTD/svg11.dtd">
<svg width="100%" height="100%" viewBox="0 0 24 24" version="1.1" xmlns="http://www.w3.org/2000/svg" xmlns:xlink="http://www.w3.org/1999/xlink" xml:space="preserve" xmlns:serif="http://www.serif.com/" style="fill-rule:evenodd;clip-rule:evenodd;stroke-linejoin:round;stroke-miterlimit:2;">
    <g transform="matrix(1.2,0,0,1.2,-2.4,-2.4)">
        <path d="M12,2C6.47,2 2,6.5 2,12C2,17.486 6.514,22 12,22C13.209,22 14.372,21.781 15.449,21.38C19.257,19.962 22,16.276 22,12C22,6.514 17.486,2 12,2Z" style="fill:url(#_Linear1);fill-rule:nonzero;"/>
    </g>
    <g transform="matrix(1.2,0,0,1.2,-2.4,-2.4)">
        <path d="M2,12C2,17.486 2,6.514 2,12M17.07,15.19C17.679,14.238 18.002,13.13 18,12C18,8.708 15.292,6 12,6L12,4L8.88,7L12,10L12,8C14.194,8 16,9.806 16,12C15.996,12.596 15.86,13.184 15.6,13.72M6,12C6,15.292 8.708,18 12,18L12,20L15,17L12,14L12,16C9.806,16 8,14.194 8,12C8.004,11.404 8.14,10.816 8.4,10.28L6.93,8.81C6.321,9.762 5.998,10.87 6,12Z" style="fill:url(#_Linear2);fill-rule:nonzero;"/>
    </g>
    <defs>
        <linearGradient id="_Linear1" x1="0" y1="0" x2="1" y2="0" gradientUnits="userSpaceOnUse" gradientTransform="matrix(20,20,-20,20,2,2)"><stop offset="0" style="stop-color:rgb(0,229,255);stop-opacity:0.4"/><stop offset="1" style="stop-color:rgb(41,121,255);stop-opacity:0.4"/></linearGradient>
        <linearGradient id="_Linear2" x1="0" y1="0" x2="1" y2="0" gradientUnits="userSpaceOnUse" gradientTransform="matrix(20,20,-20,20,2,2)"><stop offset="0" style="stop-color:rgb(0,229,255);stop-opacity:1"/><stop offset="1" style="stop-color:rgb(41,121,255);stop-opacity:1"/></linearGradient>
    </defs>
</svg>
