<?xml version="1.0" encoding="UTF-8" standalone="no"?>
<!DOCTYPE svg PUBLIC "-//W3C//DTD SVG 1.1//EN" "http://www.w3.org/Graphics/SVG/1.1/DTD/svg11.dtd">
<svg width="100%" height="100%" viewBox="0 0 24 24" version="1.1" xmlns="http://www.w3.org/2000/svg" xmlns:xlink="http://www.w3.org/1999/xlink" xml:space="preserve" xmlns:serif="http://www.serif.com/" style="fill-rule:evenodd;clip-rule:evenodd;stroke-linejoin:round;stroke-miterlimit:2;">
    <g transform="matrix(1.09091,0,0,1.0875,-1.09091,-4.35)">
        <path d="M18.5,20L6.5,20C4.98,20 3.683,19.477 2.61,18.43C1.537,17.377 1,16.093 1,14.58C1,13.28 1.39,12.12 2.17,11.1C2.957,10.08 3.983,9.43 5.25,9.15C5.67,7.617 6.503,6.377 7.75,5.43C9.003,4.477 10.42,4 12,4C13.953,4 15.607,4.68 16.96,6.04C18.32,7.393 19,9.047 19,11C20.153,11.133 21.107,11.633 21.86,12.5C22.62,13.353 23,14.353 23,15.5C23,16.753 22.563,17.817 21.69,18.69C20.817,19.563 19.753,20 18.5,20Z" style="fill:url(#_Linear1);fill-rule:nonzero;"/>
    </g>
    <g transform="matrix(0.8875,0,0,0.8875,8.02499,6.25)">
        <path d="M17.07,15.19C17.679,14.238 18.002,13.13 18,12C18,8.708 15.292,6 12,6L12,4L8.88,7L12,10L12,8C14.194,8 16,9.806 16,12C15.996,12.596 15.86,13.184 15.6,13.72M6,12C6,15.292 8.708,18 12,18L12,20L15,17L12,14L12,16C9.806,16 8,14.194 8,12C8.004,11.404 8.14,10.816 8.4,10.28L6.93,8.81C6.321,9.762 5.998,10.87 6,12Z" style="fill:url(#_Linear2);fill-rule:nonzero;"/>
    </g>
    <defs>
        <linearGradient id="_Linear1" x1="0" y1="0" x2="1" y2="0" gradientUnits="userSpaceOnUse" gradientTransform="matrix(22,22.069,-22,22.069,1,4)"><stop offset="0" style="stop-color:rgb(0,229,255);stop-opacity:0.4"/><stop offset="1" style="stop-color:rgb(41,121,255);stop-opacity:0.4"/></linearGradient>
        <linearGradient id="_Linear2" x1="0" y1="0" x2="1" y2="0" gradientUnits="userSpaceOnUse" gradientTransform="matrix(27.0423,27.0423,-27.0423,27.0423,-9.04224,-7.04225)"><stop offset="0" style="stop-color:rgb(0,229,255);stop-opacity:1"/><stop offset="1" style="stop-color:rgb(41,121,255);stop-opacity:1"/></linearGradient>
    </defs>
</svg>
