<?xml version="1.0" encoding="UTF-8" standalone="no"?>
<!DOCTYPE svg PUBLIC "-//W3C//DTD SVG 1.1//EN" "http://www.w3.org/Graphics/SVG/1.1/DTD/svg11.dtd">
<svg width="100%" height="100%" viewBox="0 0 24 24" version="1.1" xmlns="http://www.w3.org/2000/svg" xmlns:xlink="http://www.w3.org/1999/xlink" xml:space="preserve" xmlns:serif="http://www.serif.com/" style="fill-rule:evenodd;clip-rule:evenodd;stroke-linejoin:round;stroke-miterlimit:2;">
    <g transform="matrix(1.09091,0,0,1.0875,-1.09091,-1.35)">
        <path d="M18.5,20L6.5,20C4.98,20 3.683,19.477 2.61,18.43C1.537,17.377 1,16.093 1,14.58C1,13.28 1.39,12.12 2.17,11.1C2.957,10.08 3.983,9.43 5.25,9.15C5.67,7.617 6.503,6.377 7.75,5.43C9.003,4.477 10.42,4 12,4C13.953,4 15.607,4.68 16.96,6.04C18.32,7.393 19,9.047 19,11C20.153,11.133 21.107,11.633 21.86,12.5C22.62,13.353 23,14.353 23,15.5C23,16.753 22.563,17.817 21.69,18.69C20.817,19.563 19.753,20 18.5,20Z" style="fill:url(#_Linear1);fill-rule:nonzero;"/>
    </g>
    <g transform="matrix(1.1821,0,0,1.17841,2.54317,-8.16818)">
        <path d="M11,20.849L11,12.85L9.4,14.4L8,13L12,9L16,13L14.6,14.4L13,12.85L13,20.849L11,20.849Z" style="fill:url(#_Linear2);fill-rule:nonzero;"/>
    </g>
    <g transform="matrix(1.1821,0,0,1.17841,2.54317,-8.16818)">
        <rect x="11" y="22.185" width="2" height="2.058" style="fill:url(#_Linear3);fill-rule:nonzero;"/>
    </g>
    <defs>
        <linearGradient id="_Linear1" x1="0" y1="0" x2="1" y2="0" gradientUnits="userSpaceOnUse" gradientTransform="matrix(22,22.069,-22,22.069,1,1.24138)"><stop offset="0" style="stop-color:rgb(0,229,255);stop-opacity:0.4"/><stop offset="1" style="stop-color:rgb(41,121,255);stop-opacity:0.4"/></linearGradient>
        <linearGradient id="_Linear2" x1="0" y1="0" x2="1" y2="0" gradientUnits="userSpaceOnUse" gradientTransform="matrix(20.3028,20.3664,-20.3028,20.3664,-2.1514,6.93153)"><stop offset="0" style="stop-color:rgb(0,229,255);stop-opacity:1"/><stop offset="1" style="stop-color:rgb(41,121,255);stop-opacity:1"/></linearGradient>
        <linearGradient id="_Linear3" x1="0" y1="0" x2="1" y2="0" gradientUnits="userSpaceOnUse" gradientTransform="matrix(20.3028,20.3664,-20.3028,20.3664,-2.1514,6.93153)"><stop offset="0" style="stop-color:rgb(0,229,255);stop-opacity:1"/><stop offset="1" style="stop-color:rgb(41,121,255);stop-opacity:1"/></linearGradient>
    </defs>
</svg>
