<?xml version="1.0" encoding="UTF-8" standalone="no"?>
<!DOCTYPE svg PUBLIC "-//W3C//DTD SVG 1.1//EN" "http://www.w3.org/Graphics/SVG/1.1/DTD/svg11.dtd">
<svg width="100%" height="100%" viewBox="0 0 512 512" version="1.1" xmlns="http://www.w3.org/2000/svg" xmlns:xlink="http://www.w3.org/1999/xlink" xml:space="preserve" xmlns:serif="http://www.serif.com/" style="fill-rule:evenodd;clip-rule:evenodd;stroke-linejoin:round;stroke-miterlimit:2;">
    <path d="M269.4,2.9C265.2,1 260.7,0 256,0C251.3,0 246.8,1 242.6,2.9L54.3,82.8C32.3,92.1 15.9,113.8 16,140C16.5,239.2 57.3,420.7 229.6,503.2C246.3,511.2 265.7,511.2 282.4,503.2C454.7,420.7 495.5,239.2 496,140C496.1,113.8 479.7,92.1 457.7,82.8L269.4,2.9Z" style="fill:url(#_Linear1);fill-rule:nonzero;"/>
    <g transform="matrix(0.493921,0,0,0.493921,145.056,112.056)">
        <path d="M336,352C433.2,352 512,273.2 512,176C512,78.8 433.2,0 336,0C238.8,0 160,78.8 160,176C160,194.7 162.9,212.8 168.3,229.7L7,391C2.5,395.5 0,401.6 0,408L0,488C0,501.3 10.7,512 24,512L104,512C117.3,512 128,501.3 128,488L128,448L168,448C181.3,448 192,437.3 192,424L192,384L232,384C238.4,384 244.5,381.5 249,377L282.3,343.7C299.2,349.1 317.3,352 336,352ZM376,96C397.943,96 416,114.057 416,136C416,157.943 397.943,176 376,176C354.057,176 336,157.943 336,136C336,114.057 354.057,96 376,96Z" style="fill:url(#_Linear2);fill-rule:nonzero;"/>
    </g>
    <defs>
        <linearGradient id="_Linear1" x1="0" y1="0" x2="1" y2="0" gradientUnits="userSpaceOnUse" gradientTransform="matrix(512,512,-512,512,0,0)"><stop offset="0" style="stop-color:rgb(0,229,255);stop-opacity:0.3"/><stop offset="1" style="stop-color:rgb(41,121,255);stop-opacity:0.3"/></linearGradient>
        <linearGradient id="_Linear2" x1="0" y1="0" x2="1" y2="0" gradientUnits="userSpaceOnUse" gradientTransform="matrix(1048.75,1030.93,-1030.93,1048.75,-305.83,-226.87)"><stop offset="0" style="stop-color:rgb(0,229,255);stop-opacity:1"/><stop offset="1" style="stop-color:rgb(41,121,255);stop-opacity:1"/></linearGradient>
    </defs>
</svg>
