<?xml version="1.0" encoding="UTF-8" standalone="no"?>
<!DOCTYPE svg PUBLIC "-//W3C//DTD SVG 1.1//EN" "http://www.w3.org/Graphics/SVG/1.1/DTD/svg11.dtd">
<svg width="100%" height="100%" viewBox="0 0 640 512" version="1.1" xmlns="http://www.w3.org/2000/svg" xmlns:xlink="http://www.w3.org/1999/xlink" xml:space="preserve" xmlns:serif="http://www.serif.com/" style="fill-rule:evenodd;clip-rule:evenodd;stroke-linejoin:round;stroke-miterlimit:2;">
    <path d="M231.5,383C348.9,372.9 448,288.3 448,176C448,170.8 447.8,165.6 447.4,160.5C555.1,167.1 640,243.2 640,336C640,374.6 625.3,410.3 600.4,439.4C603.9,448.8 609.1,457.1 614.6,464.1C619.4,470.3 624.3,475.1 627.9,478.4C629.7,480 631.2,481.3 632.2,482.1C632.7,482.5 633.1,482.8 633.3,482.9L633.5,483.1C639.1,487.2 641.4,494.4 639.3,501C637.2,507.6 631,512.1 624.1,512.1C602.3,512.1 580.3,506.5 562,499.6C552.8,496.1 544.2,492.2 536.8,488.2C505.9,503.3 470.2,512 432,512C336.4,512 255.8,457.4 231.5,383Z" style="fill:url(#_Linear1);fill-rule:nonzero;"/>
    <path d="M416,176C416,273.2 322.9,352 208,352C169.8,352 134.1,343.3 103.3,328.1C95.8,332.1 87.3,336 78.1,339.5C59.8,346.4 37.8,352 16,352C9.1,352 2.9,347.5 0.8,340.9C-1.3,334.3 1,327.1 6.6,323L6.8,322.8C7,322.6 7.4,322.4 7.9,322C8.9,321.2 10.4,320 12.2,318.3C15.8,315 20.7,310.2 25.5,304C31,297 36.2,288.6 39.7,279.3C14.7,250.3 0,214.6 0,176C0,78.8 93.1,0 208,0C322.9,0 416,78.8 416,176Z" style="fill:url(#_Linear2);fill-rule:nonzero;"/>
    <path d="M228,72C228,61 219,52 208,52C197,52 188,61 188,72L188,86C180.4,87.7 172.8,90.4 165.8,94.5C151.9,102.8 139.9,117.3 140,138.4C140.1,158.7 152,171.5 164.7,179.1C175.7,185.7 189.4,189.9 200.3,193.1L202,193.6C214.6,197.4 223.8,200.4 230,204.3C235.1,207.5 235.8,209.7 235.9,212.5C236,217.5 234.1,220.5 230,223C225,226.1 217.1,228 208.6,227.7C197.5,227.3 187.1,223.8 173.5,219.2C171.2,218.4 168.8,217.6 166.3,216.8C155.8,213.3 144.5,219 141,229.4C137.5,239.8 143.2,251.2 153.6,254.7C155.5,255.3 157.6,256 159.7,256.8C168,259.7 177.6,263 187.9,265.2L187.9,279.8C187.9,290.8 196.9,299.8 207.9,299.8C218.9,299.8 227.9,290.8 227.9,279.8L227.9,266C235.9,264.3 243.9,261.5 251.1,257C265.4,248.1 276.2,232.9 275.9,212C275.6,191.7 264.2,178.6 251.3,170.4C239.8,163.2 225.4,158.8 214.2,155.4L213.5,155.2C200.7,151.3 191.6,148.5 185.2,144.7C180,141.6 179.9,139.8 179.9,138C179.9,134.3 181.3,131.5 186.1,128.7C191.5,125.5 199.7,123.6 207.6,123.7C217.2,123.8 227.8,125.9 238.8,128.9C249.5,131.7 260.4,125.4 263.3,114.7C266.2,104 259.8,93.1 249.1,90.2C242.6,88.5 235.4,86.8 228,85.5L228,72Z" style="fill:url(#_Linear3);fill-rule:nonzero;"/>
    <defs>
        <linearGradient id="_Linear1" x1="0" y1="0" x2="1" y2="0" gradientUnits="userSpaceOnUse" gradientTransform="matrix(640,512,-409.637,512.046,0,0)"><stop offset="0" style="stop-color:rgb(0,229,255);stop-opacity:0.5"/><stop offset="1" style="stop-color:rgb(41,121,255);stop-opacity:0.5"/></linearGradient>
        <linearGradient id="_Linear2" x1="0" y1="0" x2="1" y2="0" gradientUnits="userSpaceOnUse" gradientTransform="matrix(640,512,-409.637,512.046,0,0)"><stop offset="0" style="stop-color:rgb(0,229,255);stop-opacity:0.3"/><stop offset="1" style="stop-color:rgb(41,121,255);stop-opacity:0.3"/></linearGradient>
        <linearGradient id="_Linear3" x1="0" y1="0" x2="1" y2="0" gradientUnits="userSpaceOnUse" gradientTransform="matrix(640,512,-409.637,512.046,0,0)"><stop offset="0" style="stop-color:rgb(0,229,255);stop-opacity:1"/><stop offset="1" style="stop-color:rgb(41,121,255);stop-opacity:1"/></linearGradient>
    </defs>
</svg>
