<?xml version="1.0" encoding="UTF-8" standalone="no"?><!DOCTYPE svg PUBLIC "-//W3C//DTD SVG 1.1//EN" "http://www.w3.org/Graphics/SVG/1.1/DTD/svg11.dtd"><svg width="100%" height="100%" viewBox="0 0 675 166" version="1.1" xmlns="http://www.w3.org/2000/svg" xmlns:xlink="http://www.w3.org/1999/xlink" xml:space="preserve" xmlns:serif="http://www.serif.com/" style="fill-rule:evenodd;clip-rule:evenodd;stroke-linejoin:round;stroke-miterlimit:2;"><g><g><g><path d="M278.964,86.679c-0,7.077 -1.124,13.173 -3.371,18.289c-2.247,5.115 -5.4,9.115 -9.459,11.999l13.082,10.264l-6.591,6.088l-15.447,-12.276c-2.415,0.603 -4.964,0.905 -7.647,0.905c-5.769,0 -10.885,-1.417 -15.346,-4.251c-4.461,-2.834 -7.924,-6.876 -10.389,-12.126c-2.466,-5.249 -3.732,-11.328 -3.799,-18.238l0,-5.283c0,-7.044 1.224,-13.266 3.673,-18.666c2.449,-5.4 5.912,-9.534 10.39,-12.402c4.477,-2.868 9.601,-4.302 15.37,-4.302c5.904,0 11.094,1.426 15.572,4.277c4.478,2.851 7.924,6.951 10.339,12.301c2.415,5.35 3.623,11.597 3.623,18.742l-0,4.679Zm-9.66,-4.73c-0,-8.62 -1.719,-15.27 -5.157,-19.949c-3.438,-4.679 -8.344,-7.018 -14.717,-7.018c-6.071,-0 -10.859,2.322 -14.364,6.968c-3.505,4.646 -5.308,11.094 -5.409,19.345l0,5.384c0,8.385 1.753,14.993 5.258,19.823c3.505,4.83 8.377,7.245 14.616,7.245c6.239,0 11.069,-2.272 14.49,-6.817c3.421,-4.545 5.182,-11.061 5.283,-19.547l-0,-5.434Z" style="fill:#595959;fill-rule:nonzero;"/><path d="M326.007,115.559c-3.623,4.259 -8.939,6.389 -15.95,6.389c-5.802,0 -10.222,-1.685 -13.257,-5.056c-3.036,-3.371 -4.57,-8.361 -4.604,-14.968l0,-35.421l9.308,0l0,35.169c0,8.251 3.354,12.377 10.063,12.377c7.111,0 11.84,-2.65 14.188,-7.949l0,-39.597l9.308,0l-0,54.439l-8.855,0l-0.201,-5.383Z" style="fill:#595959;fill-rule:nonzero;"/><path d="M371.791,121.948c-7.379,0 -13.383,-2.423 -18.012,-7.27c-4.628,-4.847 -6.943,-11.329 -6.943,-19.446l0,-1.711c0,-5.4 1.032,-10.222 3.094,-14.465c2.063,-4.243 4.948,-7.563 8.654,-9.962c3.707,-2.398 7.723,-3.597 12.05,-3.597c7.078,0 12.578,2.331 16.503,6.994c3.924,4.662 5.886,11.337 5.886,20.024l0,3.874l-36.879,0c0.134,5.367 1.702,9.702 4.704,13.006c3.002,3.304 6.818,4.956 11.447,4.956c3.287,-0 6.071,-0.671 8.351,-2.013c2.281,-1.341 4.277,-3.119 5.988,-5.333l5.685,4.428c-4.562,7.01 -11.404,10.515 -20.528,10.515Zm-1.157,-48.803c-3.756,-0 -6.909,1.366 -9.459,4.1c-2.549,2.734 -4.125,6.566 -4.729,11.497l27.27,-0l-0,-0.705c-0.269,-4.729 -1.543,-8.394 -3.824,-10.993c-2.281,-2.6 -5.367,-3.899 -9.258,-3.899Z" style="fill:#595959;fill-rule:nonzero;"/><path d="M435.488,106.502c-0,-2.515 -0.948,-4.469 -2.843,-5.861c-1.895,-1.392 -5.199,-2.591 -9.912,-3.598c-4.712,-1.006 -8.452,-2.213 -11.219,-3.622c-2.768,-1.409 -4.814,-3.086 -6.139,-5.032c-1.325,-1.945 -1.987,-4.259 -1.987,-6.943c-0,-4.461 1.887,-8.234 5.66,-11.32c3.774,-3.086 8.595,-4.629 14.465,-4.629c6.172,0 11.178,1.593 15.019,4.78c3.84,3.186 5.76,7.262 5.76,12.226l-9.358,-0c0,-2.549 -1.082,-4.746 -3.245,-6.591c-2.163,-1.845 -4.889,-2.767 -8.176,-2.767c-3.388,-0 -6.037,0.738 -7.949,2.213c-1.912,1.476 -2.868,3.405 -2.868,5.786c-0,2.248 0.889,3.942 2.666,5.082c1.778,1.14 4.99,2.231 9.635,3.27c4.646,1.04 8.411,2.281 11.296,3.724c2.884,1.442 5.023,3.178 6.415,5.207c1.392,2.029 2.088,4.503 2.088,7.421c-0,4.864 -1.946,8.763 -5.837,11.698c-3.891,2.935 -8.939,4.402 -15.144,4.402c-4.36,0 -8.218,-0.771 -11.572,-2.314c-3.354,-1.543 -5.979,-3.698 -7.874,-6.465c-1.895,-2.768 -2.843,-5.761 -2.843,-8.981l9.308,-0c0.168,3.119 1.417,5.593 3.749,7.421c2.331,1.828 5.408,2.742 9.232,2.742c3.522,-0 6.348,-0.713 8.478,-2.138c2.13,-1.426 3.195,-3.329 3.195,-5.711Z" style="fill:#595959;fill-rule:nonzero;"/><path d="M469.55,53.321l-0,13.182l10.163,0l-0,7.195l-10.163,0l-0,33.803c-0,2.182 0.452,3.82 1.358,4.911c0.906,1.091 2.449,1.637 4.629,1.637c1.073,0 2.549,-0.201 4.427,-0.604l0,7.503c-2.448,0.667 -4.83,1 -7.144,1c-4.159,0 -7.296,-1.258 -9.409,-3.773c-2.113,-2.516 -3.169,-6.088 -3.169,-10.717l-0,-33.76l-9.912,0l-0,-7.195l9.912,0l-0,-13.182l9.308,0Z" style="fill:#595959;fill-rule:nonzero;"/><path d="M501.703,92.264l-0,28.678l-9.66,0l-0,-73.256l27.018,0c8.017,0 14.297,2.046 18.842,6.138c4.545,4.093 6.818,9.51 6.818,16.252c-0,7.11 -2.223,12.586 -6.667,16.427c-4.444,3.84 -10.809,5.761 -19.094,5.761l-17.257,-0Zm-0,-7.9l17.358,0c5.165,0 9.123,-1.218 11.874,-3.654c2.75,-2.436 4.126,-5.955 4.126,-10.559c-0,-4.368 -1.376,-7.862 -4.126,-10.483c-2.751,-2.621 -6.524,-3.982 -11.321,-4.083l-17.911,0l-0,28.779Z" style="fill:#00aefd;fill-rule:nonzero;"/><path d="M557.047,120.942l0,-73.256l20.679,0c6.373,0 12.008,1.409 16.905,4.227c4.897,2.817 8.679,6.825 11.346,12.024c2.666,5.199 4.016,11.17 4.05,17.912l-0,4.679c-0,6.91 -1.333,12.964 -4,18.163c-2.667,5.199 -6.474,9.19 -11.421,11.974c-4.948,2.784 -10.708,4.21 -17.283,4.277l-20.276,-0Zm9.66,-65.357l0,57.458l10.164,-0c7.446,-0 13.24,-2.317 17.383,-6.949c4.142,-4.633 6.213,-11.23 6.213,-19.791l0,-4.28c0,-8.326 -1.953,-14.796 -5.861,-19.413c-3.908,-4.616 -9.451,-6.957 -16.629,-7.025l-11.27,0Z" style="fill:#00aefd;fill-rule:nonzero;"/><path d="M665.019,88.591l-30.741,-0l-0,32.351l-9.66,-0l-0,-73.256l45.382,0l-0,7.899l-35.722,0l-0,25.107l30.741,-0l-0,7.899Z" style="fill:#00aefd;fill-rule:nonzero;"/></g></g></g><g><path d="M92.048,125.062c-22.513,9.571 -49.567,5.182 -67.913,-13.164c-24.116,-24.116 -24.116,-63.273 0,-87.388l0.274,-0.272l29.287,29.288c-7.578,7.405 -12.282,17.718 -12.282,29.116c0,22.518 18.358,40.8 40.97,40.8c2.923,-0 5.774,-0.306 8.524,-0.886c0.369,0.842 0.749,1.678 1.14,2.506Zm63.756,-9.259c6.6,-21.178 1.52,-45.226 -15.242,-61.988c-23.956,-23.956 -62.795,-24.052 -86.867,-0.29l-29.481,-29.482c14.901,-14.856 35.449,-24.043 58.125,-24.043c45.444,-0 82.339,36.895 82.339,82.339c0,12.428 -2.759,24.216 -7.698,34.786c-0.389,-0.446 -0.782,-0.887 -1.176,-1.322Zm-33.46,-24.124l0.019,-0.086l-0.014,0.065l-0.005,0.021Zm0.06,-0.27l-0.017,0.076l0.031,-0.138l-0.014,0.062Zm0.055,-0.249l-0.017,0.077l0.029,-0.138l-0.012,0.061Zm0.052,-0.25l-0.016,0.078l0.028,-0.137l-0.012,0.059Zm0.051,-0.251l-0.016,0.08l0.027,-0.136l-0.011,0.056Zm0.05,-0.251l-0.016,0.081l0.026,-0.135l-0.01,0.054Zm0.048,-0.252l-0.016,0.083l0.025,-0.135l-0.009,0.052Zm0.046,-0.252l-0.015,0.084l0.024,-0.134l-0.009,0.05Zm0.045,-0.253l-0.015,0.085l0.023,-0.133l-0.008,0.048Zm0.043,-0.253l-0.015,0.086l0.023,-0.132l-0.008,0.046Zm0.042,-0.254l-0.015,0.088l0.022,-0.132l-0.007,0.044Zm0.04,-0.254l-0.014,0.089l0.02,-0.131l-0.006,0.042Zm0.039,-0.255l-0.014,0.09l0.019,-0.13l-0.005,0.04Zm0.037,-0.256l-0.014,0.092l0.019,-0.13l-0.005,0.038Zm0.035,-0.255l-0.013,0.093l0.018,-0.13l-0.005,0.037Zm0.034,-0.257l-0.013,0.095l0.017,-0.13l-0.004,0.035Zm0.032,-0.257l-0.012,0.096l0.016,-0.129l-0.004,0.033Zm0.031,-0.257l-0.012,0.097l0.015,-0.128l-0.003,0.031Zm0.029,-0.258l-0.011,0.099l0.014,-0.128l-0.003,0.029Zm0.027,-0.258l-0.011,0.1l0.014,-0.128l-0.003,0.028Zm0.026,-0.259l-0.01,0.101l0.012,-0.127l-0.002,0.026Zm0.024,-0.259l-0.01,0.102l0.012,-0.127l-0.002,0.025Zm0.024,-0.283l-0.011,0.127l0.011,-0.127Zm0.019,-0.237l-0.008,0.105l0.01,-0.126l-0.002,0.021Zm0.019,-0.261l-0.007,0.106l0.009,-0.125l-0.002,0.019Zm0.018,-0.261l-0.007,0.107l0.008,-0.124l-0.001,0.017Zm0.016,-0.262l-0.007,0.109l0.008,-0.124l-0.001,0.015Zm0.014,-0.262l-0.006,0.11l0.007,-0.123l-0.001,0.013Zm0.013,-0.262l-0.005,0.11l0.005,-0.122l-0,0.012Zm0.011,-0.263l-0.005,0.111l0.005,-0.121l-0,0.01Zm0.009,-0.263l-0.004,0.11l0.004,-0.119l-0,0.009Zm0.008,-0.264l-0.003,0.11l0.003,-0.117l-0,0.007Zm0.006,-0.264l-0.003,0.107l0.003,-0.112l-0,0.005Zm0.004,-0.265l-0.002,0.102l0.002,-0.105l-0,0.003Zm-55.814,-38.563c-2.493,0.966 -4.867,2.169 -7.096,3.581c-2.228,1.411 -4.311,3.031 -6.22,4.832c3.818,-3.602 8.331,-6.48 13.316,-8.413Zm26.643,-1.047c0.39,0.117 0.779,0.239 1.164,0.368c0.386,0.128 0.768,0.261 1.149,0.4c-0.761,-0.278 -1.532,-0.534 -2.313,-0.768Zm-1.689,-0.466c0.127,0.032 0.253,0.065 0.38,0.098c0.126,0.033 0.253,0.067 0.38,0.102c-0.252,-0.069 -0.506,-0.136 -0.76,-0.2Zm-5.326,-0.978c0.866,0.1 1.723,0.228 2.571,0.381c0.848,0.153 1.687,0.333 2.517,0.537c-1.659,-0.409 -3.357,-0.717 -5.088,-0.918Zm-3.942,-0.267c-0.279,-0.006 -0.559,-0.008 -0.839,-0.008c0.28,-0 0.56,0.002 0.839,0.008l0.279,0.007l0.253,0.007l0.088,0.004l0.215,0.007c0.173,0.007 0.345,0.015 0.518,0.024l0.036,0.002l0.083,0.005l0.11,0.006l0.083,0.005l0.138,0.009l0.069,0.004l0.03,0.002l0.039,0.002l0.275,0.02l0.275,0.021l0.04,0.003l0.029,0.002l0.069,0.006l0.137,0.012l0.082,0.007l0.055,0.005l0.054,0.005l0.083,0.007l0.136,0.014l0.069,0.006l0.029,0.003c0.104,0.01 0.208,0.021 0.312,0.032l-0.312,-0.032l-0.098,-0.009l-0.219,-0.021l-0.109,-0.01l-0.219,-0.019l-0.098,-0.008l-0.315,-0.024l-0.314,-0.022l-0.099,-0.006l-0.221,-0.014l-0.11,-0.006l-0.119,-0.007l-0.733,-0.031l-0.341,-0.011l-0.279,-0.007Z" style="fill:#cbcbcb;"/><path d="M116.465,157.285c-10.398,4.747 -21.955,7.393 -34.126,7.393c-45.444,0 -82.339,-36.895 -82.339,-82.339c0,-22.617 9.139,-43.117 23.923,-58.005l0.194,0.194c-24.098,24.113 -24.093,63.259 0.018,87.37c18.348,18.348 45.403,22.671 67.913,13.101c5.842,12.372 14.202,23.397 24.417,32.286Zm5.879,-65.606c0.661,-2.907 1.01,-5.932 1.01,-9.037c0,-22.518 -18.358,-40.799 -40.97,-40.799c-11.315,0 -21.565,4.577 -28.981,11.972c24.052,-24.052 63.107,-24.052 87.159,0c16.762,16.762 21.842,40.81 15.242,61.987c-9.26,-10.223 -20.646,-18.496 -33.46,-24.123Z" style="fill:#929292;"/><path d="M98.807,99.129c36.988,-0.059 65.732,29.422 65.87,65.445l0.001,0.426c-36.355,0 -65.871,-29.516 -65.871,-65.871Z" style="fill:#8cd7fe;"/><path d="M102.283,120.228c40.669,-18.639 62.397,21.662 62.397,44.385c0,0.129 0,0.258 -0.002,0.387c-27.625,-0.156 -53.463,-17.849 -62.395,-44.772Z" style="fill:#00aefd;"/></g></svg>