<?xml version="1.0" encoding="UTF-8" standalone="no"?>
<!DOCTYPE svg PUBLIC "-//W3C//DTD SVG 1.1//EN" "http://www.w3.org/Graphics/SVG/1.1/DTD/svg11.dtd">
<svg width="100%" height="100%" viewBox="0 0 24 24" version="1.1" xmlns="http://www.w3.org/2000/svg" xmlns:xlink="http://www.w3.org/1999/xlink" xml:space="preserve" xmlns:serif="http://www.serif.com/" style="fill-rule:evenodd;clip-rule:evenodd;stroke-linejoin:round;stroke-miterlimit:2;">
    <g transform="matrix(1.33333,0,0,1.33333,-4,-4)">
        <path d="M5,3L19,3C20.1,3 21,3.89 21,5L21,19C21,19.53 20.79,20.04 20.41,20.41C20.04,20.79 19.53,21 19,21L5,21C4.47,21 3.96,20.79 3.59,20.41C3.21,20.04 3,19.53 3,19L3,5C3,3.89 3.89,3 5,3" style="fill:url(#_Linear1);fill-rule:nonzero;"/>
    </g>
    <g transform="matrix(1.50211,0,0,1.50229,-6.02528,-6.02754)">
        <path d="M11,7L13,7L13,13L11,13L11,7M11,15L13,15L13,17L11,17L11,15Z" style="fill:url(#_Linear2);fill-rule:nonzero;"/>
    </g>
    <defs>
        <linearGradient id="_Linear1" x1="0" y1="0" x2="1" y2="0" gradientUnits="userSpaceOnUse" gradientTransform="matrix(20.005,20.0025,-20.005,20.0025,1.9975,2)"><stop offset="0" style="stop-color:rgb(255,193,7);stop-opacity:0.25"/><stop offset="1" style="stop-color:rgb(255,152,0);stop-opacity:0.25"/></linearGradient>
        <linearGradient id="_Linear2" x1="0" y1="0" x2="1" y2="0" gradientUnits="userSpaceOnUse" gradientTransform="matrix(20.005,20.0025,-20.005,20.0025,1.9975,2)"><stop offset="0" style="stop-color:rgb(255,193,7);stop-opacity:1"/><stop offset="1" style="stop-color:rgb(255,152,0);stop-opacity:1"/></linearGradient>
    </defs>
</svg>
