<?xml version="1.0" encoding="UTF-8" standalone="no"?>
<!DOCTYPE svg PUBLIC "-//W3C//DTD SVG 1.1//EN" "http://www.w3.org/Graphics/SVG/1.1/DTD/svg11.dtd">
<svg width="100%" height="100%" viewBox="0 0 576 448" version="1.1" xmlns="http://www.w3.org/2000/svg" xmlns:xlink="http://www.w3.org/1999/xlink" xml:space="preserve" xmlns:serif="http://www.serif.com/" style="fill-rule:evenodd;clip-rule:evenodd;stroke-linejoin:round;stroke-miterlimit:2;">
    <g transform="matrix(1,0,0,1,0,-32)">
        <path d="M128,160L32,160C14.3,160 0,145.7 0,128L0,96C0,60.7 28.7,32 64,32C99.3,32 128,60.7 128,96L128,160ZM288,400L288,384C288,366.3 302.3,352 320,352L544,352C561.7,352 576,366.3 576,384C576,437 533,480 480,480L208,480C252.2,480 288,444.2 288,400Z" style="fill:url(#_Linear1);fill-rule:nonzero;"/>
    </g>
    <g transform="matrix(1,0,0,1,0,-32)">
        <path d="M128,96L128,400C128,444.2 163.8,480 208,480C252.2,480 288,444.2 288,400L288,384C288,366.3 302.3,352 320,352L480,352L480,96C480,60.7 451.3,32 416,32L64,32C99.3,32 128,60.7 128,96Z" style="fill:url(#_Linear2);fill-rule:nonzero;"/>
    </g>
    <g transform="matrix(0.904977,0,0,0.909091,34.3891,42.5455)">
        <rect x="183" y="116" width="221" height="44" style="fill:url(#_Linear3);"/>
    </g>
    <g transform="matrix(0.904977,0,0,0.909091,34.3891,122.545)">
        <rect x="183" y="116" width="221" height="44" style="fill:url(#_Linear4);"/>
    </g>
    <g transform="matrix(0.904977,0,0,0.909091,34.3891,-37.4545)">
        <rect x="183" y="116" width="221" height="44" style="fill:url(#_Linear5);"/>
    </g>
    <defs>
        <linearGradient id="_Linear1" x1="0" y1="0" x2="1" y2="0" gradientUnits="userSpaceOnUse" gradientTransform="matrix(576,448,-348.444,448,0,32)"><stop offset="0" style="stop-color:rgb(0,229,255);stop-opacity:1"/><stop offset="1" style="stop-color:rgb(41,121,255);stop-opacity:1"/></linearGradient>
        <linearGradient id="_Linear2" x1="0" y1="0" x2="1" y2="0" gradientUnits="userSpaceOnUse" gradientTransform="matrix(576,448,-348.444,448,0,32)"><stop offset="0" style="stop-color:rgb(0,229,255);stop-opacity:0.3"/><stop offset="1" style="stop-color:rgb(41,121,255);stop-opacity:0.3"/></linearGradient>
        <linearGradient id="_Linear3" x1="0" y1="0" x2="1" y2="0" gradientUnits="userSpaceOnUse" gradientTransform="matrix(636.48,492.8,-385.031,492.8,-38,-46.8)"><stop offset="0" style="stop-color:rgb(0,229,255);stop-opacity:1"/><stop offset="1" style="stop-color:rgb(41,121,255);stop-opacity:1"/></linearGradient>
        <linearGradient id="_Linear4" x1="0" y1="0" x2="1" y2="0" gradientUnits="userSpaceOnUse" gradientTransform="matrix(636.48,492.8,-385.031,492.8,-38,-134.8)"><stop offset="0" style="stop-color:rgb(0,229,255);stop-opacity:1"/><stop offset="1" style="stop-color:rgb(41,121,255);stop-opacity:1"/></linearGradient>
        <linearGradient id="_Linear5" x1="0" y1="0" x2="1" y2="0" gradientUnits="userSpaceOnUse" gradientTransform="matrix(636.48,492.8,-385.031,492.8,-38,41.2)"><stop offset="0" style="stop-color:rgb(0,229,255);stop-opacity:1"/><stop offset="1" style="stop-color:rgb(41,121,255);stop-opacity:1"/></linearGradient>
    </defs>
</svg>
