<?xml version="1.0" encoding="UTF-8" standalone="no"?>
<!DOCTYPE svg PUBLIC "-//W3C//DTD SVG 1.1//EN" "http://www.w3.org/Graphics/SVG/1.1/DTD/svg11.dtd">
<svg width="100%" height="100%" viewBox="0 0 640 512" version="1.1" xmlns="http://www.w3.org/2000/svg" xmlns:xlink="http://www.w3.org/1999/xlink" xml:space="preserve" xmlns:serif="http://www.serif.com/" style="fill-rule:evenodd;clip-rule:evenodd;stroke-linejoin:round;stroke-miterlimit:2;">
    <path d="M0,64C0,28.7 28.7,0 64,0L352,0C387.3,0 416,28.7 416,64L416,256C416,291.3 387.3,320 352,320L202.7,320L121.6,380.8C116.8,384.4 110.3,385 104.8,382.3C99.3,379.6 96,374.1 96,368L96,320L64,320C28.7,320 0,291.3 0,256L0,64ZM136.2,92.4L135.8,93.4C132.1,103.8 137.6,115.2 148,118.9C158.4,122.6 169.8,117.1 173.5,106.7L173.9,105.7C174.8,103 177.4,101.3 180.2,101.3L228.7,101.3C235.7,101.3 241.3,107 241.3,113.9C241.3,118.4 238.9,122.6 235,124.8L198,146.1C191.8,149.7 188,156.3 188,163.4L188,174.6C188,185.6 197,194.6 208,194.6C218.9,194.6 227.8,185.8 228,175L254.9,159.6C271.2,150.2 281.3,132.8 281.3,114C281.3,84.9 257.7,61.4 228.7,61.4L180.2,61.4C160.4,61.4 142.8,73.8 136.2,92.5L136.2,92.4ZM234.7,248C234.733,247.456 234.75,246.912 234.75,246.367C234.75,231.72 222.697,219.667 208.05,219.667C193.403,219.667 181.35,231.72 181.35,246.367C181.35,246.912 181.367,247.456 181.4,248C181.367,248.544 181.35,249.088 181.35,249.633C181.35,264.28 193.403,276.333 208.05,276.333C222.697,276.333 234.75,264.28 234.75,249.633C234.75,249.088 234.733,248.544 234.7,248Z" style="fill:url(#_Linear1);fill-rule:nonzero;"/>
    <path d="M256,352L352,352C405,352 448,309 448,256L448,128L576,128C611.3,128 640,156.7 640,192L640,384C640,419.3 611.3,448 576,448L544,448L544,496C544,502.1 540.6,507.6 535.2,510.3C529.8,513 523.3,512.4 518.4,508.8L437.3,448L320,448C284.7,448 256,419.3 256,384L256,352Z" style="fill:url(#_Linear2);fill-rule:nonzero;"/>
    <defs>
        <linearGradient id="_Linear1" x1="0" y1="0" x2="1" y2="0" gradientUnits="userSpaceOnUse" gradientTransform="matrix(640,512,-409.582,511.978,0,0)"><stop offset="0" style="stop-color:rgb(0,229,255);stop-opacity:1"/><stop offset="1" style="stop-color:rgb(41,121,255);stop-opacity:1"/></linearGradient>
        <linearGradient id="_Linear2" x1="0" y1="0" x2="1" y2="0" gradientUnits="userSpaceOnUse" gradientTransform="matrix(640,512,-409.582,511.978,0,0)"><stop offset="0" style="stop-color:rgb(0,229,255);stop-opacity:0.3"/><stop offset="1" style="stop-color:rgb(41,121,255);stop-opacity:0.3"/></linearGradient>
    </defs>
</svg>
