<?xml version="1.0" encoding="UTF-8" standalone="no"?><!DOCTYPE svg PUBLIC "-//W3C//DTD SVG 1.1//EN" "http://www.w3.org/Graphics/SVG/1.1/DTD/svg11.dtd"><svg width="100%" height="100%" viewBox="0 0 384 512" version="1.1" xmlns="http://www.w3.org/2000/svg" xmlns:xlink="http://www.w3.org/1999/xlink" xml:space="preserve" xmlns:serif="http://www.serif.com/" style="fill-rule:evenodd;clip-rule:evenodd;stroke-linejoin:round;stroke-miterlimit:2;"><g id="page"><path d="M384,96l0,385.28c0,16.955 -13.765,30.72 -30.72,30.72l-322.56,0c-16.955,0 -30.72,-13.765 -30.72,-30.72l0,-450.56c0,-16.955 13.765,-30.72 30.72,-30.72l257.28,0l96,96Z" style="fill:url(#_Linear1);"/><g><path d="M168,55.247l-0,27.506c-0,7.311 -5.936,13.247 -13.247,13.247l-99.506,-0c-7.311,-0 -13.247,-5.936 -13.247,-13.247l0,-27.506c0,-7.311 5.936,-13.247 13.247,-13.247l99.506,-0c7.311,-0 13.247,5.936 13.247,13.247Z" style="fill:#e94f4f;"/><path d="M59.859,86.18l0,-34.36l11.133,0c4.219,0 6.969,0.172 8.25,0.516c1.969,0.516 3.617,1.637 4.945,3.363c1.329,1.727 1.993,3.957 1.993,6.692c-0,2.109 -0.383,3.882 -1.149,5.32c-0.765,1.437 -1.738,2.566 -2.918,3.387c-1.179,0.82 -2.379,1.363 -3.597,1.629c-1.657,0.328 -4.055,0.492 -7.196,0.492l-4.523,-0l-0,12.961l-6.938,-0Zm6.938,-28.547l-0,9.75l3.797,-0c2.734,-0 4.562,-0.18 5.484,-0.539c0.922,-0.36 1.645,-0.922 2.168,-1.688c0.524,-0.765 0.785,-1.656 0.785,-2.672c0,-1.25 -0.367,-2.281 -1.101,-3.093c-0.735,-0.813 -1.664,-1.321 -2.789,-1.524c-0.829,-0.156 -2.493,-0.234 -4.993,-0.234l-3.351,-0Z" style="fill:#fff;fill-rule:nonzero;"/><path d="M91.852,51.82l12.679,0c2.86,0 5.039,0.219 6.539,0.657c2.016,0.593 3.742,1.648 5.18,3.164c1.437,1.515 2.531,3.371 3.281,5.566c0.75,2.195 1.125,4.902 1.125,8.121c0,2.828 -0.351,5.266 -1.054,7.313c-0.86,2.5 -2.086,4.523 -3.68,6.07c-1.203,1.172 -2.828,2.086 -4.875,2.742c-1.531,0.484 -3.578,0.727 -6.141,0.727l-13.054,-0l-0,-34.36Zm6.937,5.813l0,22.758l5.18,-0c1.937,-0 3.336,-0.11 4.195,-0.329c1.125,-0.281 2.059,-0.757 2.801,-1.429c0.742,-0.672 1.347,-1.778 1.816,-3.317c0.469,-1.539 0.703,-3.636 0.703,-6.293c0,-2.656 -0.234,-4.695 -0.703,-6.117c-0.469,-1.422 -1.125,-2.531 -1.969,-3.328c-0.843,-0.797 -1.914,-1.336 -3.21,-1.617c-0.969,-0.219 -2.868,-0.328 -5.696,-0.328l-3.117,-0Z" style="fill:#fff;fill-rule:nonzero;"/><path d="M126.586,86.18l-0,-34.36l23.555,0l-0,5.813l-16.618,-0l0,8.133l14.344,-0l0,5.812l-14.344,0l0,14.602l-6.937,-0Z" style="fill:#fff;fill-rule:nonzero;"/></g><path d="M288,-0l96,96l-76.8,-0c-10.62,-0 -19.2,-8.58 -19.2,-19.2l0,-76.8Z" style="fill:#ccc;fill-rule:nonzero;"/></g><g id="types"><g id="science" opacity="0"><path d="M43.734,151.766l6.75,-0.657c0.407,2.266 1.231,3.93 2.473,4.993c1.242,1.062 2.918,1.593 5.027,1.593c2.235,0 3.918,-0.472 5.051,-1.418c1.133,-0.945 1.699,-2.05 1.699,-3.316c0,-0.813 -0.238,-1.504 -0.714,-2.074c-0.477,-0.571 -1.309,-1.067 -2.497,-1.489c-0.812,-0.281 -2.664,-0.781 -5.554,-1.5c-3.719,-0.921 -6.328,-2.054 -7.828,-3.398c-2.11,-1.891 -3.164,-4.195 -3.164,-6.914c-0,-1.75 0.496,-3.387 1.488,-4.91c0.992,-1.524 2.422,-2.684 4.289,-3.481c1.867,-0.797 4.121,-1.195 6.762,-1.195c4.312,0 7.558,0.945 9.738,2.836c2.18,1.891 3.324,4.414 3.433,7.57l-6.937,0.305c-0.297,-1.766 -0.934,-3.035 -1.91,-3.809c-0.977,-0.773 -2.442,-1.16 -4.395,-1.16c-2.015,0 -3.593,0.414 -4.734,1.242c-0.734,0.532 -1.102,1.243 -1.102,2.133c0,0.813 0.344,1.508 1.032,2.086c0.875,0.735 3,1.5 6.375,2.297c3.375,0.797 5.871,1.621 7.488,2.473c1.617,0.851 2.883,2.015 3.797,3.492c0.914,1.476 1.371,3.301 1.371,5.473c-0,1.968 -0.547,3.812 -1.641,5.531c-1.094,1.719 -2.64,2.996 -4.64,3.832c-2,0.836 -4.493,1.254 -7.477,1.254c-4.344,-0 -7.68,-1.004 -10.008,-3.012c-2.328,-2.008 -3.718,-4.934 -4.172,-8.777Z" style="fill:#67676c;fill-rule:nonzero;"/><path d="M99.492,150.313l6.727,2.132c-1.032,3.75 -2.746,6.535 -5.145,8.356c-2.398,1.82 -5.441,2.73 -9.129,2.73c-4.562,0 -8.312,-1.558 -11.25,-4.676c-2.937,-3.117 -4.406,-7.378 -4.406,-12.785c0,-5.718 1.477,-10.16 4.43,-13.324c2.953,-3.164 6.836,-4.746 11.648,-4.746c4.203,0 7.617,1.242 10.242,3.727c1.563,1.468 2.735,3.578 3.516,6.328l-6.867,1.64c-0.406,-1.781 -1.254,-3.187 -2.543,-4.218c-1.289,-1.032 -2.856,-1.547 -4.699,-1.547c-2.547,-0 -4.614,0.914 -6.2,2.742c-1.586,1.828 -2.378,4.789 -2.378,8.883c-0,4.343 0.781,7.437 2.343,9.281c1.563,1.844 3.594,2.766 6.094,2.766c1.844,-0 3.43,-0.586 4.758,-1.758c1.328,-1.172 2.281,-3.016 2.859,-5.531Z" style="fill:#67676c;fill-rule:nonzero;"/><rect x="111.961" y="128.586" width="6.938" height="34.359" style="fill:#67676c;fill-rule:nonzero;"/><path d="M125.508,162.945l-0,-34.359l25.476,-0l0,5.812l-18.539,0l0,7.618l17.25,-0l0,5.789l-17.25,-0l0,9.351l19.196,0l-0,5.789l-26.133,0Z" style="fill:#67676c;fill-rule:nonzero;"/><path d="M157.594,162.945l-0,-34.359l6.75,-0l14.062,22.945l0,-22.945l6.446,-0l-0,34.359l-6.961,0l-13.852,-22.406l0,22.406l-6.445,0Z" style="fill:#67676c;fill-rule:nonzero;"/><path d="M214.172,150.313l6.726,2.132c-1.031,3.75 -2.746,6.535 -5.144,8.356c-2.399,1.82 -5.441,2.73 -9.129,2.73c-4.563,0 -8.313,-1.558 -11.25,-4.676c-2.938,-3.117 -4.406,-7.378 -4.406,-12.785c-0,-5.718 1.476,-10.16 4.429,-13.324c2.954,-3.164 6.836,-4.746 11.649,-4.746c4.203,0 7.617,1.242 10.242,3.727c1.563,1.468 2.734,3.578 3.516,6.328l-6.867,1.64c-0.407,-1.781 -1.254,-3.187 -2.543,-4.218c-1.29,-1.032 -2.856,-1.547 -4.7,-1.547c-2.547,-0 -4.613,0.914 -6.199,2.742c-1.586,1.828 -2.379,4.789 -2.379,8.883c0,4.343 0.781,7.437 2.344,9.281c1.562,1.844 3.594,2.766 6.094,2.766c1.843,-0 3.429,-0.586 4.758,-1.758c1.328,-1.172 2.281,-3.016 2.859,-5.531Z" style="fill:#67676c;fill-rule:nonzero;"/><path d="M226.852,162.945l-0,-34.359l25.476,-0l0,5.812l-18.539,0l0,7.618l17.25,-0l0,5.789l-17.25,-0l0,9.351l19.195,0l0,5.789l-26.132,0Z" style="fill:#67676c;fill-rule:nonzero;"/><path d="M125.253,300c6.313,-11.375 19.532,-15.406 36,-13.5c6.875,-16.281 17.375,-26.5 30.75,-26.5c13.375,0 23.875,10.219 30.75,26.5c16.469,-1.906 29.688,2.156 36,13.5c2.219,3.969 3.25,8.281 3.25,12.75c0,8.594 -3.843,17.938 -10.625,27.25c6.782,9.281 10.625,18.625 10.625,27.25c0,4.5 -1.031,8.781 -3.25,12.75c-6.312,11.375 -19.531,15.406 -36,13.5c-6.875,16.281 -17.406,26.5 -30.75,26.5c-13.343,0 -23.875,-10.219 -30.75,-26.5c-16.468,1.906 -29.687,-2.156 -36,-13.5c-6.468,-11.594 -2.937,-25.875 7.375,-40c-10.312,-14.125 -13.843,-28.406 -7.375,-40Zm55.844,-8.844c3.594,1.188 7.219,2.625 10.906,4.219c3.688,-1.594 7.344,-3 10.907,-4.219c-5.25,-10.562 -9.688,-11.156 -10.907,-11.156c-1.218,0 -5.656,0.594 -10.906,11.156Zm0,97.688c5.25,10.562 9.688,11.156 10.906,11.156c1.219,0 5.688,-0.594 10.907,-11.156c-3.594,-1.188 -7.219,-2.625 -10.907,-4.219c-3.687,1.594 -7.343,3 -10.906,4.219Zm35.906,-48.844c0,-13.715 -11.285,-25 -25,-25c-13.714,0 -25,11.285 -25,25c0,13.715 11.286,25 25,25c13.715,0 25,-11.285 25,-25Zm-35,0c0,-5.486 4.515,-10 10,-10c5.486,0 10,4.514 10,10c0,5.486 -4.514,10 -10,10c-5.485,0 -10,-4.514 -10,-10Zm-39.281,-30.281c-0.719,1.312 -2.156,5.594 3.719,15.031c2.125,-1.969 4.375,-3.906 6.75,-5.813c0.531,-4.468 1.219,-8.781 2.094,-12.875c-9.938,-0.406 -12.063,2.75 -12.563,3.657Zm0,60.562c0.5,0.938 2.625,4.094 12.563,3.656c-0.875,-4.125 -1.563,-8.437 -2.094,-12.875c-2.375,-1.906 -4.625,-3.843 -6.75,-5.812c-5.906,9.438 -4.438,13.719 -3.719,15.031Zm86,-64.187c0.875,4.125 1.563,8.406 2.094,12.875c2.375,1.906 4.625,3.844 6.75,5.812c5.906,-9.437 4.437,-13.719 3.719,-15.031c-0.5,-0.938 -2.625,-4.094 -12.563,-3.656Zm0,67.844c9.938,0.406 12.063,-2.75 12.563,-3.657c0.718,-1.281 2.187,-5.594 -3.719,-15.031c-2.125,1.969 -4.375,3.906 -6.75,5.813c-0.531,4.468 -1.219,8.781 -2.094,12.875Z" style="fill:#ccc;"/></g><g id="ticket" opacity="0"><path d="M52.195,162.945l0,-28.547l-10.195,0l0,-5.812l27.305,-0l-0,5.812l-10.172,0l-0,28.547l-6.938,0Z" style="fill:#67676c;fill-rule:nonzero;"/><rect x="73.57" y="128.586" width="6.938" height="34.359" style="fill:#67676c;fill-rule:nonzero;"/><path d="M109.102,150.313l6.726,2.132c-1.031,3.75 -2.746,6.535 -5.144,8.356c-2.399,1.82 -5.442,2.73 -9.129,2.73c-4.563,0 -8.313,-1.558 -11.25,-4.676c-2.938,-3.117 -4.407,-7.378 -4.407,-12.785c0,-5.718 1.477,-10.16 4.43,-13.324c2.953,-3.164 6.836,-4.746 11.649,-4.746c4.203,0 7.617,1.242 10.242,3.727c1.562,1.468 2.734,3.578 3.515,6.328l-6.867,1.64c-0.406,-1.781 -1.254,-3.187 -2.543,-4.218c-1.289,-1.032 -2.855,-1.547 -4.699,-1.547c-2.547,-0 -4.613,0.914 -6.199,2.742c-1.586,1.828 -2.379,4.789 -2.379,8.883c-0,4.343 0.781,7.437 2.344,9.281c1.562,1.844 3.593,2.766 6.093,2.766c1.844,-0 3.43,-0.586 4.758,-1.758c1.328,-1.172 2.281,-3.016 2.86,-5.531Z" style="fill:#67676c;fill-rule:nonzero;"/><path d="M121.875,162.945l0,-34.359l6.938,-0l-0,15.258l14.015,-15.258l9.328,-0l-12.937,13.383l13.64,20.976l-8.976,0l-9.445,-16.125l-5.625,5.743l-0,10.382l-6.938,0Z" style="fill:#67676c;fill-rule:nonzero;"/><path d="M156.445,162.945l0,-34.359l25.477,-0l-0,5.812l-18.539,0l-0,7.618l17.25,-0l-0,5.789l-17.25,-0l-0,9.351l19.195,0l0,5.789l-26.133,0Z" style="fill:#67676c;fill-rule:nonzero;"/><path d="M196.195,162.945l0,-28.547l-10.195,0l0,-5.812l27.305,-0l-0,5.812l-10.172,0l-0,28.547l-6.938,0Z" style="fill:#67676c;fill-rule:nonzero;"/><path d="M157.583,274.139l15.975,47.924l-31.389,0l-10.762,-14.349c-1.682,-2.242 -4.372,-3.587 -7.175,-3.587l-7.735,-0c-2.915,-0 -5.045,2.746 -4.372,5.549l7.062,28.138c0.337,1.401 0.337,2.915 0,4.372l-7.006,28.138c-0.729,2.803 1.457,5.549 4.372,5.549l7.679,0c2.803,0 5.493,-1.345 7.175,-3.587l10.762,-14.349l31.389,-0l-15.975,47.924c-0.953,2.915 1.177,5.886 4.26,5.886l17.432,-0c4.765,-0 9.193,-2.522 11.603,-6.67l27.522,-47.14l26.289,-0c9.024,-0 17.656,-3.588 23.99,-9.922c4.428,-4.428 4.428,-11.602 -0,-15.974c-6.334,-6.39 -14.966,-9.978 -23.99,-9.978l-26.289,0l-27.522,-47.14c-2.41,-4.148 -6.838,-6.67 -11.603,-6.67l-17.432,0c-3.083,0 -5.213,2.971 -4.26,5.886Z" style="fill:#ccc;fill-rule:nonzero;"/></g><g id="contract" opacity="0"><path d="M67.477,150.313l6.726,2.132c-1.031,3.75 -2.746,6.535 -5.144,8.356c-2.399,1.82 -5.442,2.73 -9.129,2.73c-4.563,0 -8.313,-1.558 -11.25,-4.676c-2.938,-3.117 -4.407,-7.378 -4.407,-12.785c0,-5.718 1.477,-10.16 4.43,-13.324c2.953,-3.164 6.836,-4.746 11.649,-4.746c4.203,0 7.617,1.242 10.242,3.727c1.562,1.468 2.734,3.578 3.515,6.328l-6.867,1.64c-0.406,-1.781 -1.254,-3.187 -2.543,-4.218c-1.289,-1.032 -2.855,-1.547 -4.699,-1.547c-2.547,-0 -4.613,0.914 -6.199,2.742c-1.586,1.828 -2.379,4.789 -2.379,8.883c-0,4.343 0.781,7.437 2.344,9.281c1.562,1.844 3.593,2.766 6.093,2.766c1.844,-0 3.43,-0.586 4.758,-1.758c1.328,-1.172 2.281,-3.016 2.86,-5.531Z" style="fill:#67676c;fill-rule:nonzero;"/><path d="M78.75,145.977c0,-3.5 0.523,-6.438 1.57,-8.813c0.782,-1.75 1.848,-3.32 3.2,-4.711c1.351,-1.39 2.832,-2.422 4.441,-3.094c2.141,-0.906 4.609,-1.359 7.406,-1.359c5.063,0 9.113,1.57 12.153,4.711c3.039,3.141 4.558,7.508 4.558,13.102c0,5.546 -1.508,9.886 -4.523,13.019c-3.016,3.133 -7.047,4.699 -12.094,4.699c-5.109,0 -9.172,-1.558 -12.188,-4.676c-3.015,-3.117 -4.523,-7.41 -4.523,-12.878Zm7.148,-0.235c0,3.891 0.899,6.84 2.696,8.848c1.797,2.008 4.078,3.012 6.843,3.012c2.766,-0 5.036,-0.997 6.809,-2.989c1.774,-1.992 2.66,-4.98 2.66,-8.965c0,-3.937 -0.863,-6.875 -2.59,-8.812c-1.726,-1.938 -4.019,-2.906 -6.879,-2.906c-2.859,-0 -5.164,0.98 -6.914,2.941c-1.75,1.961 -2.625,4.918 -2.625,8.871Z" style="fill:#67676c;fill-rule:nonzero;"/><path d="M117.563,162.945l-0.001,-34.359l6.751,-0l14.062,22.945l0,-22.945l6.445,-0l0,34.359l-6.961,0l-13.851,-22.406l-0,22.406l-6.445,0Z" style="fill:#67676c;fill-rule:nonzero;"/><path d="M159.891,162.945l-0,-28.547l-10.196,0l0,-5.812l27.305,-0l0,5.812l-10.172,0l0,28.547l-6.937,0Z" style="fill:#67676c;fill-rule:nonzero;"/><path d="M181.5,162.945l0,-34.359l14.602,-0c3.671,-0 6.339,0.309 8.003,0.926c1.665,0.617 2.997,1.715 3.997,3.293c1,1.578 1.5,3.383 1.5,5.414c-0,2.578 -0.758,4.707 -2.274,6.386c-1.516,1.68 -3.781,2.739 -6.797,3.176c1.5,0.875 2.739,1.836 3.715,2.883c0.977,1.047 2.293,2.906 3.949,5.578l4.196,6.703l-8.297,0l-5.016,-7.476c-1.781,-2.672 -3,-4.356 -3.656,-5.051c-0.656,-0.695 -1.352,-1.172 -2.086,-1.43c-0.734,-0.258 -1.899,-0.386 -3.492,-0.386l-1.407,-0l0,14.343l-6.937,0Zm6.937,-19.828l5.133,0c3.328,0 5.407,-0.14 6.235,-0.422c0.828,-0.281 1.476,-0.765 1.945,-1.453c0.469,-0.687 0.703,-1.547 0.703,-2.578c0,-1.156 -0.308,-2.09 -0.926,-2.801c-0.617,-0.711 -1.488,-1.16 -2.613,-1.347c-0.562,-0.078 -2.25,-0.118 -5.062,-0.118l-5.415,0l0,8.719Z" style="fill:#67676c;fill-rule:nonzero;"/><path d="M247.125,162.945l-7.547,0l-3,-7.804l-13.734,-0l-2.836,7.804l-7.36,0l13.383,-34.359l7.336,-0l13.758,34.359Zm-12.773,-13.593l-4.735,-12.75l-4.64,12.75l9.375,-0Z" style="fill:#67676c;fill-rule:nonzero;"/><path d="M272.789,150.313l6.727,2.132c-1.032,3.75 -2.746,6.535 -5.145,8.356c-2.398,1.82 -5.441,2.73 -9.129,2.73c-4.562,0 -8.312,-1.558 -11.25,-4.676c-2.937,-3.117 -4.406,-7.378 -4.406,-12.785c-0,-5.718 1.477,-10.16 4.43,-13.324c2.953,-3.164 6.836,-4.746 11.648,-4.746c4.203,0 7.617,1.242 10.242,3.727c1.563,1.468 2.735,3.578 3.516,6.328l-6.867,1.64c-0.407,-1.781 -1.254,-3.187 -2.543,-4.218c-1.289,-1.032 -2.856,-1.547 -4.7,-1.547c-2.546,-0 -4.613,0.914 -6.199,2.742c-1.586,1.828 -2.379,4.789 -2.379,8.883c0,4.343 0.782,7.437 2.344,9.281c1.563,1.844 3.594,2.766 6.094,2.766c1.844,-0 3.43,-0.586 4.758,-1.758c1.328,-1.172 2.281,-3.016 2.859,-5.531Z" style="fill:#67676c;fill-rule:nonzero;"/><path d="M293.203,162.945l0,-28.547l-10.195,0l-0,-5.812l27.304,-0l0,5.812l-10.171,0l-0,28.547l-6.938,0Z" style="fill:#67676c;fill-rule:nonzero;"/><path d="M106.305,376.407c-0,-3.562 2.865,-6.427 6.427,-6.427l10.712,-0l-0,10.578c-0,0.777 0.027,1.526 0.08,2.276l-10.792,0c-3.562,0 -6.427,-2.865 -6.427,-6.427Zm75.92,6.427c2.196,-4.204 4.178,-8.489 5.972,-12.854l83.071,-0c3.562,-0 6.427,2.865 6.427,6.427c0,3.562 -2.865,6.427 -6.427,6.427l-89.043,0Zm-15.934,-85.695c-4.74,0 -8.569,3.83 -8.569,8.57l-0,8.569c-0,4.74 -3.83,8.57 -8.57,8.57c-4.74,-0 -8.569,-3.83 -8.569,-8.57l-0,-8.569c-0,-14.194 11.515,-25.709 25.708,-25.709c14.194,0 25.709,11.515 25.709,25.709l-0,2.088c-0,5.571 -0.321,11.141 -0.964,16.684l32.778,-9.828c3.053,-0.911 6.374,-0.054 8.623,2.249c2.25,2.304 3,5.651 1.982,8.677l-4.82,14.434l22.388,0c4.74,0 8.569,3.83 8.569,8.57c0,4.74 -3.829,8.569 -8.569,8.569l-34.278,0c-2.759,0 -5.33,-1.312 -6.963,-3.561c-1.634,-2.25 -2.062,-5.115 -1.178,-7.713l3.347,-10.042l-25.28,7.578c-3.187,14.14 -8.462,27.717 -15.639,40.304l-3.723,6.507c-3.454,6.053 -9.882,9.775 -16.844,9.775c-10.712,-0 -19.416,-8.703 -19.416,-19.415l0,-19.255c0,-11.355 7.445,-21.37 18.318,-24.637l22.602,-6.776c1.285,-7.284 1.901,-14.702 1.901,-22.093l0,-2.089c0,-4.74 -3.829,-8.569 -8.569,-8.569l0.026,-0.027Zm2.089,52.033l-13.122,3.937c-3.615,1.071 -6.106,4.418 -6.106,8.194l0,19.255c0,1.259 1.018,2.276 2.277,2.276c0.803,0 1.58,-0.428 1.981,-1.151l3.723,-6.508c4.713,-8.248 8.489,-16.978 11.274,-26.03l-0.027,0.027Z" style="fill:#ccc;"/></g><g id="report" opacity="0"><path d="M45.516,162.945l-0,-34.359l14.601,-0c3.672,-0 6.34,0.309 8.004,0.926c1.664,0.617 2.996,1.715 3.996,3.293c1,1.578 1.5,3.383 1.5,5.414c0,2.578 -0.758,4.707 -2.273,6.386c-1.516,1.68 -3.781,2.739 -6.797,3.176c1.5,0.875 2.738,1.836 3.715,2.883c0.976,1.047 2.293,2.906 3.949,5.578l4.195,6.703l-8.297,0l-5.015,-7.476c-1.782,-2.672 -3,-4.356 -3.657,-5.051c-0.656,-0.695 -1.351,-1.172 -2.085,-1.43c-0.735,-0.258 -1.899,-0.386 -3.493,-0.386l-1.406,-0l0,14.343l-6.937,0Zm6.937,-19.828l5.133,0c3.328,0 5.406,-0.14 6.234,-0.422c0.828,-0.281 1.477,-0.765 1.946,-1.453c0.468,-0.687 0.703,-1.547 0.703,-2.578c-0,-1.156 -0.309,-2.09 -0.926,-2.801c-0.617,-0.711 -1.488,-1.16 -2.613,-1.347c-0.563,-0.078 -2.25,-0.118 -5.063,-0.118l-5.414,0l0,8.719Z" style="fill:#67676c;fill-rule:nonzero;"/><path d="M80.156,162.945l0,-34.359l25.477,-0l-0,5.812l-18.539,0l-0,7.618l17.25,-0l-0,5.789l-17.25,-0l-0,9.351l19.195,0l0,5.789l-26.133,0Z" style="fill:#67676c;fill-rule:nonzero;"/><path d="M112.172,162.945l-0,-34.359l11.133,-0c4.218,-0 6.968,0.172 8.25,0.516c1.968,0.515 3.617,1.636 4.945,3.363c1.328,1.726 1.992,3.957 1.992,6.691c0,2.11 -0.383,3.883 -1.148,5.321c-0.766,1.437 -1.739,2.566 -2.918,3.386c-1.18,0.821 -2.379,1.364 -3.598,1.629c-1.656,0.328 -4.055,0.492 -7.195,0.492l-4.524,0l0,12.961l-6.937,0Zm6.937,-28.547l0,9.75l3.797,0c2.735,0 4.563,-0.179 5.485,-0.539c0.922,-0.359 1.644,-0.921 2.168,-1.687c0.523,-0.766 0.785,-1.656 0.785,-2.672c-0,-1.25 -0.367,-2.281 -1.102,-3.094c-0.734,-0.812 -1.664,-1.32 -2.789,-1.523c-0.828,-0.156 -2.492,-0.235 -4.992,-0.235l-3.352,0Z" style="fill:#67676c;fill-rule:nonzero;"/><path d="M142.781,145.977c0,-3.5 0.524,-6.438 1.571,-8.813c0.781,-1.75 1.847,-3.32 3.199,-4.711c1.351,-1.39 2.832,-2.422 4.441,-3.094c2.141,-0.906 4.61,-1.359 7.406,-1.359c5.063,0 9.114,1.57 12.153,4.711c3.039,3.141 4.558,7.508 4.558,13.102c0,5.546 -1.507,9.886 -4.523,13.019c-3.016,3.133 -7.047,4.699 -12.094,4.699c-5.109,0 -9.172,-1.558 -12.187,-4.676c-3.016,-3.117 -4.524,-7.41 -4.524,-12.878Zm7.149,-0.235c-0,3.891 0.898,6.84 2.695,8.848c1.797,2.008 4.078,3.012 6.844,3.012c2.765,-0 5.035,-0.997 6.808,-2.989c1.774,-1.992 2.661,-4.98 2.661,-8.965c-0,-3.937 -0.864,-6.875 -2.59,-8.812c-1.727,-1.938 -4.02,-2.906 -6.879,-2.906c-2.86,-0 -5.164,0.98 -6.914,2.941c-1.75,1.961 -2.625,4.918 -2.625,8.871Z" style="fill:#67676c;fill-rule:nonzero;"/><path d="M181.547,162.945l-0,-34.359l14.601,-0c3.672,-0 6.34,0.309 8.004,0.926c1.664,0.617 2.996,1.715 3.996,3.293c1,1.578 1.5,3.383 1.5,5.414c0,2.578 -0.757,4.707 -2.273,6.386c-1.516,1.68 -3.781,2.739 -6.797,3.176c1.5,0.875 2.738,1.836 3.715,2.883c0.977,1.047 2.293,2.906 3.949,5.578l4.195,6.703l-8.296,0l-5.016,-7.476c-1.781,-2.672 -3,-4.356 -3.656,-5.051c-0.657,-0.695 -1.352,-1.172 -2.086,-1.43c-0.735,-0.258 -1.899,-0.386 -3.492,-0.386l-1.407,-0l0,14.343l-6.937,0Zm6.937,-19.828l5.133,0c3.328,0 5.406,-0.14 6.235,-0.422c0.828,-0.281 1.476,-0.765 1.945,-1.453c0.469,-0.687 0.703,-1.547 0.703,-2.578c-0,-1.156 -0.309,-2.09 -0.926,-2.801c-0.617,-0.711 -1.488,-1.16 -2.613,-1.347c-0.563,-0.078 -2.25,-0.118 -5.063,-0.118l-5.414,0l0,8.719Z" style="fill:#67676c;fill-rule:nonzero;"/><path d="M223.922,162.945l-0,-28.547l-10.195,0l-0,-5.812l27.304,-0l0,5.812l-10.172,0l0,28.547l-6.937,0Z" style="fill:#67676c;fill-rule:nonzero;"/><path d="M112,344.724c0,-35.813 26.601,-65.455 61.115,-70.179c2.716,-0.384 5.019,1.801 5.019,4.547l0,70.356l46.205,46.205c1.978,1.978 1.831,5.226 -0.443,6.82c-11.573,8.267 -25.745,13.109 -41.038,13.109c-39.12,-0 -70.858,-31.709 -70.858,-70.858Zm146.263,-9.448l-65.957,0l-0,-65.957c-0,-2.657 2.066,-4.901 4.724,-4.901c36.521,0 66.134,29.613 66.134,66.134c-0,2.657 -2.244,4.724 -4.901,4.724Zm9.152,14.172c2.746,-0 4.901,2.303 4.547,5.019c-2.274,16.504 -10.216,31.177 -21.819,42.013c-1.771,1.653 -4.546,1.535 -6.259,-0.207l-46.854,-46.825l70.385,-0Z" style="fill:#ccc;"/></g><g id="invoice" opacity="0"><rect x="45.281" y="128.586" width="6.938" height="34.359" style="fill:#67676c;fill-rule:nonzero;"/><path d="M58.898,162.945l0,-34.359l6.75,-0l14.063,22.945l-0,-22.945l6.445,-0l0,34.359l-6.961,0l-13.851,-22.406l-0,22.406l-6.446,0Z" style="fill:#67676c;fill-rule:nonzero;"/><path d="M102.258,162.945l-12.281,-34.359l7.523,-0l8.695,25.43l8.414,-25.43l7.36,-0l-12.305,34.359l-7.406,0Z" style="fill:#67676c;fill-rule:nonzero;"/><path d="M124.102,145.977c-0,-3.5 0.523,-6.438 1.57,-8.813c0.781,-1.75 1.848,-3.32 3.199,-4.711c1.352,-1.39 2.832,-2.422 4.441,-3.094c2.141,-0.906 4.61,-1.359 7.407,-1.359c5.062,0 9.113,1.57 12.152,4.711c3.039,3.141 4.559,7.508 4.559,13.102c-0,5.546 -1.508,9.886 -4.524,13.019c-3.015,3.133 -7.047,4.699 -12.094,4.699c-5.109,0 -9.171,-1.558 -12.187,-4.676c-3.016,-3.117 -4.523,-7.41 -4.523,-12.878Zm7.148,-0.235c-0,3.891 0.898,6.84 2.695,8.848c1.797,2.008 4.078,3.012 6.844,3.012c2.766,-0 5.035,-0.997 6.809,-2.989c1.773,-1.992 2.66,-4.98 2.66,-8.965c-0,-3.937 -0.863,-6.875 -2.59,-8.812c-1.727,-1.938 -4.02,-2.906 -6.879,-2.906c-2.859,-0 -5.164,0.98 -6.914,2.941c-1.75,1.961 -2.625,4.918 -2.625,8.871Z" style="fill:#67676c;fill-rule:nonzero;"/><rect x="162.633" y="128.586" width="6.938" height="34.359" style="fill:#67676c;fill-rule:nonzero;"/><path d="M198.164,150.313l6.727,2.132c-1.032,3.75 -2.746,6.535 -5.145,8.356c-2.398,1.82 -5.441,2.73 -9.129,2.73c-4.562,0 -8.312,-1.558 -11.25,-4.676c-2.937,-3.117 -4.406,-7.378 -4.406,-12.785c-0,-5.718 1.476,-10.16 4.43,-13.324c2.953,-3.164 6.836,-4.746 11.648,-4.746c4.203,0 7.617,1.242 10.242,3.727c1.563,1.468 2.735,3.578 3.516,6.328l-6.867,1.64c-0.407,-1.781 -1.254,-3.187 -2.543,-4.218c-1.289,-1.032 -2.856,-1.547 -4.7,-1.547c-2.546,-0 -4.613,0.914 -6.199,2.742c-1.586,1.828 -2.379,4.789 -2.379,8.883c0,4.343 0.782,7.437 2.344,9.281c1.563,1.844 3.594,2.766 6.094,2.766c1.844,-0 3.43,-0.586 4.758,-1.758c1.328,-1.172 2.281,-3.016 2.859,-5.531Z" style="fill:#67676c;fill-rule:nonzero;"/><path d="M210.844,162.945l-0,-34.359l25.476,-0l0,5.812l-18.539,0l0,7.618l17.25,-0l0,5.789l-17.25,-0l0,9.351l19.196,0l-0,5.789l-26.133,0Z" style="fill:#67676c;fill-rule:nonzero;"/><path d="M181.575,402.851c-0.144,-0.021 -0.288,-0.042 -0.432,-0.064l-0.066,0c-8.102,-1.262 -21.416,-4.748 -30.381,-8.732c-5.379,-2.391 -7.77,-8.666 -5.379,-14.012c2.391,-5.346 8.666,-7.77 14.012,-5.379c6.939,3.088 18.361,6.109 24.968,7.172c10.592,1.56 19.325,0.664 25.235,-1.76c5.611,-2.291 8.168,-5.611 8.898,-9.596c0.631,-3.519 0.133,-5.544 -0.431,-6.773c-0.631,-1.328 -1.86,-2.789 -4.317,-4.416c-5.445,-3.553 -13.779,-5.877 -24.57,-8.732c-0.299,-0.067 -0.598,-0.166 -0.93,-0.233c-9.463,-2.59 -21.084,-5.678 -29.717,-11.322c-4.714,-3.088 -9.13,-7.305 -11.886,-13.149c-2.789,-5.943 -3.354,-12.584 -2.026,-19.656c2.391,-12.683 11.887,-20.918 22.678,-25.201c10.758,-4.283 23.939,-5.279 37.154,-3.32c0.133,0.033 0.233,0.033 0.366,0.066l15.937,2.922c5.777,1.063 9.596,6.607 8.533,12.352c-1.062,5.744 -6.607,9.595 -12.351,8.533l-15.772,-2.889c-10.392,-1.527 -19.556,-0.498 -25.998,2.059l0,0.033c-6.441,2.557 -9.031,6.076 -9.629,9.33c-0.664,3.553 -0.166,5.545 0.399,6.773c0.597,1.295 1.826,2.756 4.25,4.383c5.412,3.553 13.713,5.877 24.47,8.733c0.299,0.099 0.631,0.166 0.963,0.265c9.496,2.524 21.117,5.578 29.75,11.223c4.715,3.088 9.164,7.271 11.92,13.115c2.822,5.944 3.42,12.584 2.125,19.656c-2.291,12.618 -10.99,21.051 -21.781,25.467c-4.531,1.85 -9.503,3.043 -14.742,3.645l-0,11.031c-0,5.877 -4.748,10.625 -10.625,10.625c-5.877,0 -10.625,-4.748 -10.625,-10.625l-0,-11.524Zm-0,-137.226c-0,-5.877 4.748,-10.625 10.625,-10.625c5.877,0 10.625,4.748 10.625,10.625l-0,11.82c-7.272,-0.929 -14.477,-0.996 -21.25,-0.099l-0,-11.721Z" style="fill:#ccc;"/></g><g id="exam" opacity="0"><path d="M45.492,162.945l0,-34.359l25.477,-0l-0,5.812l-18.539,0l-0,7.618l17.25,-0l-0,5.789l-17.25,-0l-0,9.351l19.195,0l0,5.789l-26.133,0Z" style="fill:#67676c;fill-rule:nonzero;"/><path d="M74.016,162.945l11.742,-17.929l-10.641,-16.43l8.11,-0l6.89,11.039l6.75,-11.039l8.039,-0l-10.687,16.687l11.742,17.672l-8.367,0l-7.617,-11.882l-7.641,11.882l-8.32,0Z" style="fill:#67676c;fill-rule:nonzero;"/><path d="M140.508,162.945l-7.547,0l-3,-7.804l-13.734,-0l-2.836,7.804l-7.36,0l13.383,-34.359l7.336,-0l13.758,34.359Zm-12.774,-13.593l-4.734,-12.75l-4.641,12.75l9.375,-0Z" style="fill:#67676c;fill-rule:nonzero;"/><path d="M144.094,162.945l-0,-34.359l10.383,-0l6.234,23.437l6.164,-23.437l10.406,-0l0,34.359l-6.445,0l-0,-27.047l-6.82,27.047l-6.68,0l-6.797,-27.047l0,27.047l-6.445,0Z" style="fill:#67676c;fill-rule:nonzero;"/><path d="M192,246.667c-15.24,-0 -28.219,9.734 -32.995,23.333l-13.672,0c-12.869,0 -23.333,10.464 -23.333,23.333l-0,116.667c-0,12.87 10.464,23.333 23.333,23.333l93.334,0c12.869,0 23.333,-10.463 23.333,-23.333l0,-116.667c0,-12.869 -10.464,-23.333 -23.333,-23.333l-13.672,0c-4.776,-13.599 -17.755,-23.333 -32.995,-23.333Zm-0,23.333c6.4,0 11.667,5.267 11.667,11.667c-0,6.4 -5.267,11.666 -11.667,11.666c-6.4,0 -11.667,-5.266 -11.667,-11.666c0,-6.4 5.267,-11.667 11.667,-11.667Zm-1.714,48.38c2.261,2.261 2.261,5.979 0,8.24l-23.333,23.333c-2.26,2.261 -5.979,2.261 -8.239,0l-11.667,-11.667c-2.261,-2.26 -2.261,-5.979 -0,-8.239c2.26,-2.261 5.979,-2.261 8.239,-0l7.547,7.547l19.214,-19.214c2.26,-2.26 5.979,-2.26 8.239,0Zm1.714,27.453c-0,-3.208 2.625,-5.833 5.833,-5.833l35,0c3.209,0 5.834,2.625 5.834,5.833c-0,3.209 -2.625,5.834 -5.834,5.834l-35,-0c-3.208,-0 -5.833,-2.625 -5.833,-5.834Zm-5.833,29.167l46.666,-0c3.209,-0 5.834,2.625 5.834,5.833c-0,3.209 -2.625,5.834 -5.834,5.834l-46.666,-0c-3.209,-0 -5.834,-2.625 -5.834,-5.834c0,-3.208 2.625,-5.833 5.834,-5.833Zm-37.917,5.833c-0,-4.8 3.95,-8.75 8.75,-8.75c4.8,0 8.75,3.95 8.75,8.75c-0,4.8 -3.95,8.75 -8.75,8.75c-4.8,0 -8.75,-3.95 -8.75,-8.75Z" style="fill:#ccc;fill-rule:nonzero;"/></g><g id="docs" opacity="0"><path d="M45.469,128.586l12.679,-0c2.86,-0 5.039,0.219 6.539,0.656c2.016,0.594 3.743,1.649 5.18,3.164c1.438,1.516 2.531,3.371 3.281,5.567c0.75,2.195 1.125,4.902 1.125,8.121c0,2.828 -0.351,5.265 -1.054,7.312c-0.86,2.5 -2.086,4.524 -3.68,6.071c-1.203,1.171 -2.828,2.085 -4.875,2.742c-1.531,0.484 -3.578,0.726 -6.141,0.726l-13.054,0l-0,-34.359Zm6.937,5.812l0,22.758l5.18,0c1.937,0 3.336,-0.109 4.195,-0.328c1.125,-0.281 2.059,-0.758 2.801,-1.43c0.742,-0.671 1.348,-1.777 1.816,-3.316c0.469,-1.539 0.704,-3.637 0.704,-6.293c-0,-2.656 -0.235,-4.695 -0.704,-6.117c-0.468,-1.422 -1.125,-2.531 -1.968,-3.328c-0.844,-0.797 -1.914,-1.336 -3.211,-1.617c-0.969,-0.219 -2.867,-0.329 -5.696,-0.329l-3.117,0Z" style="fill:#67676c;fill-rule:nonzero;"/><path d="M78.75,145.977c0,-3.5 0.523,-6.438 1.57,-8.813c0.782,-1.75 1.848,-3.32 3.2,-4.711c1.351,-1.39 2.832,-2.422 4.441,-3.094c2.141,-0.906 4.609,-1.359 7.406,-1.359c5.063,0 9.113,1.57 12.153,4.711c3.039,3.141 4.558,7.508 4.558,13.102c0,5.546 -1.508,9.886 -4.523,13.019c-3.016,3.133 -7.047,4.699 -12.094,4.699c-5.109,0 -9.172,-1.558 -12.188,-4.676c-3.015,-3.117 -4.523,-7.41 -4.523,-12.878Zm7.148,-0.235c0,3.891 0.899,6.84 2.696,8.848c1.797,2.008 4.078,3.012 6.843,3.012c2.766,-0 5.036,-0.997 6.809,-2.989c1.774,-1.992 2.66,-4.98 2.66,-8.965c0,-3.937 -0.863,-6.875 -2.59,-8.812c-1.726,-1.938 -4.019,-2.906 -6.879,-2.906c-2.859,-0 -5.164,0.98 -6.914,2.941c-1.75,1.961 -2.625,4.918 -2.625,8.871Z" style="fill:#67676c;fill-rule:nonzero;"/><path d="M139.477,150.313l6.726,2.132c-1.031,3.75 -2.746,6.535 -5.144,8.356c-2.399,1.82 -5.442,2.73 -9.129,2.73c-4.563,0 -8.313,-1.558 -11.25,-4.676c-2.938,-3.117 -4.407,-7.378 -4.407,-12.785c0,-5.718 1.477,-10.16 4.43,-13.324c2.953,-3.164 6.836,-4.746 11.649,-4.746c4.203,0 7.617,1.242 10.242,3.727c1.562,1.468 2.734,3.578 3.515,6.328l-6.867,1.64c-0.406,-1.781 -1.254,-3.187 -2.543,-4.218c-1.289,-1.032 -2.855,-1.547 -4.699,-1.547c-2.547,-0 -4.613,0.914 -6.199,2.742c-1.586,1.828 -2.379,4.789 -2.379,8.883c-0,4.343 0.781,7.437 2.344,9.281c1.562,1.844 3.593,2.766 6.093,2.766c1.844,-0 3.43,-0.586 4.758,-1.758c1.328,-1.172 2.281,-3.016 2.86,-5.531Z" style="fill:#67676c;fill-rule:nonzero;"/><path d="M150.398,151.766l6.75,-0.657c0.407,2.266 1.231,3.93 2.473,4.993c1.242,1.062 2.918,1.593 5.027,1.593c2.235,0 3.918,-0.472 5.051,-1.418c1.133,-0.945 1.699,-2.05 1.699,-3.316c0,-0.813 -0.238,-1.504 -0.714,-2.074c-0.477,-0.571 -1.309,-1.067 -2.496,-1.489c-0.813,-0.281 -2.665,-0.781 -5.555,-1.5c-3.719,-0.921 -6.328,-2.054 -7.828,-3.398c-2.11,-1.891 -3.164,-4.195 -3.164,-6.914c-0,-1.75 0.496,-3.387 1.488,-4.91c0.992,-1.524 2.422,-2.684 4.289,-3.481c1.867,-0.797 4.121,-1.195 6.762,-1.195c4.312,0 7.558,0.945 9.738,2.836c2.18,1.891 3.324,4.414 3.434,7.57l-6.938,0.305c-0.297,-1.766 -0.934,-3.035 -1.91,-3.809c-0.977,-0.773 -2.441,-1.16 -4.395,-1.16c-2.015,0 -3.593,0.414 -4.734,1.242c-0.734,0.532 -1.102,1.243 -1.102,2.133c0,0.813 0.344,1.508 1.032,2.086c0.875,0.735 3,1.5 6.375,2.297c3.375,0.797 5.871,1.621 7.488,2.473c1.617,0.851 2.883,2.015 3.797,3.492c0.914,1.476 1.371,3.301 1.371,5.473c-0,1.968 -0.547,3.812 -1.641,5.531c-1.093,1.719 -2.64,2.996 -4.64,3.832c-2,0.836 -4.493,1.254 -7.477,1.254c-4.344,-0 -7.68,-1.004 -10.008,-3.012c-2.328,-2.008 -3.718,-4.934 -4.172,-8.777Z" style="fill:#67676c;fill-rule:nonzero;"/><path d="M188,283.669l0,94l-52,-10l0,-83.325c0,-4.95 4.45,-8.725 9.325,-7.9l42.675,7.225Zm-53.575,93.275l57.575,11.525l57.575,-11.525c3.75,-0.75 6.425,-4.025 6.425,-7.85l0,-86.25l6.425,-1.275c4.95,-0.975 9.575,2.8 9.575,7.85l0,91.675c0,3.825 -2.7,7.1 -6.425,7.85l-73.575,14.725l-73.575,-14.725c-3.725,-0.725 -6.425,-4.025 -6.425,-7.825l0,-91.7c0,-5.05 4.625,-8.825 9.575,-7.825l6.425,1.275l0,86.25c0,3.825 2.7,7.1 6.425,7.85l0,-0.025Zm61.575,0.725l0,-94l42.675,-7.225c4.875,-0.825 9.325,2.95 9.325,7.9l0,83.325l-52,10Z" style="fill:#ccc;fill-rule:nonzero;"/></g><g id="certificate" opacity="0"><path d="M67.477,150.313l6.726,2.132c-1.031,3.75 -2.746,6.535 -5.144,8.356c-2.399,1.82 -5.442,2.73 -9.129,2.73c-4.563,0 -8.313,-1.558 -11.25,-4.676c-2.938,-3.117 -4.407,-7.378 -4.407,-12.785c0,-5.718 1.477,-10.16 4.43,-13.324c2.953,-3.164 6.836,-4.746 11.649,-4.746c4.203,0 7.617,1.242 10.242,3.727c1.562,1.468 2.734,3.578 3.515,6.328l-6.867,1.64c-0.406,-1.781 -1.254,-3.187 -2.543,-4.218c-1.289,-1.032 -2.855,-1.547 -4.699,-1.547c-2.547,-0 -4.613,0.914 -6.199,2.742c-1.586,1.828 -2.379,4.789 -2.379,8.883c-0,4.343 0.781,7.437 2.344,9.281c1.562,1.844 3.593,2.766 6.093,2.766c1.844,-0 3.43,-0.586 4.758,-1.758c1.328,-1.172 2.281,-3.016 2.86,-5.531Z" style="fill:#67676c;fill-opacity:0.98;fill-rule:nonzero;"/><path d="M80.156,162.945l0,-34.359l25.477,-0l-0,5.812l-18.539,0l-0,7.618l17.25,-0l-0,5.789l-17.25,-0l-0,9.351l19.195,0l0,5.789l-26.133,0Z" style="fill:#67676c;fill-opacity:0.98;fill-rule:nonzero;"/><path d="M112.195,162.945l0,-34.359l14.602,-0c3.672,-0 6.34,0.309 8.004,0.926c1.664,0.617 2.996,1.715 3.996,3.293c1,1.578 1.5,3.383 1.5,5.414c-0,2.578 -0.758,4.707 -2.274,6.386c-1.515,1.68 -3.781,2.739 -6.796,3.176c1.5,0.875 2.738,1.836 3.714,2.883c0.977,1.047 2.293,2.906 3.95,5.578l4.195,6.703l-8.297,0l-5.016,-7.476c-1.781,-2.672 -3,-4.356 -3.656,-5.051c-0.656,-0.695 -1.351,-1.172 -2.086,-1.43c-0.734,-0.258 -1.898,-0.386 -3.492,-0.386l-1.406,-0l-0,14.343l-6.938,0Zm6.938,-19.828l5.133,0c3.328,0 5.406,-0.14 6.234,-0.422c0.828,-0.281 1.477,-0.765 1.945,-1.453c0.469,-0.687 0.703,-1.547 0.703,-2.578c0,-1.156 -0.308,-2.09 -0.925,-2.801c-0.618,-0.711 -1.489,-1.16 -2.614,-1.347c-0.562,-0.078 -2.25,-0.118 -5.062,-0.118l-5.414,0l-0,8.719Z" style="fill:#67676c;fill-opacity:0.98;fill-rule:nonzero;"/><path d="M154.57,162.945l0,-28.547l-10.195,0l0,-5.812l27.305,-0l-0,5.812l-10.172,0l-0,28.547l-6.938,0Z" style="fill:#67676c;fill-opacity:0.98;fill-rule:nonzero;"/><rect x="175.945" y="128.586" width="6.938" height="34.359" style="fill:#67676c;fill-opacity:0.98;fill-rule:nonzero;"/><path d="M189.539,162.945l0,-34.359l23.555,-0l-0,5.812l-16.617,0l-0,8.133l14.343,0l0,5.813l-14.343,-0l-0,14.601l-6.938,0Z" style="fill:#67676c;fill-opacity:0.98;fill-rule:nonzero;"/><rect x="218.602" y="128.586" width="6.938" height="34.359" style="fill:#67676c;fill-opacity:0.98;fill-rule:nonzero;"/><path d="M254.133,150.313l6.726,2.132c-1.031,3.75 -2.746,6.535 -5.144,8.356c-2.399,1.82 -5.442,2.73 -9.129,2.73c-4.563,0 -8.313,-1.558 -11.25,-4.676c-2.938,-3.117 -4.406,-7.378 -4.406,-12.785c-0,-5.718 1.476,-10.16 4.429,-13.324c2.953,-3.164 6.836,-4.746 11.649,-4.746c4.203,0 7.617,1.242 10.242,3.727c1.562,1.468 2.734,3.578 3.516,6.328l-6.868,1.64c-0.406,-1.781 -1.253,-3.187 -2.543,-4.218c-1.289,-1.032 -2.855,-1.547 -4.699,-1.547c-2.547,-0 -4.613,0.914 -6.199,2.742c-1.586,1.828 -2.379,4.789 -2.379,8.883c0,4.343 0.781,7.437 2.344,9.281c1.562,1.844 3.594,2.766 6.094,2.766c1.843,-0 3.429,-0.586 4.757,-1.758c1.329,-1.172 2.282,-3.016 2.86,-5.531Z" style="fill:#67676c;fill-opacity:0.98;fill-rule:nonzero;"/><path d="M297.797,162.945l-7.547,0l-3,-7.804l-13.734,-0l-2.836,7.804l-7.36,0l13.383,-34.359l7.336,-0l13.758,34.359Zm-12.774,-13.593l-4.734,-12.75l-4.641,12.75l9.375,-0Z" style="fill:#67676c;fill-opacity:0.98;fill-rule:nonzero;"/><path d="M305.648,162.945l0,-28.547l-10.195,0l0,-5.812l27.305,-0l-0,5.812l-10.172,0l-0,28.547l-6.938,0Z" style="fill:#67676c;fill-opacity:0.98;fill-rule:nonzero;"/><path d="M327.234,162.945l0,-34.359l25.477,-0l-0,5.812l-18.539,0l-0,7.618l17.25,-0l-0,5.789l-17.25,-0l-0,9.351l19.195,0l0,5.789l-26.133,0Z" style="fill:#67676c;fill-opacity:0.98;fill-rule:nonzero;"/><path d="M182.902,255.866c-4.827,-1.979 -10.378,-0.482 -13.564,3.62l-5.068,6.517c-0.627,0.82 -1.544,1.303 -2.51,1.448l-8.157,1.11c-5.165,0.724 -9.219,4.778 -9.895,9.895l-1.11,8.157c-0.145,1.014 -0.676,1.931 -1.448,2.51l-6.565,5.116c-4.102,3.186 -5.599,8.737 -3.62,13.564l3.089,7.626c0.387,0.917 0.387,1.979 0,2.944l-3.089,7.578c-1.979,4.827 -0.482,10.378 3.62,13.564l6.517,5.068c0.82,0.627 1.303,1.544 1.448,2.51l1.11,8.157c0.724,5.165 4.778,9.219 9.895,9.943l7.529,1.014l0,51.067c0,2.848 1.545,5.454 4.103,6.806c2.558,1.351 5.551,1.207 7.916,-0.386l18.873,-12.598l18.873,12.598c2.365,1.593 5.406,1.737 7.916,0.386c2.509,-1.352 4.102,-3.958 4.102,-6.806l0,-51.067l7.482,-1.014c5.164,-0.724 9.219,-4.778 9.895,-9.943l1.11,-8.157c0.145,-1.014 0.676,-1.931 1.448,-2.51l6.516,-5.068c4.103,-3.186 5.599,-8.737 3.62,-13.564l-3.041,-7.626c-0.386,-0.917 -0.386,-1.979 0,-2.944l3.138,-7.627c1.979,-4.826 0.482,-10.377 -3.62,-13.563l-6.517,-5.068c-0.82,-0.628 -1.303,-1.545 -1.448,-2.51l-1.11,-8.157c-0.724,-5.165 -4.778,-9.219 -9.895,-9.895l-8.157,-1.11c-1.014,-0.145 -1.931,-0.676 -2.51,-1.448l-5.068,-6.517c-3.186,-4.102 -8.736,-5.599 -13.563,-3.62l-7.723,3.09c-0.917,0.386 -1.979,0.386 -2.944,-0l-7.627,-3.138l0.049,0.048Zm-21.818,61.011c0,-16.947 13.945,-30.891 30.892,-30.891c16.946,-0 30.891,13.944 30.891,30.891c0,16.947 -13.945,30.891 -30.891,30.891c-16.947,0 -30.892,-13.944 -30.892,-30.891Z" style="fill:#ccc;fill-rule:nonzero;"/></g><g id="productCatalog" opacity="0"><path d="M112,305c0,-8.281 6.719,-15 15,-15l40,0c8.281,0 15,6.719 15,15l0,35c0,8.281 -6.719,15 -15,15l-40,0c-8.281,0 -15,-6.719 -15,-15l0,-35Zm0,75c0,-8.281 6.719,-15 15,-15l40,0c8.281,0 15,6.719 15,15l0,35c0,8.281 -6.719,15 -15,15l-40,0c-8.281,0 -15,-6.719 -15,-15l0,-35Zm95,-90l50,0c8.281,0 15,6.719 15,15l0,10c0,8.281 -6.719,15 -15,15l-50,0c-8.281,0 -15,-6.719 -15,-15l0,-10c0,-8.281 6.719,-15 15,-15Zm-15,65c0,-8.281 6.719,-15 15,-15l50,0c8.281,0 15,6.719 15,15l0,10c0,8.281 -6.719,15 -15,15l-50,0c-8.281,0 -15,-6.719 -15,-15l0,-10Zm15,35l50,0c8.281,0 15,6.719 15,15l0,10c0,8.281 -6.719,15 -15,15l-50,0c-8.281,0 -15,-6.719 -15,-15l0,-10c0,-8.281 6.719,-15 15,-15Z" style="fill:#ccc;fill-rule:nonzero;"/><g transform="matrix(1,0,0,1,-130.177,-33.0547)"><g transform="matrix(48,0,0,48,172.177,196)"><path d="M0.073,-0l-0,-0.716l0.232,0c0.088,0 0.145,0.004 0.172,0.011c0.041,0.011 0.075,0.034 0.103,0.07c0.027,0.036 0.041,0.082 0.041,0.139c0,0.044 -0.008,0.081 -0.024,0.111c-0.016,0.03 -0.036,0.054 -0.061,0.071c-0.024,0.017 -0.049,0.028 -0.075,0.034c-0.034,0.007 -0.084,0.01 -0.149,0.01l-0.095,-0l0,0.27l-0.144,-0Zm0.144,-0.595l0,0.203l0.079,0c0.057,0 0.095,-0.003 0.115,-0.011c0.019,-0.007 0.034,-0.019 0.045,-0.035c0.011,-0.016 0.016,-0.034 0.016,-0.056c0,-0.026 -0.007,-0.047 -0.023,-0.064c-0.015,-0.017 -0.034,-0.028 -0.058,-0.032c-0.017,-0.003 -0.052,-0.005 -0.104,-0.005l-0.07,0Z" style="fill:#67676c;fill-rule:nonzero;"/></g><g transform="matrix(48,0,0,48,204.193,196)"><path d="M0.073,-0l0,-0.716l0.304,0c0.077,0 0.133,0.007 0.167,0.019c0.035,0.013 0.063,0.036 0.083,0.069c0.021,0.033 0.032,0.071 0.032,0.113c-0,0.054 -0.016,0.098 -0.048,0.133c-0.031,0.035 -0.078,0.057 -0.141,0.066c0.031,0.018 0.057,0.038 0.077,0.06c0.02,0.022 0.048,0.061 0.082,0.116l0.088,0.14l-0.173,-0l-0.105,-0.156c-0.037,-0.055 -0.062,-0.091 -0.076,-0.105c-0.013,-0.014 -0.028,-0.024 -0.043,-0.03c-0.015,-0.005 -0.04,-0.008 -0.073,-0.008l-0.029,0l-0,0.299l-0.145,-0Zm0.145,-0.413l0.107,-0c0.069,-0 0.112,-0.003 0.13,-0.009c0.017,-0.006 0.03,-0.016 0.04,-0.03c0.01,-0.014 0.015,-0.032 0.015,-0.054c-0,-0.024 -0.007,-0.043 -0.02,-0.058c-0.012,-0.015 -0.031,-0.024 -0.054,-0.028c-0.012,-0.002 -0.047,-0.003 -0.105,-0.003l-0.113,0l-0,0.182Z" style="fill:#67676c;fill-rule:nonzero;"/></g><g transform="matrix(48,0,0,48,238.857,196)"><path d="M0.043,-0.354c0,-0.072 0.011,-0.134 0.033,-0.183c0.016,-0.037 0.039,-0.069 0.067,-0.098c0.028,-0.029 0.059,-0.051 0.092,-0.065c0.045,-0.019 0.096,-0.028 0.155,-0.028c0.105,-0 0.19,0.033 0.253,0.098c0.063,0.066 0.095,0.157 0.095,0.273c-0,0.116 -0.032,0.206 -0.094,0.271c-0.063,0.066 -0.147,0.098 -0.252,0.098c-0.107,0 -0.191,-0.032 -0.254,-0.097c-0.063,-0.065 -0.095,-0.155 -0.095,-0.269Zm0.149,-0.004c0,0.081 0.019,0.142 0.057,0.184c0.037,0.042 0.084,0.063 0.142,0.063c0.058,-0 0.105,-0.021 0.142,-0.063c0.037,-0.041 0.055,-0.103 0.055,-0.186c0,-0.082 -0.018,-0.144 -0.054,-0.184c-0.036,-0.04 -0.083,-0.06 -0.143,-0.06c-0.059,-0 -0.107,0.02 -0.144,0.061c-0.036,0.041 -0.055,0.102 -0.055,0.185Z" style="fill:#67676c;fill-rule:nonzero;"/></g><g transform="matrix(48,0,0,48,276.193,196)"><path d="M0.072,-0.716l0.264,0c0.06,0 0.105,0.005 0.137,0.014c0.042,0.012 0.078,0.034 0.108,0.066c0.03,0.031 0.052,0.07 0.068,0.116c0.016,0.045 0.023,0.102 0.023,0.169c0,0.059 -0.007,0.11 -0.022,0.152c-0.018,0.052 -0.043,0.095 -0.076,0.127c-0.025,0.024 -0.059,0.043 -0.102,0.057c-0.032,0.01 -0.074,0.015 -0.128,0.015l-0.272,-0l0,-0.716Zm0.145,0.121l-0,0.474l0.108,0c0.04,0 0.069,-0.002 0.087,-0.006c0.024,-0.006 0.043,-0.016 0.058,-0.03c0.016,-0.014 0.029,-0.037 0.038,-0.069c0.01,-0.032 0.015,-0.076 0.015,-0.131c-0,-0.056 -0.005,-0.098 -0.015,-0.128c-0.009,-0.029 -0.023,-0.053 -0.041,-0.069c-0.017,-0.017 -0.04,-0.028 -0.067,-0.034c-0.02,-0.004 -0.059,-0.007 -0.118,-0.007l-0.065,0Z" style="fill:#67676c;fill-rule:nonzero;"/></g><g transform="matrix(48,0,0,48,310.857,196)"><path d="M0.072,-0.716l0.144,0l0,0.388c0,0.061 0.002,0.101 0.006,0.12c0.006,0.029 0.021,0.052 0.044,0.07c0.023,0.018 0.055,0.027 0.095,0.027c0.041,-0 0.072,-0.009 0.093,-0.025c0.021,-0.017 0.033,-0.038 0.038,-0.062c0.004,-0.025 0.006,-0.065 0.006,-0.122l0,-0.396l0.145,0l-0,0.376c-0,0.086 -0.004,0.147 -0.012,0.182c-0.008,0.036 -0.022,0.066 -0.043,0.09c-0.021,0.025 -0.049,0.044 -0.085,0.058c-0.035,0.015 -0.081,0.022 -0.137,0.022c-0.069,0 -0.12,-0.008 -0.156,-0.023c-0.035,-0.016 -0.063,-0.037 -0.084,-0.062c-0.02,-0.025 -0.034,-0.052 -0.04,-0.079c-0.01,-0.041 -0.014,-0.102 -0.014,-0.182l-0,-0.382Z" style="fill:#67676c;fill-rule:nonzero;"/></g><g transform="matrix(48,0,0,48,345.521,196)"><path d="M0.531,-0.263l0.14,0.044c-0.022,0.078 -0.057,0.136 -0.107,0.174c-0.05,0.038 -0.114,0.057 -0.19,0.057c-0.096,0 -0.174,-0.032 -0.235,-0.097c-0.061,-0.065 -0.092,-0.154 -0.092,-0.267c0,-0.119 0.031,-0.211 0.093,-0.277c0.061,-0.066 0.142,-0.099 0.242,-0.099c0.088,-0 0.159,0.026 0.214,0.078c0.032,0.03 0.057,0.074 0.073,0.131l-0.143,0.035c-0.009,-0.037 -0.026,-0.067 -0.053,-0.088c-0.027,-0.022 -0.06,-0.032 -0.098,-0.032c-0.053,-0 -0.096,0.019 -0.129,0.057c-0.033,0.038 -0.05,0.099 -0.05,0.185c0,0.09 0.017,0.155 0.049,0.193c0.033,0.038 0.075,0.058 0.127,0.058c0.038,-0 0.072,-0.013 0.099,-0.037c0.028,-0.024 0.048,-0.063 0.06,-0.115Z" style="fill:#67676c;fill-rule:nonzero;"/></g><g transform="matrix(48,0,0,48,380.185,196)"><path d="M0.234,-0l-0,-0.595l-0.213,0l0,-0.121l0.569,0l0,0.121l-0.212,0l0,0.595l-0.144,-0Z" style="fill:#67676c;fill-rule:nonzero;"/></g><g transform="matrix(48,0,0,48,172.177,245.57)"><path d="M0.531,-0.263l0.14,0.044c-0.022,0.078 -0.057,0.136 -0.107,0.174c-0.05,0.038 -0.114,0.057 -0.19,0.057c-0.096,0 -0.174,-0.032 -0.235,-0.097c-0.061,-0.065 -0.092,-0.154 -0.092,-0.267c0,-0.119 0.031,-0.211 0.093,-0.277c0.061,-0.066 0.142,-0.099 0.242,-0.099c0.088,-0 0.159,0.026 0.214,0.078c0.032,0.03 0.057,0.074 0.073,0.131l-0.143,0.035c-0.009,-0.037 -0.026,-0.067 -0.053,-0.088c-0.027,-0.022 -0.06,-0.032 -0.098,-0.032c-0.053,-0 -0.096,0.019 -0.129,0.057c-0.033,0.038 -0.05,0.099 -0.05,0.185c0,0.09 0.017,0.155 0.049,0.193c0.033,0.038 0.075,0.058 0.127,0.058c0.038,-0 0.072,-0.013 0.099,-0.037c0.028,-0.024 0.048,-0.063 0.06,-0.115Z" style="fill:#67676c;fill-rule:nonzero;"/></g><g transform="matrix(48,0,0,48,206.842,245.57)"><path d="M0.718,-0l-0.157,-0l-0.062,-0.163l-0.287,0l-0.059,0.163l-0.153,-0l0.279,-0.716l0.153,0l0.286,0.716Zm-0.266,-0.283l-0.098,-0.266l-0.097,0.266l0.195,-0Z" style="fill:#67676c;fill-rule:nonzero;"/></g><g transform="matrix(48,0,0,48,237.943,245.57)"><path d="M0.234,-0l-0,-0.595l-0.213,0l0,-0.121l0.569,0l0,0.121l-0.212,0l0,0.595l-0.144,-0Z" style="fill:#67676c;fill-rule:nonzero;"/></g><g transform="matrix(48,0,0,48,263.701,245.57)"><path d="M0.718,-0l-0.157,-0l-0.062,-0.163l-0.287,0l-0.059,0.163l-0.153,-0l0.279,-0.716l0.153,0l0.286,0.716Zm-0.266,-0.283l-0.098,-0.266l-0.097,0.266l0.195,-0Z" style="fill:#67676c;fill-rule:nonzero;"/></g><g transform="matrix(48,0,0,48,298.365,245.57)"><path d="M0.077,-0l-0,-0.71l0.144,0l0,0.589l0.36,0l-0,0.121l-0.504,-0Z" style="fill:#67676c;fill-rule:nonzero;"/></g><g transform="matrix(48,0,0,48,327.685,245.57)"><path d="M0.043,-0.354c0,-0.072 0.011,-0.134 0.033,-0.183c0.016,-0.037 0.039,-0.069 0.067,-0.098c0.028,-0.029 0.059,-0.051 0.092,-0.065c0.045,-0.019 0.096,-0.028 0.155,-0.028c0.105,-0 0.19,0.033 0.253,0.098c0.063,0.066 0.095,0.157 0.095,0.273c-0,0.116 -0.032,0.206 -0.094,0.271c-0.063,0.066 -0.147,0.098 -0.252,0.098c-0.107,0 -0.191,-0.032 -0.254,-0.097c-0.063,-0.065 -0.095,-0.155 -0.095,-0.269Zm0.149,-0.004c0,0.081 0.019,0.142 0.057,0.184c0.037,0.042 0.084,0.063 0.142,0.063c0.058,-0 0.105,-0.021 0.142,-0.063c0.037,-0.041 0.055,-0.103 0.055,-0.186c0,-0.082 -0.018,-0.144 -0.054,-0.184c-0.036,-0.04 -0.083,-0.06 -0.143,-0.06c-0.059,-0 -0.107,0.02 -0.144,0.061c-0.036,0.041 -0.055,0.102 -0.055,0.185Z" style="fill:#67676c;fill-rule:nonzero;"/></g><g transform="matrix(48,0,0,48,365.021,245.57)"><path d="M0.406,-0.263l-0,-0.121l0.311,0l0,0.285c-0.03,0.03 -0.074,0.055 -0.131,0.078c-0.058,0.022 -0.116,0.033 -0.175,0.033c-0.075,0 -0.14,-0.015 -0.196,-0.047c-0.055,-0.031 -0.097,-0.076 -0.125,-0.135c-0.028,-0.058 -0.042,-0.122 -0.042,-0.19c-0,-0.075 0.015,-0.141 0.047,-0.199c0.031,-0.058 0.077,-0.102 0.137,-0.133c0.046,-0.024 0.103,-0.036 0.171,-0.036c0.089,-0 0.159,0.019 0.209,0.056c0.05,0.037 0.082,0.089 0.096,0.154l-0.144,0.027c-0.01,-0.035 -0.029,-0.063 -0.056,-0.083c-0.028,-0.02 -0.063,-0.03 -0.105,-0.03c-0.063,-0 -0.113,0.02 -0.15,0.06c-0.038,0.04 -0.056,0.099 -0.056,0.178c-0,0.085 0.019,0.148 0.056,0.191c0.038,0.042 0.088,0.064 0.149,0.064c0.03,-0 0.06,-0.006 0.091,-0.018c0.03,-0.012 0.056,-0.026 0.078,-0.043l0,-0.091l-0.165,-0Z" style="fill:#67676c;fill-rule:nonzero;"/></g></g></g><g id="medical" opacity="0"><path d="M45.398,162.945l0,-34.359l10.383,-0l6.235,23.437l6.164,-23.437l10.406,-0l-0,34.359l-6.445,0l-0,-27.047l-6.821,27.047l-6.679,0l-6.797,-27.047l-0,27.047l-6.446,0Z" style="fill:#67676c;fill-rule:nonzero;"/><path d="M85.477,162.945l-0,-34.359l25.476,-0l0,5.812l-18.539,0l0,7.618l17.25,-0l0,5.789l-17.25,-0l0,9.351l19.195,0l0,5.789l-26.132,0Z" style="fill:#67676c;fill-rule:nonzero;"/><path d="M117.469,128.586l12.679,-0c2.86,-0 5.04,0.219 6.54,0.656c2.015,0.594 3.742,1.649 5.179,3.164c1.438,1.516 2.531,3.371 3.281,5.567c0.75,2.195 1.125,4.902 1.125,8.121c0,2.828 -0.351,5.265 -1.054,7.312c-0.86,2.5 -2.086,4.524 -3.68,6.071c-1.203,1.171 -2.828,2.085 -4.875,2.742c-1.531,0.484 -3.578,0.726 -6.141,0.726l-13.054,0l-0,-34.359Zm6.937,5.812l0,22.758l5.18,0c1.937,0 3.336,-0.109 4.195,-0.328c1.125,-0.281 2.059,-0.758 2.801,-1.43c0.742,-0.671 1.348,-1.777 1.816,-3.316c0.469,-1.539 0.704,-3.637 0.704,-6.293c-0,-2.656 -0.235,-4.695 -0.704,-6.117c-0.468,-1.422 -1.125,-2.531 -1.968,-3.328c-0.844,-0.797 -1.914,-1.336 -3.211,-1.617c-0.969,-0.219 -2.867,-0.329 -5.696,-0.329l-3.117,0Z" style="fill:#67676c;fill-rule:nonzero;"/><rect x="151.945" y="128.586" width="6.938" height="34.359" style="fill:#67676c;fill-rule:nonzero;"/><path d="M187.477,150.313l6.726,2.132c-1.031,3.75 -2.746,6.535 -5.144,8.356c-2.399,1.82 -5.442,2.73 -9.129,2.73c-4.563,0 -8.313,-1.558 -11.25,-4.676c-2.938,-3.117 -4.407,-7.378 -4.407,-12.785c0,-5.718 1.477,-10.16 4.43,-13.324c2.953,-3.164 6.836,-4.746 11.649,-4.746c4.203,0 7.617,1.242 10.242,3.727c1.562,1.468 2.734,3.578 3.515,6.328l-6.867,1.64c-0.406,-1.781 -1.254,-3.187 -2.543,-4.218c-1.289,-1.032 -2.855,-1.547 -4.699,-1.547c-2.547,-0 -4.613,0.914 -6.199,2.742c-1.586,1.828 -2.379,4.789 -2.379,8.883c-0,4.343 0.781,7.437 2.344,9.281c1.562,1.844 3.593,2.766 6.093,2.766c1.844,-0 3.43,-0.586 4.758,-1.758c1.328,-1.172 2.281,-3.016 2.86,-5.531Z" style="fill:#67676c;fill-rule:nonzero;"/><path d="M231.141,162.945l-7.547,0l-3,-7.804l-13.735,-0l-2.836,7.804l-7.359,0l13.383,-34.359l7.336,-0l13.758,34.359Zm-12.774,-13.593l-4.734,-12.75l-4.641,12.75l9.375,-0Z" style="fill:#67676c;fill-rule:nonzero;"/><path d="M235.008,162.945l-0,-34.078l6.937,0l0,28.289l17.25,0l0,5.789l-24.187,0Z" style="fill:#67676c;fill-rule:nonzero;"/><path d="M144.503,266.833c1.75,5.25 -1.094,10.907 -6.313,12.657l-8.189,2.719l0,37.784c0,16.563 13.439,30.002 30.003,30.002c16.563,-0 30.002,-13.439 30.002,-30.002l-0,-37.784l-8.157,-2.719c-5.25,-1.75 -8.063,-7.407 -6.313,-12.657c1.75,-5.251 7.407,-8.064 12.657,-6.313l8.157,2.719c8.157,2.718 13.657,10.344 13.657,18.97l0,37.784c0,24.126 -17.063,44.253 -39.784,48.972c1.969,17.47 16.783,31.034 34.784,31.034c19.345,-0 35.003,-15.658 35.003,-35.003l-0,-22.095c-8.845,-3.844 -15.002,-12.658 -15.002,-22.908c0,-13.814 11.189,-25.002 25.002,-25.002c13.814,-0 25.002,11.188 25.002,25.002c0,10.25 -6.157,19.064 -15.001,22.908l-0,22.095c-0,30.377 -24.627,55.004 -55.004,55.004c-29.033,-0 -52.785,-22.47 -54.848,-50.972c-22.908,-4.595 -40.159,-24.784 -40.159,-49.035l-0,-37.784c-0,-8.595 5.5,-16.252 13.689,-18.97l8.156,-2.719c5.251,-1.751 10.907,1.093 12.658,6.313Zm105.507,63.16c5.487,0 10.001,-4.514 10.001,-10c-0,-5.487 -4.514,-10.001 -10.001,-10.001c-5.486,-0 -10,4.514 -10,10.001c-0,5.486 4.514,10 10,10Z" style="fill:#ccc;fill-rule:nonzero;"/></g><g id="dataExport" opacity="0"><g transform="matrix(1,0,0,1,-130.177,-33.0547)"><g transform="matrix(48,0,0,48,172.177,196)"><path d="M0.072,-0.716l0.264,0c0.06,0 0.105,0.005 0.137,0.014c0.042,0.012 0.078,0.034 0.108,0.066c0.03,0.031 0.052,0.07 0.068,0.116c0.016,0.045 0.023,0.102 0.023,0.169c0,0.059 -0.007,0.11 -0.022,0.152c-0.018,0.052 -0.043,0.095 -0.076,0.127c-0.025,0.024 -0.059,0.043 -0.102,0.057c-0.032,0.01 -0.074,0.015 -0.128,0.015l-0.272,-0l0,-0.716Zm0.145,0.121l-0,0.474l0.108,0c0.04,0 0.069,-0.002 0.087,-0.006c0.024,-0.006 0.043,-0.016 0.058,-0.03c0.016,-0.014 0.029,-0.037 0.038,-0.069c0.01,-0.032 0.015,-0.076 0.015,-0.131c-0,-0.056 -0.005,-0.098 -0.015,-0.128c-0.009,-0.029 -0.023,-0.053 -0.041,-0.069c-0.017,-0.017 -0.04,-0.028 -0.067,-0.034c-0.02,-0.004 -0.059,-0.007 -0.118,-0.007l-0.065,0Z" style="fill:#67676c;fill-rule:nonzero;"/></g><g transform="matrix(48,0,0,48,206.842,196)"><path d="M0.718,-0l-0.157,-0l-0.062,-0.163l-0.287,0l-0.059,0.163l-0.153,-0l0.279,-0.716l0.153,0l0.286,0.716Zm-0.266,-0.283l-0.098,-0.266l-0.097,0.266l0.195,-0Z" style="fill:#67676c;fill-rule:nonzero;"/></g><g transform="matrix(48,0,0,48,237.943,196)"><path d="M0.234,-0l-0,-0.595l-0.213,0l0,-0.121l0.569,0l0,0.121l-0.212,0l0,0.595l-0.144,-0Z" style="fill:#67676c;fill-rule:nonzero;"/></g><g transform="matrix(48,0,0,48,263.701,196)"><path d="M0.718,-0l-0.157,-0l-0.062,-0.163l-0.287,0l-0.059,0.163l-0.153,-0l0.279,-0.716l0.153,0l0.286,0.716Zm-0.266,-0.283l-0.098,-0.266l-0.097,0.266l0.195,-0Z" style="fill:#67676c;fill-rule:nonzero;"/></g><g transform="matrix(48,0,0,48,172.177,245.57)"><path d="M0.073,-0l-0,-0.716l0.531,0l-0,0.121l-0.387,0l0,0.159l0.36,-0l-0,0.121l-0.36,-0l0,0.194l0.4,0l0,0.121l-0.544,-0Z" style="fill:#67676c;fill-rule:nonzero;"/></g><g transform="matrix(48,0,0,48,204.193,245.57)"><path d="M0,-0l0.245,-0.374l-0.222,-0.342l0.169,0l0.143,0.23l0.141,-0.23l0.168,0l-0.223,0.348l0.245,0.368l-0.175,-0l-0.158,-0.248l-0.16,0.248l-0.173,-0Z" style="fill:#67676c;fill-rule:nonzero;"/></g><g transform="matrix(48,0,0,48,236.209,245.57)"><path d="M0.073,-0l-0,-0.716l0.232,0c0.088,0 0.145,0.004 0.172,0.011c0.041,0.011 0.075,0.034 0.103,0.07c0.027,0.036 0.041,0.082 0.041,0.139c0,0.044 -0.008,0.081 -0.024,0.111c-0.016,0.03 -0.036,0.054 -0.061,0.071c-0.024,0.017 -0.049,0.028 -0.075,0.034c-0.034,0.007 -0.084,0.01 -0.149,0.01l-0.095,-0l0,0.27l-0.144,-0Zm0.144,-0.595l0,0.203l0.079,0c0.057,0 0.095,-0.003 0.115,-0.011c0.019,-0.007 0.034,-0.019 0.045,-0.035c0.011,-0.016 0.016,-0.034 0.016,-0.056c0,-0.026 -0.007,-0.047 -0.023,-0.064c-0.015,-0.017 -0.034,-0.028 -0.058,-0.032c-0.017,-0.003 -0.052,-0.005 -0.104,-0.005l-0.07,0Z" style="fill:#67676c;fill-rule:nonzero;"/></g><g transform="matrix(48,0,0,48,268.224,245.57)"><path d="M0.043,-0.354c0,-0.072 0.011,-0.134 0.033,-0.183c0.016,-0.037 0.039,-0.069 0.067,-0.098c0.028,-0.029 0.059,-0.051 0.092,-0.065c0.045,-0.019 0.096,-0.028 0.155,-0.028c0.105,-0 0.19,0.033 0.253,0.098c0.063,0.066 0.095,0.157 0.095,0.273c-0,0.116 -0.032,0.206 -0.094,0.271c-0.063,0.066 -0.147,0.098 -0.252,0.098c-0.107,0 -0.191,-0.032 -0.254,-0.097c-0.063,-0.065 -0.095,-0.155 -0.095,-0.269Zm0.149,-0.004c0,0.081 0.019,0.142 0.057,0.184c0.037,0.042 0.084,0.063 0.142,0.063c0.058,-0 0.105,-0.021 0.142,-0.063c0.037,-0.041 0.055,-0.103 0.055,-0.186c0,-0.082 -0.018,-0.144 -0.054,-0.184c-0.036,-0.04 -0.083,-0.06 -0.143,-0.06c-0.059,-0 -0.107,0.02 -0.144,0.061c-0.036,0.041 -0.055,0.102 -0.055,0.185Z" style="fill:#67676c;fill-rule:nonzero;"/></g><g transform="matrix(48,0,0,48,305.56,245.57)"><path d="M0.073,-0l0,-0.716l0.304,0c0.077,0 0.133,0.007 0.167,0.019c0.035,0.013 0.063,0.036 0.083,0.069c0.021,0.033 0.032,0.071 0.032,0.113c-0,0.054 -0.016,0.098 -0.048,0.133c-0.031,0.035 -0.078,0.057 -0.141,0.066c0.031,0.018 0.057,0.038 0.077,0.06c0.02,0.022 0.048,0.061 0.082,0.116l0.088,0.14l-0.173,-0l-0.105,-0.156c-0.037,-0.055 -0.062,-0.091 -0.076,-0.105c-0.013,-0.014 -0.028,-0.024 -0.043,-0.03c-0.015,-0.005 -0.04,-0.008 -0.073,-0.008l-0.029,0l-0,0.299l-0.145,-0Zm0.145,-0.413l0.107,-0c0.069,-0 0.112,-0.003 0.13,-0.009c0.017,-0.006 0.03,-0.016 0.04,-0.03c0.01,-0.014 0.015,-0.032 0.015,-0.054c-0,-0.024 -0.007,-0.043 -0.02,-0.058c-0.012,-0.015 -0.031,-0.024 -0.054,-0.028c-0.012,-0.002 -0.047,-0.003 -0.105,-0.003l-0.113,0l-0,0.182Z" style="fill:#67676c;fill-rule:nonzero;"/></g><g transform="matrix(48,0,0,48,340.224,245.57)"><path d="M0.234,-0l-0,-0.595l-0.213,0l0,-0.121l0.569,0l0,0.121l-0.212,0l0,0.595l-0.144,-0Z" style="fill:#67676c;fill-rule:nonzero;"/></g></g><path d="M132,340l0,-30l50,0l0,30l-50,0Zm0,20l50,0l0,30l-50,0l0,-30Zm70,30l0,-30l50,0l0,30l-50,0Zm50,-50l-50,0l0,-30l50,0l0,30Zm-120,-70c-11.031,0 -20,8.969 -20,20l0,100c0,11.031 8.969,20 20,20l120,0c11.031,0 20,-8.969 20,-20l0,-100c0,-11.031 -8.969,-20 -20,-20l-120,0Z" style="fill:#ccc;fill-rule:nonzero;"/></g><g id="delivery" opacity="0"><path d="M45.469,128.586l12.679,-0c2.86,-0 5.039,0.219 6.539,0.656c2.016,0.594 3.743,1.649 5.18,3.164c1.438,1.516 2.531,3.371 3.281,5.567c0.75,2.195 1.125,4.902 1.125,8.121c0,2.828 -0.351,5.265 -1.054,7.312c-0.86,2.5 -2.086,4.524 -3.68,6.071c-1.203,1.171 -2.828,2.085 -4.875,2.742c-1.531,0.484 -3.578,0.726 -6.141,0.726l-13.054,0l-0,-34.359Zm6.937,5.812l0,22.758l5.18,0c1.937,0 3.336,-0.109 4.195,-0.328c1.125,-0.281 2.059,-0.758 2.801,-1.43c0.742,-0.671 1.348,-1.777 1.816,-3.316c0.469,-1.539 0.704,-3.637 0.704,-6.293c-0,-2.656 -0.235,-4.695 -0.704,-6.117c-0.468,-1.422 -1.125,-2.531 -1.968,-3.328c-0.844,-0.797 -1.914,-1.336 -3.211,-1.617c-0.969,-0.219 -2.867,-0.329 -5.696,-0.329l-3.117,0Z" style="fill:#67676c;fill-rule:nonzero;"/><path d="M80.156,162.945l0,-34.359l25.477,-0l-0,5.812l-18.539,0l-0,7.618l17.25,-0l-0,5.789l-17.25,-0l-0,9.351l19.195,0l0,5.789l-26.133,0Z" style="fill:#67676c;fill-rule:nonzero;"/><path d="M112.359,162.945l0,-34.078l6.938,0l-0,28.289l17.25,0l-0,5.789l-24.188,0Z" style="fill:#67676c;fill-rule:nonzero;"/><rect x="141.281" y="128.586" width="6.938" height="34.359" style="fill:#67676c;fill-rule:nonzero;"/><path d="M163.594,162.945l-12.281,-34.359l7.523,-0l8.695,25.43l8.414,-25.43l7.36,-0l-12.305,34.359l-7.406,0Z" style="fill:#67676c;fill-rule:nonzero;"/><path d="M186.844,162.945l-0,-34.359l25.476,-0l0,5.812l-18.539,0l0,7.618l17.25,-0l0,5.789l-17.25,-0l0,9.351l19.196,0l-0,5.789l-26.133,0Z" style="fill:#67676c;fill-rule:nonzero;"/><path d="M218.883,162.945l-0,-34.359l14.601,-0c3.672,-0 6.34,0.309 8.004,0.926c1.664,0.617 2.996,1.715 3.996,3.293c1,1.578 1.5,3.383 1.5,5.414c0,2.578 -0.757,4.707 -2.273,6.386c-1.516,1.68 -3.781,2.739 -6.797,3.176c1.5,0.875 2.738,1.836 3.715,2.883c0.976,1.047 2.293,2.906 3.949,5.578l4.195,6.703l-8.296,0l-5.016,-7.476c-1.781,-2.672 -3,-4.356 -3.656,-5.051c-0.657,-0.695 -1.352,-1.172 -2.086,-1.43c-0.735,-0.258 -1.899,-0.386 -3.492,-0.386l-1.407,-0l0,14.343l-6.937,0Zm6.937,-19.828l5.133,0c3.328,0 5.406,-0.14 6.234,-0.422c0.829,-0.281 1.477,-0.765 1.946,-1.453c0.469,-0.687 0.703,-1.547 0.703,-2.578c-0,-1.156 -0.309,-2.09 -0.926,-2.801c-0.617,-0.711 -1.488,-1.16 -2.613,-1.347c-0.563,-0.078 -2.25,-0.118 -5.063,-0.118l-5.414,0l0,8.719Z" style="fill:#67676c;fill-rule:nonzero;"/><path d="M260.766,162.945l-0,-14.461l-12.586,-19.898l8.132,-0l8.086,13.594l7.922,-13.594l7.992,-0l-12.632,19.945l-0,14.414l-6.914,0Z" style="fill:#67676c;fill-rule:nonzero;"/><path d="M122.16,273.951c0,-8.36 6.88,-15.24 15.241,-15.24c8.361,-0 15.241,6.88 15.241,15.24c-0,8.361 -6.88,15.241 -15.241,15.241c-8.361,-0 -15.241,-6.88 -15.241,-15.241Zm20.321,61.503l0,20.67l16.193,16.193c2.255,2.254 3.747,5.143 4.255,8.287l4.826,28.862c0.921,5.524 -2.826,10.763 -8.35,11.684c-5.525,0.921 -10.764,-2.826 -11.685,-8.351l-4.572,-27.274l-25.211,-25.21c-3.81,-3.81 -5.937,-8.986 -5.937,-14.384l0,-27.972c0,-10.288 8.319,-18.607 18.606,-18.607c7.652,0 14.765,3.811 19.019,10.161l13.526,20.321l14.638,-0l-2.064,-8.319c-1.016,-4.096 1.46,-8.224 5.556,-9.24c4.096,-1.016 8.224,1.461 9.24,5.557l15.748,62.994c5.589,0.762 10.447,3.81 13.59,8.16l42.674,-10.668c4.095,-1.016 8.223,1.46 9.239,5.556c1.016,4.096 -1.46,8.224 -5.556,9.24l-42.642,10.668c-1.365,9.875 -9.875,17.495 -20.13,17.495c-11.209,0 -20.321,-9.113 -20.321,-20.321c-0,-6.763 3.302,-12.732 8.35,-16.415l-8.573,-34.387l-22.448,0c-5.08,0 -9.843,-2.54 -12.668,-6.794l-5.303,-7.906Zm-30.481,75.663l-0,-42.388l20.321,20.321l-0,22.067c-0,5.62 -4.541,10.16 -10.161,10.16c-5.62,0 -10.16,-4.54 -10.16,-10.16Zm91.444,-5.081c2.786,0 5.08,-2.293 5.08,-5.08c-0,-2.787 -2.294,-5.08 -5.08,-5.08c-2.787,0 -5.081,2.293 -5.081,5.08c0,2.787 2.294,5.08 5.081,5.08Zm22.035,-27.877c-5.43,1.365 -10.954,-1.937 -12.32,-7.398l-7.271,-29.053c-1.365,-5.429 1.937,-10.954 7.398,-12.319l29.053,-7.271c5.429,-1.365 10.954,1.937 12.319,7.398l7.271,29.052c1.366,5.43 -1.937,10.955 -7.398,12.32l-29.052,7.271Z" style="fill:#ccc;fill-rule:nonzero;"/></g><g id="photos" opacity="0"><path d="M45.492,162.945l0,-34.359l11.133,-0c4.219,-0 6.969,0.172 8.25,0.516c1.969,0.515 3.617,1.636 4.945,3.363c1.328,1.726 1.993,3.957 1.993,6.691c-0,2.11 -0.383,3.883 -1.149,5.321c-0.766,1.437 -1.738,2.566 -2.918,3.386c-1.18,0.821 -2.379,1.364 -3.598,1.629c-1.656,0.328 -4.054,0.492 -7.195,0.492l-4.523,0l-0,12.961l-6.938,0Zm6.938,-28.547l-0,9.75l3.797,0c2.734,0 4.562,-0.179 5.484,-0.539c0.922,-0.359 1.644,-0.921 2.168,-1.687c0.523,-0.766 0.785,-1.656 0.785,-2.672c0,-1.25 -0.367,-2.281 -1.101,-3.094c-0.735,-0.812 -1.665,-1.32 -2.79,-1.523c-0.828,-0.156 -2.492,-0.235 -4.992,-0.235l-3.351,0Z" style="fill:#67676c;fill-rule:nonzero;"/><path d="M77.531,162.945l0,-34.359l6.938,-0l-0,13.523l13.593,0l0,-13.523l6.938,-0l-0,34.359l-6.938,0l0,-15.023l-13.593,-0l-0,15.023l-6.938,0Z" style="fill:#67676c;fill-rule:nonzero;"/><path d="M110.766,145.977c-0,-3.5 0.523,-6.438 1.57,-8.813c0.781,-1.75 1.848,-3.32 3.199,-4.711c1.352,-1.39 2.832,-2.422 4.442,-3.094c2.14,-0.906 4.609,-1.359 7.406,-1.359c5.062,0 9.113,1.57 12.152,4.711c3.039,3.141 4.559,7.508 4.559,13.102c-0,5.546 -1.508,9.886 -4.524,13.019c-3.015,3.133 -7.047,4.699 -12.093,4.699c-5.11,0 -9.172,-1.558 -12.188,-4.676c-3.016,-3.117 -4.523,-7.41 -4.523,-12.878Zm7.148,-0.235c0,3.891 0.898,6.84 2.695,8.848c1.797,2.008 4.078,3.012 6.844,3.012c2.766,-0 5.035,-0.997 6.809,-2.989c1.773,-1.992 2.66,-4.98 2.66,-8.965c-0,-3.937 -0.863,-6.875 -2.59,-8.812c-1.727,-1.938 -4.019,-2.906 -6.879,-2.906c-2.859,-0 -5.164,0.98 -6.914,2.941c-1.75,1.961 -2.625,4.918 -2.625,8.871Z" style="fill:#67676c;fill-rule:nonzero;"/><path d="M157.242,162.945l0,-28.547l-10.195,0l-0,-5.812l27.305,-0l-0,5.812l-10.172,0l-0,28.547l-6.938,0Z" style="fill:#67676c;fill-rule:nonzero;"/><path d="M176.555,145.977c-0,-3.5 0.523,-6.438 1.57,-8.813c0.781,-1.75 1.848,-3.32 3.199,-4.711c1.352,-1.39 2.832,-2.422 4.442,-3.094c2.14,-0.906 4.609,-1.359 7.406,-1.359c5.062,0 9.113,1.57 12.152,4.711c3.039,3.141 4.559,7.508 4.559,13.102c-0,5.546 -1.508,9.886 -4.524,13.019c-3.015,3.133 -7.047,4.699 -12.093,4.699c-5.11,0 -9.172,-1.558 -12.188,-4.676c-3.016,-3.117 -4.523,-7.41 -4.523,-12.878Zm7.148,-0.235c0,3.891 0.899,6.84 2.695,8.848c1.797,2.008 4.079,3.012 6.844,3.012c2.766,-0 5.035,-0.997 6.809,-2.989c1.773,-1.992 2.66,-4.98 2.66,-8.965c-0,-3.937 -0.863,-6.875 -2.59,-8.812c-1.726,-1.938 -4.019,-2.906 -6.879,-2.906c-2.859,-0 -5.164,0.98 -6.914,2.941c-1.75,1.961 -2.625,4.918 -2.625,8.871Z" style="fill:#67676c;fill-rule:nonzero;"/><path d="M213.539,151.766l6.75,-0.657c0.406,2.266 1.231,3.93 2.473,4.993c1.242,1.062 2.918,1.593 5.027,1.593c2.234,0 3.918,-0.472 5.051,-1.418c1.133,-0.945 1.699,-2.05 1.699,-3.316c0,-0.813 -0.238,-1.504 -0.715,-2.074c-0.476,-0.571 -1.308,-1.067 -2.496,-1.489c-0.812,-0.281 -2.664,-0.781 -5.555,-1.5c-3.718,-0.921 -6.328,-2.054 -7.828,-3.398c-2.109,-1.891 -3.164,-4.195 -3.164,-6.914c0,-1.75 0.496,-3.387 1.489,-4.91c0.992,-1.524 2.421,-2.684 4.289,-3.481c1.867,-0.797 4.121,-1.195 6.761,-1.195c4.313,0 7.559,0.945 9.739,2.836c2.179,1.891 3.324,4.414 3.433,7.57l-6.937,0.305c-0.297,-1.766 -0.934,-3.035 -1.91,-3.809c-0.977,-0.773 -2.442,-1.16 -4.395,-1.16c-2.016,0 -3.594,0.414 -4.734,1.242c-0.735,0.532 -1.102,1.243 -1.102,2.133c0,0.813 0.344,1.508 1.031,2.086c0.875,0.735 3,1.5 6.375,2.297c3.375,0.797 5.871,1.621 7.489,2.473c1.617,0.851 2.882,2.015 3.796,3.492c0.915,1.476 1.372,3.301 1.372,5.473c-0,1.968 -0.547,3.812 -1.641,5.531c-1.094,1.719 -2.641,2.996 -4.641,3.832c-2,0.836 -4.492,1.254 -7.476,1.254c-4.344,-0 -7.68,-1.004 -10.008,-3.012c-2.328,-2.008 -3.719,-4.934 -4.172,-8.777Z" style="fill:#67676c;fill-rule:nonzero;"/><path d="M252,410l-120,0c-11.031,0 -20,-8.969 -20,-20l0,-100c0,-11.031 8.969,-20 20,-20l40,0c6.281,0 12.219,2.969 16,8l6,8c1.875,2.531 4.844,4 8,4l50,0c11.031,0 20,8.969 20,20l0,80c0,11.031 -8.969,20 -20,20Zm-85,-80c0,-5.486 -4.514,-10 -10,-10c-5.486,0 -10,4.514 -10,10c0,5.486 4.514,10 10,10c5.486,0 10,-4.514 10,-10Zm37.5,0c-2.5,0 -4.844,1.25 -6.25,3.344l-17.5,26.25l-5.406,-6.781c-1.438,-1.782 -3.594,-2.813 -5.844,-2.813c-2.25,0 -4.437,1.031 -5.844,2.813l-20,25c-1.812,2.25 -2.156,5.343 -0.906,7.937c1.25,2.594 3.875,4.25 6.75,4.25l85,0c2.781,0 5.313,-1.531 6.625,-3.969c1.313,-2.437 1.156,-5.406 -0.375,-7.687l-30,-45c-1.406,-2.094 -3.75,-3.344 -6.25,-3.344Z" style="fill:#ccc;fill-rule:nonzero;"/></g></g><defs><linearGradient id="_Linear1" x1="0" y1="0" x2="1" y2="0" gradientUnits="userSpaceOnUse" gradientTransform="matrix(380,512,-512,380,0,0)"><stop offset="0" style="stop-color:#fff;stop-opacity:1"/><stop offset="1" style="stop-color:#eee;stop-opacity:1"/></linearGradient></defs></svg>