<?xml version="1.0" encoding="UTF-8" standalone="no"?>
<!DOCTYPE svg PUBLIC "-//W3C//DTD SVG 1.1//EN" "http://www.w3.org/Graphics/SVG/1.1/DTD/svg11.dtd">
<svg width="100%" height="100%" viewBox="0 0 384 512" version="1.1" xmlns="http://www.w3.org/2000/svg" xmlns:xlink="http://www.w3.org/1999/xlink" xml:space="preserve" xmlns:serif="http://www.serif.com/" style="fill-rule:evenodd;clip-rule:evenodd;stroke-linejoin:round;stroke-miterlimit:2;">
    <g id="page">
        <path d="M384,96L384,481.28C384,498.235 370.235,512 353.28,512L30.72,512C13.765,512 0,498.235 0,481.28L0,30.72C0,13.765 13.765,0 30.72,0L288,0L384,96Z" style="fill:url(#_Linear1);"/>
        <g transform="matrix(1,0,0,1,3,19)">
            <g transform="matrix(0.913043,0,0,0.818182,3.3913,5.81818)">
                <path d="M177,37.19L177,70.81C177,79.745 170.499,87 162.492,87L53.508,87C45.501,87 39,79.745 39,70.81L39,37.19C39,28.255 45.501,21 53.508,21L162.492,21C170.499,21 177,28.255 177,37.19Z" style="fill:rgb(233,79,79);"/>
            </g>
            <g transform="matrix(1,0,0,1,-7.63281,-2.82031)">
                <g transform="matrix(48,0,0,48,61,70)">
                    <path d="M0.073,-0L0.073,-0.716L0.305,-0.716C0.393,-0.716 0.45,-0.712 0.477,-0.705C0.518,-0.694 0.552,-0.671 0.58,-0.635C0.607,-0.599 0.621,-0.553 0.621,-0.496C0.621,-0.452 0.613,-0.415 0.597,-0.385C0.581,-0.355 0.561,-0.331 0.536,-0.314C0.512,-0.297 0.487,-0.286 0.461,-0.28C0.427,-0.273 0.377,-0.27 0.312,-0.27L0.217,-0.27L0.217,-0L0.073,-0ZM0.217,-0.595L0.217,-0.392L0.296,-0.392C0.353,-0.392 0.391,-0.395 0.411,-0.403C0.43,-0.41 0.445,-0.422 0.456,-0.438C0.467,-0.454 0.472,-0.472 0.472,-0.494C0.472,-0.52 0.465,-0.541 0.449,-0.558C0.434,-0.575 0.415,-0.586 0.391,-0.59C0.374,-0.593 0.339,-0.595 0.287,-0.595L0.217,-0.595Z" style="fill:white;fill-rule:nonzero;"/>
                </g>
                <g transform="matrix(48,0,0,48,93.0156,70)">
                    <path d="M0.072,-0.716L0.336,-0.716C0.396,-0.716 0.441,-0.711 0.473,-0.702C0.515,-0.69 0.551,-0.668 0.581,-0.636C0.611,-0.605 0.633,-0.566 0.649,-0.52C0.665,-0.475 0.672,-0.418 0.672,-0.351C0.672,-0.292 0.665,-0.241 0.65,-0.199C0.632,-0.147 0.607,-0.104 0.574,-0.072C0.549,-0.048 0.515,-0.029 0.472,-0.015C0.44,-0.005 0.398,-0 0.344,-0L0.072,-0L0.072,-0.716ZM0.217,-0.595L0.217,-0.121L0.325,-0.121C0.365,-0.121 0.394,-0.123 0.412,-0.127C0.436,-0.133 0.455,-0.143 0.47,-0.157C0.486,-0.171 0.499,-0.194 0.508,-0.226C0.518,-0.258 0.523,-0.302 0.523,-0.357C0.523,-0.413 0.518,-0.455 0.508,-0.485C0.499,-0.514 0.485,-0.538 0.467,-0.554C0.45,-0.571 0.427,-0.582 0.4,-0.588C0.38,-0.592 0.341,-0.595 0.282,-0.595L0.217,-0.595Z" style="fill:white;fill-rule:nonzero;"/>
                </g>
                <g transform="matrix(48,0,0,48,127.68,70)">
                    <path d="M0.074,-0L0.074,-0.716L0.564,-0.716L0.564,-0.595L0.218,-0.595L0.218,-0.425L0.517,-0.425L0.517,-0.304L0.218,-0.304L0.218,-0L0.074,-0Z" style="fill:white;fill-rule:nonzero;"/>
                </g>
            </g>
        </g>
        <g transform="matrix(0.6,0,0,0.6,153.6,-2.84217e-14)">
            <path d="M224,0L384,160L256,160C238.3,160 224,145.7 224,128L224,0Z" style="fill:rgb(204,204,204);fill-rule:nonzero;"/>
        </g>
    </g>
    <g id="types">
        <g id="science" opacity="0">
            <g transform="matrix(1,0,0,1,-130.177,-33.0547)">
                <g transform="matrix(48,0,0,48,172.177,196)">
                    <path d="M0.036,-0.233L0.177,-0.247C0.185,-0.199 0.202,-0.165 0.228,-0.143C0.254,-0.12 0.289,-0.109 0.333,-0.109C0.38,-0.109 0.415,-0.119 0.438,-0.139C0.462,-0.159 0.474,-0.182 0.474,-0.208C0.474,-0.225 0.469,-0.239 0.459,-0.251C0.449,-0.263 0.431,-0.273 0.407,-0.282C0.39,-0.288 0.351,-0.299 0.291,-0.313C0.214,-0.333 0.159,-0.356 0.128,-0.384C0.084,-0.424 0.062,-0.472 0.062,-0.528C0.062,-0.565 0.072,-0.599 0.093,-0.631C0.114,-0.662 0.143,-0.687 0.182,-0.703C0.221,-0.72 0.268,-0.728 0.323,-0.728C0.413,-0.728 0.481,-0.708 0.526,-0.669C0.572,-0.63 0.595,-0.577 0.598,-0.511L0.453,-0.505C0.447,-0.542 0.434,-0.568 0.413,-0.584C0.393,-0.6 0.362,-0.608 0.322,-0.608C0.28,-0.608 0.247,-0.6 0.223,-0.583C0.208,-0.571 0.2,-0.557 0.2,-0.538C0.2,-0.521 0.207,-0.507 0.222,-0.495C0.24,-0.479 0.284,-0.463 0.354,-0.447C0.425,-0.43 0.477,-0.413 0.51,-0.395C0.544,-0.378 0.571,-0.353 0.59,-0.323C0.609,-0.292 0.618,-0.254 0.618,-0.208C0.618,-0.167 0.607,-0.129 0.584,-0.093C0.561,-0.057 0.529,-0.031 0.487,-0.013C0.446,0.004 0.394,0.013 0.332,0.013C0.241,0.013 0.172,-0.008 0.123,-0.05C0.075,-0.092 0.046,-0.153 0.036,-0.233Z" style="fill-rule:nonzero;"/>
                </g>
                <g transform="matrix(48,0,0,48,204.193,196)">
                    <path d="M0.531,-0.263L0.671,-0.219C0.649,-0.141 0.614,-0.083 0.564,-0.045C0.514,-0.007 0.45,0.012 0.374,0.012C0.278,0.012 0.2,-0.02 0.139,-0.085C0.078,-0.15 0.047,-0.239 0.047,-0.352C0.047,-0.471 0.078,-0.563 0.14,-0.629C0.201,-0.695 0.282,-0.728 0.382,-0.728C0.47,-0.728 0.541,-0.702 0.596,-0.65C0.628,-0.62 0.653,-0.576 0.669,-0.519L0.526,-0.484C0.517,-0.521 0.5,-0.551 0.473,-0.572C0.446,-0.594 0.413,-0.604 0.375,-0.604C0.322,-0.604 0.279,-0.585 0.246,-0.547C0.213,-0.509 0.196,-0.448 0.196,-0.362C0.196,-0.272 0.213,-0.207 0.245,-0.169C0.278,-0.131 0.32,-0.111 0.372,-0.111C0.41,-0.111 0.444,-0.124 0.471,-0.148C0.499,-0.172 0.519,-0.211 0.531,-0.263Z" style="fill-rule:nonzero;"/>
                </g>
                <g transform="matrix(48,0,0,48,238.857,196)">
                    <rect x="0.068" y="-0.716" width="0.145" height="0.716" style="fill-rule:nonzero;"/>
                </g>
                <g transform="matrix(48,0,0,48,252.193,196)">
                    <path d="M0.073,-0L0.073,-0.716L0.604,-0.716L0.604,-0.595L0.217,-0.595L0.217,-0.436L0.577,-0.436L0.577,-0.315L0.217,-0.315L0.217,-0.121L0.617,-0.121L0.617,-0L0.073,-0Z" style="fill-rule:nonzero;"/>
                </g>
                <g transform="matrix(48,0,0,48,284.209,196)">
                    <path d="M0.074,-0L0.074,-0.716L0.215,-0.716L0.508,-0.238L0.508,-0.716L0.642,-0.716L0.642,-0L0.497,-0L0.208,-0.467L0.208,-0L0.074,-0Z" style="fill-rule:nonzero;"/>
                </g>
                <g transform="matrix(48,0,0,48,318.873,196)">
                    <path d="M0.531,-0.263L0.671,-0.219C0.649,-0.141 0.614,-0.083 0.564,-0.045C0.514,-0.007 0.45,0.012 0.374,0.012C0.278,0.012 0.2,-0.02 0.139,-0.085C0.078,-0.15 0.047,-0.239 0.047,-0.352C0.047,-0.471 0.078,-0.563 0.14,-0.629C0.201,-0.695 0.282,-0.728 0.382,-0.728C0.47,-0.728 0.541,-0.702 0.596,-0.65C0.628,-0.62 0.653,-0.576 0.669,-0.519L0.526,-0.484C0.517,-0.521 0.5,-0.551 0.473,-0.572C0.446,-0.594 0.413,-0.604 0.375,-0.604C0.322,-0.604 0.279,-0.585 0.246,-0.547C0.213,-0.509 0.196,-0.448 0.196,-0.362C0.196,-0.272 0.213,-0.207 0.245,-0.169C0.278,-0.131 0.32,-0.111 0.372,-0.111C0.41,-0.111 0.444,-0.124 0.471,-0.148C0.499,-0.172 0.519,-0.211 0.531,-0.263Z" style="fill-rule:nonzero;"/>
                </g>
                <g transform="matrix(48,0,0,48,353.537,196)">
                    <path d="M0.073,-0L0.073,-0.716L0.604,-0.716L0.604,-0.595L0.217,-0.595L0.217,-0.436L0.577,-0.436L0.577,-0.315L0.217,-0.315L0.217,-0.121L0.617,-0.121L0.617,-0L0.073,-0Z" style="fill-rule:nonzero;"/>
                </g>
            </g>
            <g transform="matrix(0.3125,0,0,0.3125,112.003,260)">
                <path d="M42.4,128C62.6,91.6 104.9,78.7 157.6,84.8C179.6,32.7 213.2,0 256,0C298.8,0 332.4,32.7 354.4,84.8C407.1,78.7 449.4,91.7 469.6,128C476.7,140.7 480,154.5 480,168.8C480,196.3 467.7,226.2 446,256C467.7,285.7 480,315.6 480,343.2C480,357.6 476.7,371.3 469.6,384C449.4,420.4 407.1,433.3 354.4,427.2C332.4,479.3 298.7,512 256,512C213.3,512 179.6,479.3 157.6,427.2C104.9,433.3 62.6,420.3 42.4,384C21.7,346.9 33,301.2 66,256C33,210.8 21.7,165.1 42.4,128ZM221.1,99.7C232.6,103.5 244.2,108.1 256,113.2C267.8,108.1 279.5,103.6 290.9,99.7C274.1,65.9 259.9,64 256,64C252.1,64 237.9,65.9 221.1,99.7ZM221.1,412.3C237.9,446.1 252.1,448 256,448C259.9,448 274.2,446.1 290.9,412.3C279.4,408.5 267.8,403.9 256,398.8C244.2,403.9 232.5,408.4 221.1,412.3ZM336,256C336,212.113 299.887,176 256,176C212.113,176 176,212.113 176,256C176,299.887 212.113,336 256,336C299.887,336 336,299.887 336,256ZM224,256C224,238.445 238.445,224 256,224C273.555,224 288,238.445 288,256C288,273.555 273.555,288 256,288C238.445,288 224,273.555 224,256ZM98.3,159.1C96,163.3 91.4,177 110.2,207.2C117,200.9 124.2,194.7 131.8,188.6C133.5,174.3 135.7,160.5 138.5,147.4C106.7,146.1 99.9,156.2 98.3,159.1ZM98.3,352.9C99.9,355.9 106.7,366 138.5,364.6C135.7,351.4 133.5,337.6 131.8,323.4C124.2,317.3 117,311.1 110.2,304.8C91.3,335 96,348.7 98.3,352.9ZM373.5,147.5C376.3,160.7 378.5,174.4 380.2,188.7C387.8,194.8 395,201 401.8,207.3C420.7,177.1 416,163.4 413.7,159.2C412.1,156.2 405.3,146.1 373.5,147.5ZM373.5,364.6C405.3,365.9 412.1,355.8 413.7,352.9C416,348.8 420.7,335 401.8,304.8C395,311.1 387.8,317.3 380.2,323.4C378.5,337.7 376.3,351.5 373.5,364.6Z" style="fill:rgb(204,204,204);"/>
            </g>
        </g>
        <g id="ticket" opacity="0">
            <g transform="matrix(1,0,0,1,-131.209,-33.0547)">
                <g transform="matrix(48,0,0,48,172.177,196)">
                    <path d="M0.234,-0L0.234,-0.595L0.021,-0.595L0.021,-0.716L0.59,-0.716L0.59,-0.595L0.378,-0.595L0.378,-0L0.234,-0Z" style="fill-rule:nonzero;"/>
                </g>
                <g transform="matrix(48,0,0,48,201.498,196)">
                    <rect x="0.068" y="-0.716" width="0.145" height="0.716" style="fill-rule:nonzero;"/>
                </g>
                <g transform="matrix(48,0,0,48,214.834,196)">
                    <path d="M0.531,-0.263L0.671,-0.219C0.649,-0.141 0.614,-0.083 0.564,-0.045C0.514,-0.007 0.45,0.012 0.374,0.012C0.278,0.012 0.2,-0.02 0.139,-0.085C0.078,-0.15 0.047,-0.239 0.047,-0.352C0.047,-0.471 0.078,-0.563 0.14,-0.629C0.201,-0.695 0.282,-0.728 0.382,-0.728C0.47,-0.728 0.541,-0.702 0.596,-0.65C0.628,-0.62 0.653,-0.576 0.669,-0.519L0.526,-0.484C0.517,-0.521 0.5,-0.551 0.473,-0.572C0.446,-0.594 0.413,-0.604 0.375,-0.604C0.322,-0.604 0.279,-0.585 0.246,-0.547C0.213,-0.509 0.196,-0.448 0.196,-0.362C0.196,-0.272 0.213,-0.207 0.245,-0.169C0.278,-0.131 0.32,-0.111 0.372,-0.111C0.41,-0.111 0.444,-0.124 0.471,-0.148C0.499,-0.172 0.519,-0.211 0.531,-0.263Z" style="fill-rule:nonzero;"/>
                </g>
                <g transform="matrix(48,0,0,48,249.498,196)">
                    <path d="M0.075,-0L0.075,-0.716L0.219,-0.716L0.219,-0.398L0.511,-0.716L0.706,-0.716L0.436,-0.437L0.72,-0L0.533,-0L0.336,-0.336L0.219,-0.216L0.219,-0L0.075,-0Z" style="fill-rule:nonzero;"/>
                </g>
                <g transform="matrix(48,0,0,48,284.162,196)">
                    <path d="M0.073,-0L0.073,-0.716L0.604,-0.716L0.604,-0.595L0.217,-0.595L0.217,-0.436L0.577,-0.436L0.577,-0.315L0.217,-0.315L0.217,-0.121L0.617,-0.121L0.617,-0L0.073,-0Z" style="fill-rule:nonzero;"/>
                </g>
                <g transform="matrix(48,0,0,48,316.177,196)">
                    <path d="M0.234,-0L0.234,-0.595L0.021,-0.595L0.021,-0.716L0.59,-0.716L0.59,-0.595L0.378,-0.595L0.378,-0L0.234,-0Z" style="fill-rule:nonzero;"/>
                </g>
            </g>
            <g transform="matrix(0.560523,0,0,0.560523,74.9061,196.506)">
                <path d="M147.5,138.5L176,224L120,224L100.8,198.4C97.8,194.4 93,192 88,192L74.2,192C69,192 65.2,196.9 66.4,201.9L79,252.1C79.6,254.6 79.6,257.3 79,259.9L66.5,310.1C65.2,315.1 69.1,320 74.3,320L88,320C93,320 97.8,317.6 100.8,313.6L120,288L176,288L147.5,373.5C145.8,378.7 149.6,384 155.1,384L186.2,384C194.7,384 202.6,379.5 206.9,372.1L256,288L302.9,288C319,288 334.4,281.6 345.7,270.3C353.6,262.4 353.6,249.6 345.7,241.8C334.4,230.4 319,224 302.9,224L256,224L206.9,139.9C202.6,132.5 194.7,128 186.2,128L155.1,128C149.6,128 145.8,133.3 147.5,138.5Z" style="fill:rgb(204,204,204);fill-rule:nonzero;"/>
            </g>
        </g>
        <g id="contract" opacity="0">
            <g transform="matrix(1,0,0,1,-130.177,-33.0547)">
                <g transform="matrix(48,0,0,48,172.177,196)">
                    <path d="M0.531,-0.263L0.671,-0.219C0.649,-0.141 0.614,-0.083 0.564,-0.045C0.514,-0.007 0.45,0.012 0.374,0.012C0.278,0.012 0.2,-0.02 0.139,-0.085C0.078,-0.15 0.047,-0.239 0.047,-0.352C0.047,-0.471 0.078,-0.563 0.14,-0.629C0.201,-0.695 0.282,-0.728 0.382,-0.728C0.47,-0.728 0.541,-0.702 0.596,-0.65C0.628,-0.62 0.653,-0.576 0.669,-0.519L0.526,-0.484C0.517,-0.521 0.5,-0.551 0.473,-0.572C0.446,-0.594 0.413,-0.604 0.375,-0.604C0.322,-0.604 0.279,-0.585 0.246,-0.547C0.213,-0.509 0.196,-0.448 0.196,-0.362C0.196,-0.272 0.213,-0.207 0.245,-0.169C0.278,-0.131 0.32,-0.111 0.372,-0.111C0.41,-0.111 0.444,-0.124 0.471,-0.148C0.499,-0.172 0.519,-0.211 0.531,-0.263Z" style="fill-rule:nonzero;"/>
                </g>
                <g transform="matrix(48,0,0,48,206.842,196)">
                    <path d="M0.043,-0.354C0.043,-0.426 0.054,-0.488 0.076,-0.537C0.092,-0.574 0.115,-0.606 0.143,-0.635C0.171,-0.664 0.202,-0.686 0.235,-0.7C0.28,-0.719 0.331,-0.728 0.39,-0.728C0.495,-0.728 0.58,-0.695 0.643,-0.63C0.706,-0.564 0.738,-0.473 0.738,-0.357C0.738,-0.241 0.706,-0.151 0.644,-0.086C0.581,-0.02 0.497,0.012 0.392,0.012C0.285,0.012 0.201,-0.02 0.138,-0.085C0.075,-0.15 0.043,-0.24 0.043,-0.354ZM0.192,-0.358C0.192,-0.277 0.211,-0.216 0.249,-0.174C0.286,-0.132 0.333,-0.111 0.391,-0.111C0.449,-0.111 0.496,-0.132 0.533,-0.174C0.57,-0.215 0.588,-0.277 0.588,-0.36C0.588,-0.442 0.57,-0.504 0.534,-0.544C0.498,-0.584 0.451,-0.604 0.391,-0.604C0.332,-0.604 0.284,-0.584 0.247,-0.543C0.211,-0.502 0.192,-0.441 0.192,-0.358Z" style="fill-rule:nonzero;"/>
                </g>
                <g transform="matrix(48,0,0,48,244.177,196)">
                    <path d="M0.074,-0L0.074,-0.716L0.215,-0.716L0.508,-0.238L0.508,-0.716L0.642,-0.716L0.642,-0L0.497,-0L0.208,-0.467L0.208,-0L0.074,-0Z" style="fill-rule:nonzero;"/>
                </g>
                <g transform="matrix(48,0,0,48,278.842,196)">
                    <path d="M0.234,-0L0.234,-0.595L0.021,-0.595L0.021,-0.716L0.59,-0.716L0.59,-0.595L0.378,-0.595L0.378,-0L0.234,-0Z" style="fill-rule:nonzero;"/>
                </g>
                <g transform="matrix(48,0,0,48,308.162,196)">
                    <path d="M0.073,-0L0.073,-0.716L0.377,-0.716C0.454,-0.716 0.51,-0.709 0.544,-0.697C0.579,-0.684 0.607,-0.661 0.627,-0.628C0.648,-0.595 0.659,-0.557 0.659,-0.515C0.659,-0.461 0.643,-0.417 0.611,-0.382C0.58,-0.347 0.533,-0.325 0.47,-0.316C0.501,-0.298 0.527,-0.278 0.547,-0.256C0.567,-0.234 0.595,-0.195 0.629,-0.14L0.717,-0L0.544,-0L0.439,-0.156C0.402,-0.211 0.377,-0.247 0.363,-0.261C0.35,-0.275 0.335,-0.285 0.32,-0.291C0.305,-0.296 0.28,-0.299 0.247,-0.299L0.218,-0.299L0.218,-0L0.073,-0ZM0.218,-0.413L0.325,-0.413C0.394,-0.413 0.437,-0.416 0.455,-0.422C0.472,-0.428 0.485,-0.438 0.495,-0.452C0.505,-0.466 0.51,-0.484 0.51,-0.506C0.51,-0.53 0.503,-0.549 0.49,-0.564C0.478,-0.579 0.459,-0.588 0.436,-0.592C0.424,-0.594 0.389,-0.595 0.331,-0.595L0.218,-0.595L0.218,-0.413Z" style="fill-rule:nonzero;"/>
                </g>
                <g transform="matrix(48,0,0,48,342.826,196)">
                    <path d="M0.718,-0L0.561,-0L0.499,-0.163L0.212,-0.163L0.153,-0L0,-0L0.279,-0.716L0.432,-0.716L0.718,-0ZM0.452,-0.283L0.354,-0.549L0.257,-0.283L0.452,-0.283Z" style="fill-rule:nonzero;"/>
                </g>
                <g transform="matrix(48,0,0,48,377.49,196)">
                    <path d="M0.531,-0.263L0.671,-0.219C0.649,-0.141 0.614,-0.083 0.564,-0.045C0.514,-0.007 0.45,0.012 0.374,0.012C0.278,0.012 0.2,-0.02 0.139,-0.085C0.078,-0.15 0.047,-0.239 0.047,-0.352C0.047,-0.471 0.078,-0.563 0.14,-0.629C0.201,-0.695 0.282,-0.728 0.382,-0.728C0.47,-0.728 0.541,-0.702 0.596,-0.65C0.628,-0.62 0.653,-0.576 0.669,-0.519L0.526,-0.484C0.517,-0.521 0.5,-0.551 0.473,-0.572C0.446,-0.594 0.413,-0.604 0.375,-0.604C0.322,-0.604 0.279,-0.585 0.246,-0.547C0.213,-0.509 0.196,-0.448 0.196,-0.362C0.196,-0.272 0.213,-0.207 0.245,-0.169C0.278,-0.131 0.32,-0.111 0.372,-0.111C0.41,-0.111 0.444,-0.124 0.471,-0.148C0.499,-0.172 0.519,-0.211 0.531,-0.263Z" style="fill-rule:nonzero;"/>
                </g>
                <g transform="matrix(48,0,0,48,412.154,196)">
                    <path d="M0.234,-0L0.234,-0.595L0.021,-0.595L0.021,-0.716L0.59,-0.716L0.59,-0.595L0.378,-0.595L0.378,-0L0.234,-0Z" style="fill-rule:nonzero;"/>
                </g>
            </g>
            <g transform="matrix(0.267797,0,0,0.267797,106.305,271.43)">
                <path d="M0,392C0,378.7 10.7,368 24,368L64,368L64,407.5C64,410.4 64.1,413.2 64.3,416L24,416C10.7,416 0,405.3 0,392ZM283.5,416C291.7,400.3 299.1,384.3 305.8,368L616,368C629.3,368 640,378.7 640,392C640,405.3 629.3,416 616,416L283.5,416ZM224,96C206.3,96 192,110.3 192,128L192,160C192,177.7 177.7,192 160,192C142.3,192 128,177.7 128,160L128,128C128,75 171,32 224,32C277,32 320,75 320,128L320,135.8C320,156.6 318.8,177.4 316.4,198.1L438.8,161.4C450.2,158 462.6,161.2 471,169.8C479.4,178.4 482.2,190.9 478.4,202.2L460.4,256.1L544,256.1C561.7,256.1 576,270.4 576,288.1C576,305.8 561.7,320.1 544,320.1L416,320.1C405.7,320.1 396.1,315.2 390,306.8C383.9,298.4 382.3,287.7 385.6,278L398.1,240.5L303.7,268.8C291.8,321.6 272.1,372.3 245.3,419.3L231.4,443.6C218.5,466.2 194.5,480.1 168.5,480.1C128.5,480.1 96,447.6 96,407.6L96,335.7C96,293.3 123.8,255.9 164.4,243.7L248.8,218.4C253.6,191.2 255.9,163.5 255.9,135.9L255.9,128.1C255.9,110.4 241.6,96.1 223.9,96.1L224,96ZM231.8,290.3L182.8,305C169.3,309 160,321.5 160,335.6L160,407.5C160,412.2 163.8,416 168.5,416C171.5,416 174.4,414.4 175.9,411.7L189.8,387.4C207.4,356.6 221.5,324 231.9,290.2L231.8,290.3Z" style="fill:rgb(204,204,204);"/>
            </g>
        </g>
        <g id="report" opacity="0">
            <g transform="matrix(1,0,0,1,-130.177,-33.0547)">
                <g transform="matrix(48,0,0,48,172.177,196)">
                    <path d="M0.073,-0L0.073,-0.716L0.377,-0.716C0.454,-0.716 0.51,-0.709 0.544,-0.697C0.579,-0.684 0.607,-0.661 0.627,-0.628C0.648,-0.595 0.659,-0.557 0.659,-0.515C0.659,-0.461 0.643,-0.417 0.611,-0.382C0.58,-0.347 0.533,-0.325 0.47,-0.316C0.501,-0.298 0.527,-0.278 0.547,-0.256C0.567,-0.234 0.595,-0.195 0.629,-0.14L0.717,-0L0.544,-0L0.439,-0.156C0.402,-0.211 0.377,-0.247 0.363,-0.261C0.35,-0.275 0.335,-0.285 0.32,-0.291C0.305,-0.296 0.28,-0.299 0.247,-0.299L0.218,-0.299L0.218,-0L0.073,-0ZM0.218,-0.413L0.325,-0.413C0.394,-0.413 0.437,-0.416 0.455,-0.422C0.472,-0.428 0.485,-0.438 0.495,-0.452C0.505,-0.466 0.51,-0.484 0.51,-0.506C0.51,-0.53 0.503,-0.549 0.49,-0.564C0.478,-0.579 0.459,-0.588 0.436,-0.592C0.424,-0.594 0.389,-0.595 0.331,-0.595L0.218,-0.595L0.218,-0.413Z" style="fill-rule:nonzero;"/>
                </g>
                <g transform="matrix(48,0,0,48,206.842,196)">
                    <path d="M0.073,-0L0.073,-0.716L0.604,-0.716L0.604,-0.595L0.217,-0.595L0.217,-0.436L0.577,-0.436L0.577,-0.315L0.217,-0.315L0.217,-0.121L0.617,-0.121L0.617,-0L0.073,-0Z" style="fill-rule:nonzero;"/>
                </g>
                <g transform="matrix(48,0,0,48,238.857,196)">
                    <path d="M0.073,-0L0.073,-0.716L0.305,-0.716C0.393,-0.716 0.45,-0.712 0.477,-0.705C0.518,-0.694 0.552,-0.671 0.58,-0.635C0.607,-0.599 0.621,-0.553 0.621,-0.496C0.621,-0.452 0.613,-0.415 0.597,-0.385C0.581,-0.355 0.561,-0.331 0.536,-0.314C0.512,-0.297 0.487,-0.286 0.461,-0.28C0.427,-0.273 0.377,-0.27 0.312,-0.27L0.217,-0.27L0.217,-0L0.073,-0ZM0.217,-0.595L0.217,-0.392L0.296,-0.392C0.353,-0.392 0.391,-0.395 0.411,-0.403C0.43,-0.41 0.445,-0.422 0.456,-0.438C0.467,-0.454 0.472,-0.472 0.472,-0.494C0.472,-0.52 0.465,-0.541 0.449,-0.558C0.434,-0.575 0.415,-0.586 0.391,-0.59C0.374,-0.593 0.339,-0.595 0.287,-0.595L0.217,-0.595Z" style="fill-rule:nonzero;"/>
                </g>
                <g transform="matrix(48,0,0,48,270.873,196)">
                    <path d="M0.043,-0.354C0.043,-0.426 0.054,-0.488 0.076,-0.537C0.092,-0.574 0.115,-0.606 0.143,-0.635C0.171,-0.664 0.202,-0.686 0.235,-0.7C0.28,-0.719 0.331,-0.728 0.39,-0.728C0.495,-0.728 0.58,-0.695 0.643,-0.63C0.706,-0.564 0.738,-0.473 0.738,-0.357C0.738,-0.241 0.706,-0.151 0.644,-0.086C0.581,-0.02 0.497,0.012 0.392,0.012C0.285,0.012 0.201,-0.02 0.138,-0.085C0.075,-0.15 0.043,-0.24 0.043,-0.354ZM0.192,-0.358C0.192,-0.277 0.211,-0.216 0.249,-0.174C0.286,-0.132 0.333,-0.111 0.391,-0.111C0.449,-0.111 0.496,-0.132 0.533,-0.174C0.57,-0.215 0.588,-0.277 0.588,-0.36C0.588,-0.442 0.57,-0.504 0.534,-0.544C0.498,-0.584 0.451,-0.604 0.391,-0.604C0.332,-0.604 0.284,-0.584 0.247,-0.543C0.211,-0.502 0.192,-0.441 0.192,-0.358Z" style="fill-rule:nonzero;"/>
                </g>
                <g transform="matrix(48,0,0,48,308.209,196)">
                    <path d="M0.073,-0L0.073,-0.716L0.377,-0.716C0.454,-0.716 0.51,-0.709 0.544,-0.697C0.579,-0.684 0.607,-0.661 0.627,-0.628C0.648,-0.595 0.659,-0.557 0.659,-0.515C0.659,-0.461 0.643,-0.417 0.611,-0.382C0.58,-0.347 0.533,-0.325 0.47,-0.316C0.501,-0.298 0.527,-0.278 0.547,-0.256C0.567,-0.234 0.595,-0.195 0.629,-0.14L0.717,-0L0.544,-0L0.439,-0.156C0.402,-0.211 0.377,-0.247 0.363,-0.261C0.35,-0.275 0.335,-0.285 0.32,-0.291C0.305,-0.296 0.28,-0.299 0.247,-0.299L0.218,-0.299L0.218,-0L0.073,-0ZM0.218,-0.413L0.325,-0.413C0.394,-0.413 0.437,-0.416 0.455,-0.422C0.472,-0.428 0.485,-0.438 0.495,-0.452C0.505,-0.466 0.51,-0.484 0.51,-0.506C0.51,-0.53 0.503,-0.549 0.49,-0.564C0.478,-0.579 0.459,-0.588 0.436,-0.592C0.424,-0.594 0.389,-0.595 0.331,-0.595L0.218,-0.595L0.218,-0.413Z" style="fill-rule:nonzero;"/>
                </g>
                <g transform="matrix(48,0,0,48,342.873,196)">
                    <path d="M0.234,-0L0.234,-0.595L0.021,-0.595L0.021,-0.716L0.59,-0.716L0.59,-0.595L0.378,-0.595L0.378,-0L0.234,-0Z" style="fill-rule:nonzero;"/>
                </g>
            </g>
            <g transform="matrix(0.295241,0,0,0.295241,102.552,264.418)">
                <path d="M32,272C32,150.7 122.1,50.3 239,34.3C248.2,33 256,40.4 256,49.7L256,288L412.5,444.5C419.2,451.2 418.7,462.2 411,467.6C371.8,495.6 323.8,512 272,512C139.5,512 32,404.6 32,272ZM527.4,240L304,240L304,16.6C304,7.6 311,-0 320,-0C443.7,0 544,100.3 544,224C544,233 536.4,240 527.4,240ZM558.4,288C567.7,288 575,295.8 573.8,305C566.1,360.9 539.2,410.6 499.9,447.3C493.9,452.9 484.5,452.5 478.7,446.6L320,288L558.4,288Z" style="fill:rgb(204,204,204);"/>
            </g>
        </g>
        <g id="invoice" opacity="0">
            <g transform="matrix(1,0,0,1,-130.177,-33.0547)">
                <g transform="matrix(48,0,0,48,172.177,196)">
                    <rect x="0.068" y="-0.716" width="0.145" height="0.716" style="fill-rule:nonzero;"/>
                </g>
                <g transform="matrix(48,0,0,48,185.513,196)">
                    <path d="M0.074,-0L0.074,-0.716L0.215,-0.716L0.508,-0.238L0.508,-0.716L0.642,-0.716L0.642,-0L0.497,-0L0.208,-0.467L0.208,-0L0.074,-0Z" style="fill-rule:nonzero;"/>
                </g>
                <g transform="matrix(48,0,0,48,220.177,196)">
                    <path d="M0.255,-0L-0,-0.716L0.156,-0.716L0.337,-0.186L0.513,-0.716L0.666,-0.716L0.41,-0L0.255,-0Z" style="fill-rule:nonzero;"/>
                </g>
                <g transform="matrix(48,0,0,48,252.193,196)">
                    <path d="M0.043,-0.354C0.043,-0.426 0.054,-0.488 0.076,-0.537C0.092,-0.574 0.115,-0.606 0.143,-0.635C0.171,-0.664 0.202,-0.686 0.235,-0.7C0.28,-0.719 0.331,-0.728 0.39,-0.728C0.495,-0.728 0.58,-0.695 0.643,-0.63C0.706,-0.564 0.738,-0.473 0.738,-0.357C0.738,-0.241 0.706,-0.151 0.644,-0.086C0.581,-0.02 0.497,0.012 0.392,0.012C0.285,0.012 0.201,-0.02 0.138,-0.085C0.075,-0.15 0.043,-0.24 0.043,-0.354ZM0.192,-0.358C0.192,-0.277 0.211,-0.216 0.249,-0.174C0.286,-0.132 0.333,-0.111 0.391,-0.111C0.449,-0.111 0.496,-0.132 0.533,-0.174C0.57,-0.215 0.588,-0.277 0.588,-0.36C0.588,-0.442 0.57,-0.504 0.534,-0.544C0.498,-0.584 0.451,-0.604 0.391,-0.604C0.332,-0.604 0.284,-0.584 0.247,-0.543C0.211,-0.502 0.192,-0.441 0.192,-0.358Z" style="fill-rule:nonzero;"/>
                </g>
                <g transform="matrix(48,0,0,48,289.529,196)">
                    <rect x="0.068" y="-0.716" width="0.145" height="0.716" style="fill-rule:nonzero;"/>
                </g>
                <g transform="matrix(48,0,0,48,302.865,196)">
                    <path d="M0.531,-0.263L0.671,-0.219C0.649,-0.141 0.614,-0.083 0.564,-0.045C0.514,-0.007 0.45,0.012 0.374,0.012C0.278,0.012 0.2,-0.02 0.139,-0.085C0.078,-0.15 0.047,-0.239 0.047,-0.352C0.047,-0.471 0.078,-0.563 0.14,-0.629C0.201,-0.695 0.282,-0.728 0.382,-0.728C0.47,-0.728 0.541,-0.702 0.596,-0.65C0.628,-0.62 0.653,-0.576 0.669,-0.519L0.526,-0.484C0.517,-0.521 0.5,-0.551 0.473,-0.572C0.446,-0.594 0.413,-0.604 0.375,-0.604C0.322,-0.604 0.279,-0.585 0.246,-0.547C0.213,-0.509 0.196,-0.448 0.196,-0.362C0.196,-0.272 0.213,-0.207 0.245,-0.169C0.278,-0.131 0.32,-0.111 0.372,-0.111C0.41,-0.111 0.444,-0.124 0.471,-0.148C0.499,-0.172 0.519,-0.211 0.531,-0.263Z" style="fill-rule:nonzero;"/>
                </g>
                <g transform="matrix(48,0,0,48,337.529,196)">
                    <path d="M0.073,-0L0.073,-0.716L0.604,-0.716L0.604,-0.595L0.217,-0.595L0.217,-0.436L0.577,-0.436L0.577,-0.315L0.217,-0.315L0.217,-0.121L0.617,-0.121L0.617,-0L0.073,-0Z" style="fill-rule:nonzero;"/>
                </g>
            </g>
            <g transform="matrix(0.332031,0,0,0.332031,139.075,255)">
                <path d="M128,445.292C127.567,445.229 127.133,445.165 126.7,445.1L126.5,445.1C102.1,441.3 62,430.8 35,418.8C18.8,411.6 11.6,392.7 18.8,376.6C26,360.5 44.9,353.2 61,360.4C81.9,369.7 116.3,378.8 136.2,382C168.1,386.7 194.4,384 212.2,376.7C229.1,369.8 236.8,359.8 239,347.8C240.9,337.2 239.4,331.1 237.7,327.4C235.8,323.4 232.1,319 224.7,314.1C208.3,303.4 183.2,296.4 150.7,287.8C149.8,287.6 148.9,287.3 147.9,287.1C119.4,279.3 84.4,270 58.4,253C44.2,243.7 30.9,231 22.6,213.4C14.2,195.5 12.5,175.5 16.5,154.2C23.7,116 52.3,91.2 84.8,78.3C117.2,65.4 156.9,62.4 196.7,68.3C197.1,68.4 197.4,68.4 197.8,68.5L245.8,77.3C263.2,80.5 274.7,97.2 271.5,114.5C268.3,131.8 251.6,143.4 234.3,140.2L186.8,131.5C155.5,126.9 127.9,130 108.5,137.7L108.5,137.8C89.1,145.5 81.3,156.1 79.5,165.9C77.5,176.6 79,182.6 80.7,186.3C82.5,190.2 86.2,194.6 93.5,199.5C109.8,210.2 134.8,217.2 167.2,225.8C168.1,226.1 169.1,226.3 170.1,226.6C198.7,234.2 233.7,243.4 259.7,260.4C273.9,269.7 287.3,282.3 295.6,299.9C304.1,317.8 305.9,337.8 302,359.1C295.1,397.1 268.9,422.5 236.4,435.8C222.752,441.371 207.781,444.965 192,446.776L192,480C192,497.7 177.7,512 160,512C142.3,512 128,497.7 128,480L128,445.292ZM128,32C128,14.3 142.3,0 160,0C177.7,0 192,14.3 192,32L192,67.6C170.1,64.8 148.4,64.6 128,67.3L128,32Z" style="fill:rgb(204,204,204);"/>
            </g>
        </g>
        <g id="exam" opacity="0">
            <g transform="matrix(1,0,0,1,-130.177,-33.0547)">
                <g transform="matrix(48,0,0,48,172.177,196)">
                    <path d="M0.073,-0L0.073,-0.716L0.604,-0.716L0.604,-0.595L0.217,-0.595L0.217,-0.436L0.577,-0.436L0.577,-0.315L0.217,-0.315L0.217,-0.121L0.617,-0.121L0.617,-0L0.073,-0Z" style="fill-rule:nonzero;"/>
                </g>
                <g transform="matrix(48,0,0,48,204.193,196)">
                    <path d="M0,-0L0.245,-0.374L0.023,-0.716L0.192,-0.716L0.335,-0.486L0.476,-0.716L0.644,-0.716L0.421,-0.368L0.666,-0L0.491,-0L0.333,-0.248L0.173,-0L0,-0Z" style="fill-rule:nonzero;"/>
                </g>
                <g transform="matrix(48,0,0,48,236.209,196)">
                    <path d="M0.718,-0L0.561,-0L0.499,-0.163L0.212,-0.163L0.153,-0L0,-0L0.279,-0.716L0.432,-0.716L0.718,-0ZM0.452,-0.283L0.354,-0.549L0.257,-0.283L0.452,-0.283Z" style="fill-rule:nonzero;"/>
                </g>
                <g transform="matrix(48,0,0,48,270.873,196)">
                    <path d="M0.071,-0L0.071,-0.716L0.287,-0.716L0.417,-0.228L0.545,-0.716L0.762,-0.716L0.762,-0L0.628,-0L0.628,-0.563L0.486,-0L0.347,-0L0.205,-0.563L0.205,-0L0.071,-0Z" style="fill-rule:nonzero;"/>
                </g>
            </g>
            <g transform="matrix(0.364583,0,0,0.364583,122,246.667)">
                <path d="M192,0C150.2,0 114.6,26.7 101.5,64L64,64C28.7,64 0,92.7 0,128L0,448C0,483.3 28.7,512 64,512L320,512C355.3,512 384,483.3 384,448L384,128C384,92.7 355.3,64 320,64L282.5,64C269.4,26.7 233.8,0 192,0ZM192,64C209.555,64 224,78.445 224,96C224,113.555 209.555,128 192,128C174.445,128 160,113.555 160,96C160,78.445 174.445,64 192,64ZM187.3,196.7C193.5,202.9 193.5,213.1 187.3,219.3L123.3,283.3C117.1,289.5 106.9,289.5 100.7,283.3L68.7,251.3C62.5,245.1 62.5,234.9 68.7,228.7C74.9,222.5 85.1,222.5 91.3,228.7L112,249.4L164.7,196.7C170.9,190.5 181.1,190.5 187.3,196.7ZM192,272C192,263.2 199.2,256 208,256L304,256C312.8,256 320,263.2 320,272C320,280.8 312.8,288 304,288L208,288C199.2,288 192,280.8 192,272ZM176,352L304,352C312.8,352 320,359.2 320,368C320,376.8 312.8,384 304,384L176,384C167.2,384 160,376.8 160,368C160,359.2 167.2,352 176,352ZM72,368C72,354.834 82.834,344 96,344C109.166,344 120,354.834 120,368C120,381.166 109.166,392 96,392C82.834,392 72,381.166 72,368Z" style="fill:rgb(204,204,204);fill-rule:nonzero;"/>
            </g>
        </g>
        <g id="docs" opacity="0">
            <g transform="matrix(1,0,0,1,-130.177,-33.0547)">
                <g transform="matrix(48,0,0,48,172.177,196)">
                    <path d="M0.072,-0.716L0.336,-0.716C0.396,-0.716 0.441,-0.711 0.473,-0.702C0.515,-0.69 0.551,-0.668 0.581,-0.636C0.611,-0.605 0.633,-0.566 0.649,-0.52C0.665,-0.475 0.672,-0.418 0.672,-0.351C0.672,-0.292 0.665,-0.241 0.65,-0.199C0.632,-0.147 0.607,-0.104 0.574,-0.072C0.549,-0.048 0.515,-0.029 0.472,-0.015C0.44,-0.005 0.398,-0 0.344,-0L0.072,-0L0.072,-0.716ZM0.217,-0.595L0.217,-0.121L0.325,-0.121C0.365,-0.121 0.394,-0.123 0.412,-0.127C0.436,-0.133 0.455,-0.143 0.47,-0.157C0.486,-0.171 0.499,-0.194 0.508,-0.226C0.518,-0.258 0.523,-0.302 0.523,-0.357C0.523,-0.413 0.518,-0.455 0.508,-0.485C0.499,-0.514 0.485,-0.538 0.467,-0.554C0.45,-0.571 0.427,-0.582 0.4,-0.588C0.38,-0.592 0.341,-0.595 0.282,-0.595L0.217,-0.595Z" style="fill-rule:nonzero;"/>
                </g>
                <g transform="matrix(48,0,0,48,206.842,196)">
                    <path d="M0.043,-0.354C0.043,-0.426 0.054,-0.488 0.076,-0.537C0.092,-0.574 0.115,-0.606 0.143,-0.635C0.171,-0.664 0.202,-0.686 0.235,-0.7C0.28,-0.719 0.331,-0.728 0.39,-0.728C0.495,-0.728 0.58,-0.695 0.643,-0.63C0.706,-0.564 0.738,-0.473 0.738,-0.357C0.738,-0.241 0.706,-0.151 0.644,-0.086C0.581,-0.02 0.497,0.012 0.392,0.012C0.285,0.012 0.201,-0.02 0.138,-0.085C0.075,-0.15 0.043,-0.24 0.043,-0.354ZM0.192,-0.358C0.192,-0.277 0.211,-0.216 0.249,-0.174C0.286,-0.132 0.333,-0.111 0.391,-0.111C0.449,-0.111 0.496,-0.132 0.533,-0.174C0.57,-0.215 0.588,-0.277 0.588,-0.36C0.588,-0.442 0.57,-0.504 0.534,-0.544C0.498,-0.584 0.451,-0.604 0.391,-0.604C0.332,-0.604 0.284,-0.584 0.247,-0.543C0.211,-0.502 0.192,-0.441 0.192,-0.358Z" style="fill-rule:nonzero;"/>
                </g>
                <g transform="matrix(48,0,0,48,244.177,196)">
                    <path d="M0.531,-0.263L0.671,-0.219C0.649,-0.141 0.614,-0.083 0.564,-0.045C0.514,-0.007 0.45,0.012 0.374,0.012C0.278,0.012 0.2,-0.02 0.139,-0.085C0.078,-0.15 0.047,-0.239 0.047,-0.352C0.047,-0.471 0.078,-0.563 0.14,-0.629C0.201,-0.695 0.282,-0.728 0.382,-0.728C0.47,-0.728 0.541,-0.702 0.596,-0.65C0.628,-0.62 0.653,-0.576 0.669,-0.519L0.526,-0.484C0.517,-0.521 0.5,-0.551 0.473,-0.572C0.446,-0.594 0.413,-0.604 0.375,-0.604C0.322,-0.604 0.279,-0.585 0.246,-0.547C0.213,-0.509 0.196,-0.448 0.196,-0.362C0.196,-0.272 0.213,-0.207 0.245,-0.169C0.278,-0.131 0.32,-0.111 0.372,-0.111C0.41,-0.111 0.444,-0.124 0.471,-0.148C0.499,-0.172 0.519,-0.211 0.531,-0.263Z" style="fill-rule:nonzero;"/>
                </g>
                <g transform="matrix(48,0,0,48,278.842,196)">
                    <path d="M0.036,-0.233L0.177,-0.247C0.185,-0.199 0.202,-0.165 0.228,-0.143C0.254,-0.12 0.289,-0.109 0.333,-0.109C0.38,-0.109 0.415,-0.119 0.438,-0.139C0.462,-0.159 0.474,-0.182 0.474,-0.208C0.474,-0.225 0.469,-0.239 0.459,-0.251C0.449,-0.263 0.431,-0.273 0.407,-0.282C0.39,-0.288 0.351,-0.299 0.291,-0.313C0.214,-0.333 0.159,-0.356 0.128,-0.384C0.084,-0.424 0.062,-0.472 0.062,-0.528C0.062,-0.565 0.072,-0.599 0.093,-0.631C0.114,-0.662 0.143,-0.687 0.182,-0.703C0.221,-0.72 0.268,-0.728 0.323,-0.728C0.413,-0.728 0.481,-0.708 0.526,-0.669C0.572,-0.63 0.595,-0.577 0.598,-0.511L0.453,-0.505C0.447,-0.542 0.434,-0.568 0.413,-0.584C0.393,-0.6 0.362,-0.608 0.322,-0.608C0.28,-0.608 0.247,-0.6 0.223,-0.583C0.208,-0.571 0.2,-0.557 0.2,-0.538C0.2,-0.521 0.207,-0.507 0.222,-0.495C0.24,-0.479 0.284,-0.463 0.354,-0.447C0.425,-0.43 0.477,-0.413 0.51,-0.395C0.544,-0.378 0.571,-0.353 0.59,-0.323C0.609,-0.292 0.618,-0.254 0.618,-0.208C0.618,-0.167 0.607,-0.129 0.584,-0.093C0.561,-0.057 0.529,-0.031 0.487,-0.013C0.446,0.004 0.394,0.013 0.332,0.013C0.241,0.013 0.172,-0.008 0.123,-0.05C0.075,-0.092 0.046,-0.153 0.036,-0.233Z" style="fill-rule:nonzero;"/>
                </g>
            </g>
            <g transform="matrix(0.25,0,0,0.25,112,275.669)">
                <path d="M304,32L304,408L96,368L96,34.7C96,14.9 113.8,-0.2 133.3,3.1L304,32ZM89.7,405.1L320,451.2L550.3,405.1C565.3,402.1 576,389 576,373.7L576,28.7L601.7,23.6C621.5,19.7 640,34.8 640,55L640,421.7C640,437 629.2,450.1 614.3,453.1L320,512L25.7,453.1C10.8,450.2 0,437 0,421.8L0,55C0,34.8 18.5,19.7 38.3,23.7L64,28.8L64,373.8C64,389.1 74.8,402.2 89.7,405.2L89.7,405.1ZM336,408L336,32L506.7,3.1C526.2,-0.2 544,14.9 544,34.7L544,368L336,408Z" style="fill:rgb(204,204,204);fill-rule:nonzero;"/>
            </g>
        </g>
        <g id="certificate" opacity="0">
            <g transform="matrix(1,0,0,1,-130.177,-33.0547)">
                <g transform="matrix(48,0,0,48,172.177,196)">
                    <path d="M0.531,-0.263L0.671,-0.219C0.649,-0.141 0.614,-0.083 0.564,-0.045C0.514,-0.007 0.45,0.012 0.374,0.012C0.278,0.012 0.2,-0.02 0.139,-0.085C0.078,-0.15 0.047,-0.239 0.047,-0.352C0.047,-0.471 0.078,-0.563 0.14,-0.629C0.201,-0.695 0.282,-0.728 0.382,-0.728C0.47,-0.728 0.541,-0.702 0.596,-0.65C0.628,-0.62 0.653,-0.576 0.669,-0.519L0.526,-0.484C0.517,-0.521 0.5,-0.551 0.473,-0.572C0.446,-0.594 0.413,-0.604 0.375,-0.604C0.322,-0.604 0.279,-0.585 0.246,-0.547C0.213,-0.509 0.196,-0.448 0.196,-0.362C0.196,-0.272 0.213,-0.207 0.245,-0.169C0.278,-0.131 0.32,-0.111 0.372,-0.111C0.41,-0.111 0.444,-0.124 0.471,-0.148C0.499,-0.172 0.519,-0.211 0.531,-0.263Z" style="fill-rule:nonzero;"/>
                </g>
                <g transform="matrix(48,0,0,48,206.842,196)">
                    <path d="M0.073,-0L0.073,-0.716L0.604,-0.716L0.604,-0.595L0.217,-0.595L0.217,-0.436L0.577,-0.436L0.577,-0.315L0.217,-0.315L0.217,-0.121L0.617,-0.121L0.617,-0L0.073,-0Z" style="fill-rule:nonzero;"/>
                </g>
                <g transform="matrix(48,0,0,48,238.857,196)">
                    <path d="M0.073,-0L0.073,-0.716L0.377,-0.716C0.454,-0.716 0.51,-0.709 0.544,-0.697C0.579,-0.684 0.607,-0.661 0.627,-0.628C0.648,-0.595 0.659,-0.557 0.659,-0.515C0.659,-0.461 0.643,-0.417 0.611,-0.382C0.58,-0.347 0.533,-0.325 0.47,-0.316C0.501,-0.298 0.527,-0.278 0.547,-0.256C0.567,-0.234 0.595,-0.195 0.629,-0.14L0.717,-0L0.544,-0L0.439,-0.156C0.402,-0.211 0.377,-0.247 0.363,-0.261C0.35,-0.275 0.335,-0.285 0.32,-0.291C0.305,-0.296 0.28,-0.299 0.247,-0.299L0.218,-0.299L0.218,-0L0.073,-0ZM0.218,-0.413L0.325,-0.413C0.394,-0.413 0.437,-0.416 0.455,-0.422C0.472,-0.428 0.485,-0.438 0.495,-0.452C0.505,-0.466 0.51,-0.484 0.51,-0.506C0.51,-0.53 0.503,-0.549 0.49,-0.564C0.478,-0.579 0.459,-0.588 0.436,-0.592C0.424,-0.594 0.389,-0.595 0.331,-0.595L0.218,-0.595L0.218,-0.413Z" style="fill-rule:nonzero;"/>
                </g>
                <g transform="matrix(48,0,0,48,273.521,196)">
                    <path d="M0.234,-0L0.234,-0.595L0.021,-0.595L0.021,-0.716L0.59,-0.716L0.59,-0.595L0.378,-0.595L0.378,-0L0.234,-0Z" style="fill-rule:nonzero;"/>
                </g>
                <g transform="matrix(48,0,0,48,302.842,196)">
                    <rect x="0.068" y="-0.716" width="0.145" height="0.716" style="fill-rule:nonzero;"/>
                </g>
                <g transform="matrix(48,0,0,48,316.177,196)">
                    <path d="M0.074,-0L0.074,-0.716L0.564,-0.716L0.564,-0.595L0.218,-0.595L0.218,-0.425L0.517,-0.425L0.517,-0.304L0.218,-0.304L0.218,-0L0.074,-0Z" style="fill-rule:nonzero;"/>
                </g>
                <g transform="matrix(48,0,0,48,345.498,196)">
                    <rect x="0.068" y="-0.716" width="0.145" height="0.716" style="fill-rule:nonzero;"/>
                </g>
                <g transform="matrix(48,0,0,48,358.834,196)">
                    <path d="M0.531,-0.263L0.671,-0.219C0.649,-0.141 0.614,-0.083 0.564,-0.045C0.514,-0.007 0.45,0.012 0.374,0.012C0.278,0.012 0.2,-0.02 0.139,-0.085C0.078,-0.15 0.047,-0.239 0.047,-0.352C0.047,-0.471 0.078,-0.563 0.14,-0.629C0.201,-0.695 0.282,-0.728 0.382,-0.728C0.47,-0.728 0.541,-0.702 0.596,-0.65C0.628,-0.62 0.653,-0.576 0.669,-0.519L0.526,-0.484C0.517,-0.521 0.5,-0.551 0.473,-0.572C0.446,-0.594 0.413,-0.604 0.375,-0.604C0.322,-0.604 0.279,-0.585 0.246,-0.547C0.213,-0.509 0.196,-0.448 0.196,-0.362C0.196,-0.272 0.213,-0.207 0.245,-0.169C0.278,-0.131 0.32,-0.111 0.372,-0.111C0.41,-0.111 0.444,-0.124 0.471,-0.148C0.499,-0.172 0.519,-0.211 0.531,-0.263Z" style="fill-rule:nonzero;"/>
                </g>
                <g transform="matrix(48,0,0,48,393.498,196)">
                    <path d="M0.718,-0L0.561,-0L0.499,-0.163L0.212,-0.163L0.153,-0L0,-0L0.279,-0.716L0.432,-0.716L0.718,-0ZM0.452,-0.283L0.354,-0.549L0.257,-0.283L0.452,-0.283Z" style="fill-rule:nonzero;"/>
                </g>
                <g transform="matrix(48,0,0,48,424.599,196)">
                    <path d="M0.234,-0L0.234,-0.595L0.021,-0.595L0.021,-0.716L0.59,-0.716L0.59,-0.595L0.378,-0.595L0.378,-0L0.234,-0Z" style="fill-rule:nonzero;"/>
                </g>
                <g transform="matrix(48,0,0,48,453.92,196)">
                    <path d="M0.073,-0L0.073,-0.716L0.604,-0.716L0.604,-0.595L0.217,-0.595L0.217,-0.436L0.577,-0.436L0.577,-0.315L0.217,-0.315L0.217,-0.121L0.617,-0.121L0.617,-0L0.073,-0Z" style="fill-rule:nonzero;"/>
                </g>
            </g>
            <g transform="matrix(0.482679,0,0,0.482679,130.193,177.865)">
                <path d="M109.2,161.6C99.2,157.5 87.7,160.6 81.1,169.1L70.6,182.6C69.3,184.3 67.4,185.3 65.4,185.6L48.5,187.9C37.8,189.4 29.4,197.8 28,208.4L25.7,225.3C25.4,227.4 24.3,229.3 22.7,230.5L9.1,241.1C0.6,247.7 -2.5,259.2 1.6,269.2L8,285C8.8,286.9 8.8,289.1 8,291.1L1.6,306.8C-2.5,316.8 0.6,328.3 9.1,334.9L22.6,345.4C24.3,346.7 25.3,348.6 25.6,350.6L27.9,367.5C29.4,378.2 37.8,386.6 48.4,388.1L64,390.2L64,496C64,501.9 67.2,507.3 72.5,510.1C77.8,512.9 84,512.6 88.9,509.3L128,483.2L167.1,509.3C172,512.6 178.3,512.9 183.5,510.1C188.7,507.3 192,501.9 192,496L192,390.2L207.5,388.1C218.2,386.6 226.6,378.2 228,367.5L230.3,350.6C230.6,348.5 231.7,346.6 233.3,345.4L246.8,334.9C255.3,328.3 258.4,316.8 254.3,306.8L248,291C247.2,289.1 247.2,286.9 248,284.9L254.5,269.1C258.6,259.1 255.5,247.6 247,241L233.5,230.5C231.8,229.2 230.8,227.3 230.5,225.3L228.2,208.4C226.7,197.7 218.3,189.3 207.7,187.9L190.8,185.6C188.7,185.3 186.8,184.2 185.6,182.6L175.1,169.1C168.5,160.6 157,157.5 147,161.6L131,168C129.1,168.8 126.9,168.8 124.9,168L109.1,161.5L109.2,161.6ZM64,288C64,252.891 92.891,224 128,224C163.109,224 192,252.891 192,288C192,323.109 163.109,352 128,352C92.891,352 64,323.109 64,288Z" style="fill:rgb(204,204,204);fill-rule:nonzero;"/>
            </g>
        </g>
        <g id="productCatalog" opacity="0">
            <g transform="matrix(0.3125,0,0,0.3125,112,280)">
                <path d="M0,80C0,53.5 21.5,32 48,32L176,32C202.5,32 224,53.5 224,80L224,192C224,218.5 202.5,240 176,240L48,240C21.5,240 0,218.5 0,192L0,80ZM0,320C0,293.5 21.5,272 48,272L176,272C202.5,272 224,293.5 224,320L224,432C224,458.5 202.5,480 176,480L48,480C21.5,480 0,458.5 0,432L0,320ZM304,32L464,32C490.5,32 512,53.5 512,80L512,112C512,138.5 490.5,160 464,160L304,160C277.5,160 256,138.5 256,112L256,80C256,53.5 277.5,32 304,32ZM256,240C256,213.5 277.5,192 304,192L464,192C490.5,192 512,213.5 512,240L512,272C512,298.5 490.5,320 464,320L304,320C277.5,320 256,298.5 256,272L256,240ZM304,352L464,352C490.5,352 512,373.5 512,400L512,432C512,458.5 490.5,480 464,480L304,480C277.5,480 256,458.5 256,432L256,400C256,373.5 277.5,352 304,352Z" style="fill:rgb(204,204,204);fill-rule:nonzero;"/>
            </g>
            <g transform="matrix(1,0,0,1,-130.177,-33.0547)">
                <g transform="matrix(48,0,0,48,172.177,196)">
                    <path d="M0.073,-0L0.073,-0.716L0.305,-0.716C0.393,-0.716 0.45,-0.712 0.477,-0.705C0.518,-0.694 0.552,-0.671 0.58,-0.635C0.607,-0.599 0.621,-0.553 0.621,-0.496C0.621,-0.452 0.613,-0.415 0.597,-0.385C0.581,-0.355 0.561,-0.331 0.536,-0.314C0.512,-0.297 0.487,-0.286 0.461,-0.28C0.427,-0.273 0.377,-0.27 0.312,-0.27L0.217,-0.27L0.217,-0L0.073,-0ZM0.217,-0.595L0.217,-0.392L0.296,-0.392C0.353,-0.392 0.391,-0.395 0.411,-0.403C0.43,-0.41 0.445,-0.422 0.456,-0.438C0.467,-0.454 0.472,-0.472 0.472,-0.494C0.472,-0.52 0.465,-0.541 0.449,-0.558C0.434,-0.575 0.415,-0.586 0.391,-0.59C0.374,-0.593 0.339,-0.595 0.287,-0.595L0.217,-0.595Z" style="fill-rule:nonzero;"/>
                </g>
                <g transform="matrix(48,0,0,48,204.193,196)">
                    <path d="M0.073,-0L0.073,-0.716L0.377,-0.716C0.454,-0.716 0.51,-0.709 0.544,-0.697C0.579,-0.684 0.607,-0.661 0.627,-0.628C0.648,-0.595 0.659,-0.557 0.659,-0.515C0.659,-0.461 0.643,-0.417 0.611,-0.382C0.58,-0.347 0.533,-0.325 0.47,-0.316C0.501,-0.298 0.527,-0.278 0.547,-0.256C0.567,-0.234 0.595,-0.195 0.629,-0.14L0.717,-0L0.544,-0L0.439,-0.156C0.402,-0.211 0.377,-0.247 0.363,-0.261C0.35,-0.275 0.335,-0.285 0.32,-0.291C0.305,-0.296 0.28,-0.299 0.247,-0.299L0.218,-0.299L0.218,-0L0.073,-0ZM0.218,-0.413L0.325,-0.413C0.394,-0.413 0.437,-0.416 0.455,-0.422C0.472,-0.428 0.485,-0.438 0.495,-0.452C0.505,-0.466 0.51,-0.484 0.51,-0.506C0.51,-0.53 0.503,-0.549 0.49,-0.564C0.478,-0.579 0.459,-0.588 0.436,-0.592C0.424,-0.594 0.389,-0.595 0.331,-0.595L0.218,-0.595L0.218,-0.413Z" style="fill-rule:nonzero;"/>
                </g>
                <g transform="matrix(48,0,0,48,238.857,196)">
                    <path d="M0.043,-0.354C0.043,-0.426 0.054,-0.488 0.076,-0.537C0.092,-0.574 0.115,-0.606 0.143,-0.635C0.171,-0.664 0.202,-0.686 0.235,-0.7C0.28,-0.719 0.331,-0.728 0.39,-0.728C0.495,-0.728 0.58,-0.695 0.643,-0.63C0.706,-0.564 0.738,-0.473 0.738,-0.357C0.738,-0.241 0.706,-0.151 0.644,-0.086C0.581,-0.02 0.497,0.012 0.392,0.012C0.285,0.012 0.201,-0.02 0.138,-0.085C0.075,-0.15 0.043,-0.24 0.043,-0.354ZM0.192,-0.358C0.192,-0.277 0.211,-0.216 0.249,-0.174C0.286,-0.132 0.333,-0.111 0.391,-0.111C0.449,-0.111 0.496,-0.132 0.533,-0.174C0.57,-0.215 0.588,-0.277 0.588,-0.36C0.588,-0.442 0.57,-0.504 0.534,-0.544C0.498,-0.584 0.451,-0.604 0.391,-0.604C0.332,-0.604 0.284,-0.584 0.247,-0.543C0.211,-0.502 0.192,-0.441 0.192,-0.358Z" style="fill-rule:nonzero;"/>
                </g>
                <g transform="matrix(48,0,0,48,276.193,196)">
                    <path d="M0.072,-0.716L0.336,-0.716C0.396,-0.716 0.441,-0.711 0.473,-0.702C0.515,-0.69 0.551,-0.668 0.581,-0.636C0.611,-0.605 0.633,-0.566 0.649,-0.52C0.665,-0.475 0.672,-0.418 0.672,-0.351C0.672,-0.292 0.665,-0.241 0.65,-0.199C0.632,-0.147 0.607,-0.104 0.574,-0.072C0.549,-0.048 0.515,-0.029 0.472,-0.015C0.44,-0.005 0.398,-0 0.344,-0L0.072,-0L0.072,-0.716ZM0.217,-0.595L0.217,-0.121L0.325,-0.121C0.365,-0.121 0.394,-0.123 0.412,-0.127C0.436,-0.133 0.455,-0.143 0.47,-0.157C0.486,-0.171 0.499,-0.194 0.508,-0.226C0.518,-0.258 0.523,-0.302 0.523,-0.357C0.523,-0.413 0.518,-0.455 0.508,-0.485C0.499,-0.514 0.485,-0.538 0.467,-0.554C0.45,-0.571 0.427,-0.582 0.4,-0.588C0.38,-0.592 0.341,-0.595 0.282,-0.595L0.217,-0.595Z" style="fill-rule:nonzero;"/>
                </g>
                <g transform="matrix(48,0,0,48,310.857,196)">
                    <path d="M0.072,-0.716L0.216,-0.716L0.216,-0.328C0.216,-0.267 0.218,-0.227 0.222,-0.208C0.228,-0.179 0.243,-0.156 0.266,-0.138C0.289,-0.12 0.321,-0.111 0.361,-0.111C0.402,-0.111 0.433,-0.12 0.454,-0.136C0.475,-0.153 0.487,-0.174 0.492,-0.198C0.496,-0.223 0.498,-0.263 0.498,-0.32L0.498,-0.716L0.643,-0.716L0.643,-0.34C0.643,-0.254 0.639,-0.193 0.631,-0.158C0.623,-0.122 0.609,-0.092 0.588,-0.068C0.567,-0.043 0.539,-0.024 0.503,-0.01C0.468,0.005 0.422,0.012 0.366,0.012C0.297,0.012 0.246,0.004 0.21,-0.011C0.175,-0.027 0.147,-0.048 0.126,-0.073C0.106,-0.098 0.092,-0.125 0.086,-0.152C0.076,-0.193 0.072,-0.254 0.072,-0.334L0.072,-0.716Z" style="fill-rule:nonzero;"/>
                </g>
                <g transform="matrix(48,0,0,48,345.521,196)">
                    <path d="M0.531,-0.263L0.671,-0.219C0.649,-0.141 0.614,-0.083 0.564,-0.045C0.514,-0.007 0.45,0.012 0.374,0.012C0.278,0.012 0.2,-0.02 0.139,-0.085C0.078,-0.15 0.047,-0.239 0.047,-0.352C0.047,-0.471 0.078,-0.563 0.14,-0.629C0.201,-0.695 0.282,-0.728 0.382,-0.728C0.47,-0.728 0.541,-0.702 0.596,-0.65C0.628,-0.62 0.653,-0.576 0.669,-0.519L0.526,-0.484C0.517,-0.521 0.5,-0.551 0.473,-0.572C0.446,-0.594 0.413,-0.604 0.375,-0.604C0.322,-0.604 0.279,-0.585 0.246,-0.547C0.213,-0.509 0.196,-0.448 0.196,-0.362C0.196,-0.272 0.213,-0.207 0.245,-0.169C0.278,-0.131 0.32,-0.111 0.372,-0.111C0.41,-0.111 0.444,-0.124 0.471,-0.148C0.499,-0.172 0.519,-0.211 0.531,-0.263Z" style="fill-rule:nonzero;"/>
                </g>
                <g transform="matrix(48,0,0,48,380.185,196)">
                    <path d="M0.234,-0L0.234,-0.595L0.021,-0.595L0.021,-0.716L0.59,-0.716L0.59,-0.595L0.378,-0.595L0.378,-0L0.234,-0Z" style="fill-rule:nonzero;"/>
                </g>
                <g transform="matrix(48,0,0,48,172.177,245.57)">
                    <path d="M0.531,-0.263L0.671,-0.219C0.649,-0.141 0.614,-0.083 0.564,-0.045C0.514,-0.007 0.45,0.012 0.374,0.012C0.278,0.012 0.2,-0.02 0.139,-0.085C0.078,-0.15 0.047,-0.239 0.047,-0.352C0.047,-0.471 0.078,-0.563 0.14,-0.629C0.201,-0.695 0.282,-0.728 0.382,-0.728C0.47,-0.728 0.541,-0.702 0.596,-0.65C0.628,-0.62 0.653,-0.576 0.669,-0.519L0.526,-0.484C0.517,-0.521 0.5,-0.551 0.473,-0.572C0.446,-0.594 0.413,-0.604 0.375,-0.604C0.322,-0.604 0.279,-0.585 0.246,-0.547C0.213,-0.509 0.196,-0.448 0.196,-0.362C0.196,-0.272 0.213,-0.207 0.245,-0.169C0.278,-0.131 0.32,-0.111 0.372,-0.111C0.41,-0.111 0.444,-0.124 0.471,-0.148C0.499,-0.172 0.519,-0.211 0.531,-0.263Z" style="fill-rule:nonzero;"/>
                </g>
                <g transform="matrix(48,0,0,48,206.842,245.57)">
                    <path d="M0.718,-0L0.561,-0L0.499,-0.163L0.212,-0.163L0.153,-0L0,-0L0.279,-0.716L0.432,-0.716L0.718,-0ZM0.452,-0.283L0.354,-0.549L0.257,-0.283L0.452,-0.283Z" style="fill-rule:nonzero;"/>
                </g>
                <g transform="matrix(48,0,0,48,237.943,245.57)">
                    <path d="M0.234,-0L0.234,-0.595L0.021,-0.595L0.021,-0.716L0.59,-0.716L0.59,-0.595L0.378,-0.595L0.378,-0L0.234,-0Z" style="fill-rule:nonzero;"/>
                </g>
                <g transform="matrix(48,0,0,48,263.701,245.57)">
                    <path d="M0.718,-0L0.561,-0L0.499,-0.163L0.212,-0.163L0.153,-0L0,-0L0.279,-0.716L0.432,-0.716L0.718,-0ZM0.452,-0.283L0.354,-0.549L0.257,-0.283L0.452,-0.283Z" style="fill-rule:nonzero;"/>
                </g>
                <g transform="matrix(48,0,0,48,298.365,245.57)">
                    <path d="M0.077,-0L0.077,-0.71L0.221,-0.71L0.221,-0.121L0.581,-0.121L0.581,-0L0.077,-0Z" style="fill-rule:nonzero;"/>
                </g>
                <g transform="matrix(48,0,0,48,327.685,245.57)">
                    <path d="M0.043,-0.354C0.043,-0.426 0.054,-0.488 0.076,-0.537C0.092,-0.574 0.115,-0.606 0.143,-0.635C0.171,-0.664 0.202,-0.686 0.235,-0.7C0.28,-0.719 0.331,-0.728 0.39,-0.728C0.495,-0.728 0.58,-0.695 0.643,-0.63C0.706,-0.564 0.738,-0.473 0.738,-0.357C0.738,-0.241 0.706,-0.151 0.644,-0.086C0.581,-0.02 0.497,0.012 0.392,0.012C0.285,0.012 0.201,-0.02 0.138,-0.085C0.075,-0.15 0.043,-0.24 0.043,-0.354ZM0.192,-0.358C0.192,-0.277 0.211,-0.216 0.249,-0.174C0.286,-0.132 0.333,-0.111 0.391,-0.111C0.449,-0.111 0.496,-0.132 0.533,-0.174C0.57,-0.215 0.588,-0.277 0.588,-0.36C0.588,-0.442 0.57,-0.504 0.534,-0.544C0.498,-0.584 0.451,-0.604 0.391,-0.604C0.332,-0.604 0.284,-0.584 0.247,-0.543C0.211,-0.502 0.192,-0.441 0.192,-0.358Z" style="fill-rule:nonzero;"/>
                </g>
                <g transform="matrix(48,0,0,48,365.021,245.57)">
                    <path d="M0.406,-0.263L0.406,-0.384L0.717,-0.384L0.717,-0.099C0.687,-0.069 0.643,-0.044 0.586,-0.021C0.528,0.001 0.47,0.012 0.411,0.012C0.336,0.012 0.271,-0.003 0.215,-0.035C0.16,-0.066 0.118,-0.111 0.09,-0.17C0.062,-0.228 0.048,-0.292 0.048,-0.36C0.048,-0.435 0.063,-0.501 0.095,-0.559C0.126,-0.617 0.172,-0.661 0.232,-0.692C0.278,-0.716 0.335,-0.728 0.403,-0.728C0.492,-0.728 0.562,-0.709 0.612,-0.672C0.662,-0.635 0.694,-0.583 0.708,-0.518L0.564,-0.491C0.554,-0.526 0.535,-0.554 0.508,-0.574C0.48,-0.594 0.445,-0.604 0.403,-0.604C0.34,-0.604 0.29,-0.584 0.253,-0.544C0.215,-0.504 0.197,-0.445 0.197,-0.366C0.197,-0.281 0.216,-0.218 0.253,-0.175C0.291,-0.133 0.341,-0.111 0.402,-0.111C0.432,-0.111 0.462,-0.117 0.493,-0.129C0.523,-0.141 0.549,-0.155 0.571,-0.172L0.571,-0.263L0.406,-0.263Z" style="fill-rule:nonzero;"/>
                </g>
            </g>
        </g>
        <g id="medical" opacity="0">
            <g transform="matrix(1,0,0,1,-130.177,-33.0547)">
                <g transform="matrix(48,0,0,48,172.177,196)">
                    <path d="M0.071,-0L0.071,-0.716L0.287,-0.716L0.417,-0.228L0.545,-0.716L0.762,-0.716L0.762,-0L0.628,-0L0.628,-0.563L0.486,-0L0.347,-0L0.205,-0.563L0.205,-0L0.071,-0Z" style="fill-rule:nonzero;"/>
                </g>
                <g transform="matrix(48,0,0,48,212.162,196)">
                    <path d="M0.073,-0L0.073,-0.716L0.604,-0.716L0.604,-0.595L0.217,-0.595L0.217,-0.436L0.577,-0.436L0.577,-0.315L0.217,-0.315L0.217,-0.121L0.617,-0.121L0.617,-0L0.073,-0Z" style="fill-rule:nonzero;"/>
                </g>
                <g transform="matrix(48,0,0,48,244.177,196)">
                    <path d="M0.072,-0.716L0.336,-0.716C0.396,-0.716 0.441,-0.711 0.473,-0.702C0.515,-0.69 0.551,-0.668 0.581,-0.636C0.611,-0.605 0.633,-0.566 0.649,-0.52C0.665,-0.475 0.672,-0.418 0.672,-0.351C0.672,-0.292 0.665,-0.241 0.65,-0.199C0.632,-0.147 0.607,-0.104 0.574,-0.072C0.549,-0.048 0.515,-0.029 0.472,-0.015C0.44,-0.005 0.398,-0 0.344,-0L0.072,-0L0.072,-0.716ZM0.217,-0.595L0.217,-0.121L0.325,-0.121C0.365,-0.121 0.394,-0.123 0.412,-0.127C0.436,-0.133 0.455,-0.143 0.47,-0.157C0.486,-0.171 0.499,-0.194 0.508,-0.226C0.518,-0.258 0.523,-0.302 0.523,-0.357C0.523,-0.413 0.518,-0.455 0.508,-0.485C0.499,-0.514 0.485,-0.538 0.467,-0.554C0.45,-0.571 0.427,-0.582 0.4,-0.588C0.38,-0.592 0.341,-0.595 0.282,-0.595L0.217,-0.595Z" style="fill-rule:nonzero;"/>
                </g>
                <g transform="matrix(48,0,0,48,278.842,196)">
                    <rect x="0.068" y="-0.716" width="0.145" height="0.716" style="fill-rule:nonzero;"/>
                </g>
                <g transform="matrix(48,0,0,48,292.177,196)">
                    <path d="M0.531,-0.263L0.671,-0.219C0.649,-0.141 0.614,-0.083 0.564,-0.045C0.514,-0.007 0.45,0.012 0.374,0.012C0.278,0.012 0.2,-0.02 0.139,-0.085C0.078,-0.15 0.047,-0.239 0.047,-0.352C0.047,-0.471 0.078,-0.563 0.14,-0.629C0.201,-0.695 0.282,-0.728 0.382,-0.728C0.47,-0.728 0.541,-0.702 0.596,-0.65C0.628,-0.62 0.653,-0.576 0.669,-0.519L0.526,-0.484C0.517,-0.521 0.5,-0.551 0.473,-0.572C0.446,-0.594 0.413,-0.604 0.375,-0.604C0.322,-0.604 0.279,-0.585 0.246,-0.547C0.213,-0.509 0.196,-0.448 0.196,-0.362C0.196,-0.272 0.213,-0.207 0.245,-0.169C0.278,-0.131 0.32,-0.111 0.372,-0.111C0.41,-0.111 0.444,-0.124 0.471,-0.148C0.499,-0.172 0.519,-0.211 0.531,-0.263Z" style="fill-rule:nonzero;"/>
                </g>
                <g transform="matrix(48,0,0,48,326.842,196)">
                    <path d="M0.718,-0L0.561,-0L0.499,-0.163L0.212,-0.163L0.153,-0L0,-0L0.279,-0.716L0.432,-0.716L0.718,-0ZM0.452,-0.283L0.354,-0.549L0.257,-0.283L0.452,-0.283Z" style="fill-rule:nonzero;"/>
                </g>
                <g transform="matrix(48,0,0,48,361.506,196)">
                    <path d="M0.077,-0L0.077,-0.71L0.221,-0.71L0.221,-0.121L0.581,-0.121L0.581,-0L0.077,-0Z" style="fill-rule:nonzero;"/>
                </g>
            </g>
            <g transform="matrix(0.312523,0,0,0.312523,99.9993,259.988)">
                <path d="M142.4,21.9C148,38.7 138.9,56.8 122.2,62.4L96,71.1L96,192C96,245 139,288 192,288C245,288 288,245 288,192L288,71.1L261.9,62.4C245.1,56.8 236.1,38.7 241.7,21.9C247.3,5.1 265.4,-3.9 282.2,1.7L308.3,10.4C334.4,19.1 352,43.5 352,71.1L352,192C352,269.2 297.4,333.6 224.7,348.7C231,404.6 278.4,448 336,448C397.9,448 448,397.9 448,336L448,265.3C419.7,253 400,224.8 400,192C400,147.8 435.8,112 480,112C524.2,112 560,147.8 560,192C560,224.8 540.3,253 512,265.3L512,336C512,433.2 433.2,512 336,512C243.1,512 167.1,440.1 160.5,348.9C87.2,334.2 32,269.6 32,192L32,71.1C32,43.6 49.6,19.1 75.8,10.4L101.9,1.7C118.7,-3.9 136.8,5.2 142.4,21.9ZM480,224C497.555,224 512,209.555 512,192C512,174.445 497.555,160 480,160C462.445,160 448,174.445 448,192C448,209.555 462.445,224 480,224Z" style="fill:rgb(204,204,204);fill-rule:nonzero;"/>
            </g>
        </g>
        <g id="dataExport" opacity="0">
            <g transform="matrix(1,0,0,1,-130.177,-33.0547)">
                <g transform="matrix(48,0,0,48,172.177,196)">
                    <path d="M0.072,-0.716L0.336,-0.716C0.396,-0.716 0.441,-0.711 0.473,-0.702C0.515,-0.69 0.551,-0.668 0.581,-0.636C0.611,-0.605 0.633,-0.566 0.649,-0.52C0.665,-0.475 0.672,-0.418 0.672,-0.351C0.672,-0.292 0.665,-0.241 0.65,-0.199C0.632,-0.147 0.607,-0.104 0.574,-0.072C0.549,-0.048 0.515,-0.029 0.472,-0.015C0.44,-0.005 0.398,-0 0.344,-0L0.072,-0L0.072,-0.716ZM0.217,-0.595L0.217,-0.121L0.325,-0.121C0.365,-0.121 0.394,-0.123 0.412,-0.127C0.436,-0.133 0.455,-0.143 0.47,-0.157C0.486,-0.171 0.499,-0.194 0.508,-0.226C0.518,-0.258 0.523,-0.302 0.523,-0.357C0.523,-0.413 0.518,-0.455 0.508,-0.485C0.499,-0.514 0.485,-0.538 0.467,-0.554C0.45,-0.571 0.427,-0.582 0.4,-0.588C0.38,-0.592 0.341,-0.595 0.282,-0.595L0.217,-0.595Z" style="fill-rule:nonzero;"/>
                </g>
                <g transform="matrix(48,0,0,48,206.842,196)">
                    <path d="M0.718,-0L0.561,-0L0.499,-0.163L0.212,-0.163L0.153,-0L0,-0L0.279,-0.716L0.432,-0.716L0.718,-0ZM0.452,-0.283L0.354,-0.549L0.257,-0.283L0.452,-0.283Z" style="fill-rule:nonzero;"/>
                </g>
                <g transform="matrix(48,0,0,48,237.943,196)">
                    <path d="M0.234,-0L0.234,-0.595L0.021,-0.595L0.021,-0.716L0.59,-0.716L0.59,-0.595L0.378,-0.595L0.378,-0L0.234,-0Z" style="fill-rule:nonzero;"/>
                </g>
                <g transform="matrix(48,0,0,48,263.701,196)">
                    <path d="M0.718,-0L0.561,-0L0.499,-0.163L0.212,-0.163L0.153,-0L0,-0L0.279,-0.716L0.432,-0.716L0.718,-0ZM0.452,-0.283L0.354,-0.549L0.257,-0.283L0.452,-0.283Z" style="fill-rule:nonzero;"/>
                </g>
                <g transform="matrix(48,0,0,48,172.177,245.57)">
                    <path d="M0.073,-0L0.073,-0.716L0.604,-0.716L0.604,-0.595L0.217,-0.595L0.217,-0.436L0.577,-0.436L0.577,-0.315L0.217,-0.315L0.217,-0.121L0.617,-0.121L0.617,-0L0.073,-0Z" style="fill-rule:nonzero;"/>
                </g>
                <g transform="matrix(48,0,0,48,204.193,245.57)">
                    <path d="M0,-0L0.245,-0.374L0.023,-0.716L0.192,-0.716L0.335,-0.486L0.476,-0.716L0.644,-0.716L0.421,-0.368L0.666,-0L0.491,-0L0.333,-0.248L0.173,-0L0,-0Z" style="fill-rule:nonzero;"/>
                </g>
                <g transform="matrix(48,0,0,48,236.209,245.57)">
                    <path d="M0.073,-0L0.073,-0.716L0.305,-0.716C0.393,-0.716 0.45,-0.712 0.477,-0.705C0.518,-0.694 0.552,-0.671 0.58,-0.635C0.607,-0.599 0.621,-0.553 0.621,-0.496C0.621,-0.452 0.613,-0.415 0.597,-0.385C0.581,-0.355 0.561,-0.331 0.536,-0.314C0.512,-0.297 0.487,-0.286 0.461,-0.28C0.427,-0.273 0.377,-0.27 0.312,-0.27L0.217,-0.27L0.217,-0L0.073,-0ZM0.217,-0.595L0.217,-0.392L0.296,-0.392C0.353,-0.392 0.391,-0.395 0.411,-0.403C0.43,-0.41 0.445,-0.422 0.456,-0.438C0.467,-0.454 0.472,-0.472 0.472,-0.494C0.472,-0.52 0.465,-0.541 0.449,-0.558C0.434,-0.575 0.415,-0.586 0.391,-0.59C0.374,-0.593 0.339,-0.595 0.287,-0.595L0.217,-0.595Z" style="fill-rule:nonzero;"/>
                </g>
                <g transform="matrix(48,0,0,48,268.224,245.57)">
                    <path d="M0.043,-0.354C0.043,-0.426 0.054,-0.488 0.076,-0.537C0.092,-0.574 0.115,-0.606 0.143,-0.635C0.171,-0.664 0.202,-0.686 0.235,-0.7C0.28,-0.719 0.331,-0.728 0.39,-0.728C0.495,-0.728 0.58,-0.695 0.643,-0.63C0.706,-0.564 0.738,-0.473 0.738,-0.357C0.738,-0.241 0.706,-0.151 0.644,-0.086C0.581,-0.02 0.497,0.012 0.392,0.012C0.285,0.012 0.201,-0.02 0.138,-0.085C0.075,-0.15 0.043,-0.24 0.043,-0.354ZM0.192,-0.358C0.192,-0.277 0.211,-0.216 0.249,-0.174C0.286,-0.132 0.333,-0.111 0.391,-0.111C0.449,-0.111 0.496,-0.132 0.533,-0.174C0.57,-0.215 0.588,-0.277 0.588,-0.36C0.588,-0.442 0.57,-0.504 0.534,-0.544C0.498,-0.584 0.451,-0.604 0.391,-0.604C0.332,-0.604 0.284,-0.584 0.247,-0.543C0.211,-0.502 0.192,-0.441 0.192,-0.358Z" style="fill-rule:nonzero;"/>
                </g>
                <g transform="matrix(48,0,0,48,305.56,245.57)">
                    <path d="M0.073,-0L0.073,-0.716L0.377,-0.716C0.454,-0.716 0.51,-0.709 0.544,-0.697C0.579,-0.684 0.607,-0.661 0.627,-0.628C0.648,-0.595 0.659,-0.557 0.659,-0.515C0.659,-0.461 0.643,-0.417 0.611,-0.382C0.58,-0.347 0.533,-0.325 0.47,-0.316C0.501,-0.298 0.527,-0.278 0.547,-0.256C0.567,-0.234 0.595,-0.195 0.629,-0.14L0.717,-0L0.544,-0L0.439,-0.156C0.402,-0.211 0.377,-0.247 0.363,-0.261C0.35,-0.275 0.335,-0.285 0.32,-0.291C0.305,-0.296 0.28,-0.299 0.247,-0.299L0.218,-0.299L0.218,-0L0.073,-0ZM0.218,-0.413L0.325,-0.413C0.394,-0.413 0.437,-0.416 0.455,-0.422C0.472,-0.428 0.485,-0.438 0.495,-0.452C0.505,-0.466 0.51,-0.484 0.51,-0.506C0.51,-0.53 0.503,-0.549 0.49,-0.564C0.478,-0.579 0.459,-0.588 0.436,-0.592C0.424,-0.594 0.389,-0.595 0.331,-0.595L0.218,-0.595L0.218,-0.413Z" style="fill-rule:nonzero;"/>
                </g>
                <g transform="matrix(48,0,0,48,340.224,245.57)">
                    <path d="M0.234,-0L0.234,-0.595L0.021,-0.595L0.021,-0.716L0.59,-0.716L0.59,-0.595L0.378,-0.595L0.378,-0L0.234,-0Z" style="fill-rule:nonzero;"/>
                </g>
            </g>
            <g transform="matrix(0.3125,0,0,0.3125,112,260)">
                <path d="M64,256L64,160L224,160L224,256L64,256ZM64,320L224,320L224,416L64,416L64,320ZM288,416L288,320L448,320L448,416L288,416ZM448,256L288,256L288,160L448,160L448,256ZM64,32C28.7,32 0,60.7 0,96L0,416C0,451.3 28.7,480 64,480L448,480C483.3,480 512,451.3 512,416L512,96C512,60.7 483.3,32 448,32L64,32Z" style="fill:rgb(204,204,204);fill-rule:nonzero;"/>
            </g>
        </g>
        <g id="delivery" opacity="0">
            <g transform="matrix(1,0,0,1,-130.177,-33.0547)">
                <g transform="matrix(48,0,0,48,172.177,196)">
                    <path d="M0.072,-0.716L0.336,-0.716C0.396,-0.716 0.441,-0.711 0.473,-0.702C0.515,-0.69 0.551,-0.668 0.581,-0.636C0.611,-0.605 0.633,-0.566 0.649,-0.52C0.665,-0.475 0.672,-0.418 0.672,-0.351C0.672,-0.292 0.665,-0.241 0.65,-0.199C0.632,-0.147 0.607,-0.104 0.574,-0.072C0.549,-0.048 0.515,-0.029 0.472,-0.015C0.44,-0.005 0.398,-0 0.344,-0L0.072,-0L0.072,-0.716ZM0.217,-0.595L0.217,-0.121L0.325,-0.121C0.365,-0.121 0.394,-0.123 0.412,-0.127C0.436,-0.133 0.455,-0.143 0.47,-0.157C0.486,-0.171 0.499,-0.194 0.508,-0.226C0.518,-0.258 0.523,-0.302 0.523,-0.357C0.523,-0.413 0.518,-0.455 0.508,-0.485C0.499,-0.514 0.485,-0.538 0.467,-0.554C0.45,-0.571 0.427,-0.582 0.4,-0.588C0.38,-0.592 0.341,-0.595 0.282,-0.595L0.217,-0.595Z" style="fill-rule:nonzero;"/>
                </g>
                <g transform="matrix(48,0,0,48,206.842,196)">
                    <path d="M0.073,-0L0.073,-0.716L0.604,-0.716L0.604,-0.595L0.217,-0.595L0.217,-0.436L0.577,-0.436L0.577,-0.315L0.217,-0.315L0.217,-0.121L0.617,-0.121L0.617,-0L0.073,-0Z" style="fill-rule:nonzero;"/>
                </g>
                <g transform="matrix(48,0,0,48,238.857,196)">
                    <path d="M0.077,-0L0.077,-0.71L0.221,-0.71L0.221,-0.121L0.581,-0.121L0.581,-0L0.077,-0Z" style="fill-rule:nonzero;"/>
                </g>
                <g transform="matrix(48,0,0,48,268.177,196)">
                    <rect x="0.068" y="-0.716" width="0.145" height="0.716" style="fill-rule:nonzero;"/>
                </g>
                <g transform="matrix(48,0,0,48,281.513,196)">
                    <path d="M0.255,-0L-0,-0.716L0.156,-0.716L0.337,-0.186L0.513,-0.716L0.666,-0.716L0.41,-0L0.255,-0Z" style="fill-rule:nonzero;"/>
                </g>
                <g transform="matrix(48,0,0,48,313.529,196)">
                    <path d="M0.073,-0L0.073,-0.716L0.604,-0.716L0.604,-0.595L0.217,-0.595L0.217,-0.436L0.577,-0.436L0.577,-0.315L0.217,-0.315L0.217,-0.121L0.617,-0.121L0.617,-0L0.073,-0Z" style="fill-rule:nonzero;"/>
                </g>
                <g transform="matrix(48,0,0,48,345.545,196)">
                    <path d="M0.073,-0L0.073,-0.716L0.377,-0.716C0.454,-0.716 0.51,-0.709 0.544,-0.697C0.579,-0.684 0.607,-0.661 0.627,-0.628C0.648,-0.595 0.659,-0.557 0.659,-0.515C0.659,-0.461 0.643,-0.417 0.611,-0.382C0.58,-0.347 0.533,-0.325 0.47,-0.316C0.501,-0.298 0.527,-0.278 0.547,-0.256C0.567,-0.234 0.595,-0.195 0.629,-0.14L0.717,-0L0.544,-0L0.439,-0.156C0.402,-0.211 0.377,-0.247 0.363,-0.261C0.35,-0.275 0.335,-0.285 0.32,-0.291C0.305,-0.296 0.28,-0.299 0.247,-0.299L0.218,-0.299L0.218,-0L0.073,-0ZM0.218,-0.413L0.325,-0.413C0.394,-0.413 0.437,-0.416 0.455,-0.422C0.472,-0.428 0.485,-0.438 0.495,-0.452C0.505,-0.466 0.51,-0.484 0.51,-0.506C0.51,-0.53 0.503,-0.549 0.49,-0.564C0.478,-0.579 0.459,-0.588 0.436,-0.592C0.424,-0.594 0.389,-0.595 0.331,-0.595L0.218,-0.595L0.218,-0.413Z" style="fill-rule:nonzero;"/>
                </g>
                <g transform="matrix(48,0,0,48,378.427,196)">
                    <path d="M0.261,-0L0.261,-0.301L-0.001,-0.716L0.168,-0.716L0.336,-0.433L0.501,-0.716L0.668,-0.716L0.405,-0.3L0.405,-0L0.261,-0Z" style="fill-rule:nonzero;"/>
                </g>
            </g>
            <g transform="matrix(0.317512,0,0,0.317512,112,258.711)">
                <path d="M32,48C32,21.668 53.668,0 80,0C106.332,-0 128,21.668 128,48C128,74.332 106.332,96 80,96C53.668,96 32,74.332 32,48ZM96,241.7L96,306.8L147,357.8C154.1,364.9 158.8,374 160.4,383.9L175.6,474.8C178.5,492.2 166.7,508.7 149.3,511.6C131.9,514.5 115.4,502.7 112.5,485.3L98.1,399.4L18.7,320C6.7,308 0,291.7 0,274.7L0,186.6C0,154.2 26.2,128 58.6,128C82.7,128 105.1,140 118.5,160L161.1,224L207.2,224L200.7,197.8C197.5,184.9 205.3,171.9 218.2,168.7C231.1,165.5 244.1,173.3 247.3,186.2L296.9,384.6C314.5,387 329.8,396.6 339.7,410.3L474.1,376.7C487,373.5 500,381.3 503.2,394.2C506.4,407.1 498.6,420.1 485.7,423.3L351.4,456.9C347.1,488 320.3,512 288,512C252.7,512 224,483.3 224,448C224,426.7 234.4,407.9 250.3,396.3L223.3,288L152.6,288C136.6,288 121.6,280 112.7,266.6L96,241.7ZM0,480L0,346.5L64,410.5L64,480C64,497.7 49.7,512 32,512C14.3,512 0,497.7 0,480ZM288,464C296.777,464 304,456.777 304,448C304,439.223 296.777,432 288,432C279.223,432 272,439.223 272,448C272,456.777 279.223,464 288,464ZM357.4,376.2C340.3,380.5 322.9,370.1 318.6,352.9L295.7,261.4C291.4,244.3 301.8,226.9 319,222.6L410.5,199.7C427.6,195.4 445,205.8 449.3,223L472.2,314.5C476.5,331.6 466.1,349 448.9,353.3L357.4,376.2Z" style="fill:rgb(204,204,204);fill-rule:nonzero;"/>
            </g>
        </g>
        <g id="photos" opacity="0">
            <g transform="matrix(1,0,0,1,-130.177,-33.0547)">
                <g transform="matrix(48,0,0,48,172.177,196)">
                    <path d="M0.073,-0L0.073,-0.716L0.305,-0.716C0.393,-0.716 0.45,-0.712 0.477,-0.705C0.518,-0.694 0.552,-0.671 0.58,-0.635C0.607,-0.599 0.621,-0.553 0.621,-0.496C0.621,-0.452 0.613,-0.415 0.597,-0.385C0.581,-0.355 0.561,-0.331 0.536,-0.314C0.512,-0.297 0.487,-0.286 0.461,-0.28C0.427,-0.273 0.377,-0.27 0.312,-0.27L0.217,-0.27L0.217,-0L0.073,-0ZM0.217,-0.595L0.217,-0.392L0.296,-0.392C0.353,-0.392 0.391,-0.395 0.411,-0.403C0.43,-0.41 0.445,-0.422 0.456,-0.438C0.467,-0.454 0.472,-0.472 0.472,-0.494C0.472,-0.52 0.465,-0.541 0.449,-0.558C0.434,-0.575 0.415,-0.586 0.391,-0.59C0.374,-0.593 0.339,-0.595 0.287,-0.595L0.217,-0.595Z" style="fill-rule:nonzero;"/>
                </g>
                <g transform="matrix(48,0,0,48,204.193,196)">
                    <path d="M0.073,-0L0.073,-0.716L0.218,-0.716L0.218,-0.434L0.501,-0.434L0.501,-0.716L0.646,-0.716L0.646,-0L0.501,-0L0.501,-0.313L0.218,-0.313L0.218,-0L0.073,-0Z" style="fill-rule:nonzero;"/>
                </g>
                <g transform="matrix(48,0,0,48,238.857,196)">
                    <path d="M0.043,-0.354C0.043,-0.426 0.054,-0.488 0.076,-0.537C0.092,-0.574 0.115,-0.606 0.143,-0.635C0.171,-0.664 0.202,-0.686 0.235,-0.7C0.28,-0.719 0.331,-0.728 0.39,-0.728C0.495,-0.728 0.58,-0.695 0.643,-0.63C0.706,-0.564 0.738,-0.473 0.738,-0.357C0.738,-0.241 0.706,-0.151 0.644,-0.086C0.581,-0.02 0.497,0.012 0.392,0.012C0.285,0.012 0.201,-0.02 0.138,-0.085C0.075,-0.15 0.043,-0.24 0.043,-0.354ZM0.192,-0.358C0.192,-0.277 0.211,-0.216 0.249,-0.174C0.286,-0.132 0.333,-0.111 0.391,-0.111C0.449,-0.111 0.496,-0.132 0.533,-0.174C0.57,-0.215 0.588,-0.277 0.588,-0.36C0.588,-0.442 0.57,-0.504 0.534,-0.544C0.498,-0.584 0.451,-0.604 0.391,-0.604C0.332,-0.604 0.284,-0.584 0.247,-0.543C0.211,-0.502 0.192,-0.441 0.192,-0.358Z" style="fill-rule:nonzero;"/>
                </g>
                <g transform="matrix(48,0,0,48,276.193,196)">
                    <path d="M0.234,-0L0.234,-0.595L0.021,-0.595L0.021,-0.716L0.59,-0.716L0.59,-0.595L0.378,-0.595L0.378,-0L0.234,-0Z" style="fill-rule:nonzero;"/>
                </g>
                <g transform="matrix(48,0,0,48,304.646,196)">
                    <path d="M0.043,-0.354C0.043,-0.426 0.054,-0.488 0.076,-0.537C0.092,-0.574 0.115,-0.606 0.143,-0.635C0.171,-0.664 0.202,-0.686 0.235,-0.7C0.28,-0.719 0.331,-0.728 0.39,-0.728C0.495,-0.728 0.58,-0.695 0.643,-0.63C0.706,-0.564 0.738,-0.473 0.738,-0.357C0.738,-0.241 0.706,-0.151 0.644,-0.086C0.581,-0.02 0.497,0.012 0.392,0.012C0.285,0.012 0.201,-0.02 0.138,-0.085C0.075,-0.15 0.043,-0.24 0.043,-0.354ZM0.192,-0.358C0.192,-0.277 0.211,-0.216 0.249,-0.174C0.286,-0.132 0.333,-0.111 0.391,-0.111C0.449,-0.111 0.496,-0.132 0.533,-0.174C0.57,-0.215 0.588,-0.277 0.588,-0.36C0.588,-0.442 0.57,-0.504 0.534,-0.544C0.498,-0.584 0.451,-0.604 0.391,-0.604C0.332,-0.604 0.284,-0.584 0.247,-0.543C0.211,-0.502 0.192,-0.441 0.192,-0.358Z" style="fill-rule:nonzero;"/>
                </g>
                <g transform="matrix(48,0,0,48,341.982,196)">
                    <path d="M0.036,-0.233L0.177,-0.247C0.185,-0.199 0.202,-0.165 0.228,-0.143C0.254,-0.12 0.289,-0.109 0.333,-0.109C0.38,-0.109 0.415,-0.119 0.438,-0.139C0.462,-0.159 0.474,-0.182 0.474,-0.208C0.474,-0.225 0.469,-0.239 0.459,-0.251C0.449,-0.263 0.431,-0.273 0.407,-0.282C0.39,-0.288 0.351,-0.299 0.291,-0.313C0.214,-0.333 0.159,-0.356 0.128,-0.384C0.084,-0.424 0.062,-0.472 0.062,-0.528C0.062,-0.565 0.072,-0.599 0.093,-0.631C0.114,-0.662 0.143,-0.687 0.182,-0.703C0.221,-0.72 0.268,-0.728 0.323,-0.728C0.413,-0.728 0.481,-0.708 0.526,-0.669C0.572,-0.63 0.595,-0.577 0.598,-0.511L0.453,-0.505C0.447,-0.542 0.434,-0.568 0.413,-0.584C0.393,-0.6 0.362,-0.608 0.322,-0.608C0.28,-0.608 0.247,-0.6 0.223,-0.583C0.208,-0.571 0.2,-0.557 0.2,-0.538C0.2,-0.521 0.207,-0.507 0.222,-0.495C0.24,-0.479 0.284,-0.463 0.354,-0.447C0.425,-0.43 0.477,-0.413 0.51,-0.395C0.544,-0.378 0.571,-0.353 0.59,-0.323C0.609,-0.292 0.618,-0.254 0.618,-0.208C0.618,-0.167 0.607,-0.129 0.584,-0.093C0.561,-0.057 0.529,-0.031 0.487,-0.013C0.446,0.004 0.394,0.013 0.332,0.013C0.241,0.013 0.172,-0.008 0.123,-0.05C0.075,-0.092 0.046,-0.153 0.036,-0.233Z" style="fill-rule:nonzero;"/>
                </g>
            </g>
            <g transform="matrix(0.3125,0,0,0.3125,112,260)">
                <path d="M448,480L64,480C28.7,480 0,451.3 0,416L0,96C0,60.7 28.7,32 64,32L192,32C212.1,32 231.1,41.5 243.2,57.6L262.4,83.2C268.4,91.3 277.9,96 288,96L448,96C483.3,96 512,124.7 512,160L512,416C512,451.3 483.3,480 448,480ZM176,224C176,206.445 161.555,192 144,192C126.445,192 112,206.445 112,224C112,241.555 126.445,256 144,256C161.555,256 176,241.555 176,224ZM296,224C288,224 280.5,228 276,234.7L220,318.7L202.7,297C198.1,291.3 191.2,288 184,288C176.8,288 169.8,291.3 165.3,297L101.3,377C95.5,384.2 94.4,394.1 98.4,402.4C102.4,410.7 110.8,416 120,416L392,416C400.9,416 409,411.1 413.2,403.3C417.4,395.5 416.9,386 412,378.7L316,234.7C311.5,228 304,224 296,224Z" style="fill:rgb(204,204,204);fill-opacity:0.91;fill-rule:nonzero;"/>
            </g>
        </g>
    </g>
    <defs>
        <linearGradient id="_Linear1" x1="0" y1="0" x2="1" y2="0" gradientUnits="userSpaceOnUse" gradientTransform="matrix(380,512,-512,380,0,0)"><stop offset="0" style="stop-color:white;stop-opacity:1"/><stop offset="1" style="stop-color:rgb(238,238,238);stop-opacity:1"/></linearGradient>
    </defs>
</svg>
